<svg width="293" height="349" viewBox="0 0 293 349" fill="none" xmlns="http://www.w3.org/2000/svg">
<path d="M142.168 1.46522C153.917 3.42843 162.346 11.3353 169.779 18.3116C173.759 22.046 177.524 25.5761 181.546 28.1097C190.636 33.8312 198.741 36.0046 206.582 38.1059C219.255 41.498 232.361 45.0102 246.464 62.7512C260.663 80.6182 265.988 97.6267 262.74 114.749C259.558 131.542 248.223 146.059 238.707 156.823C232.5 163.854 228.159 172.553 223.572 181.763C219.58 189.772 215.455 198.051 209.86 205.562C195.505 224.815 181.528 231.726 163.127 228.652C156.03 227.469 148.736 224.917 141.015 222.216C134.189 219.832 127.134 217.365 119.227 215.426C118.465 215.24 117.655 215.071 116.826 214.933C112.804 214.261 108.565 214.243 104.086 214.219C99.3011 214.195 94.3601 214.171 89.335 213.33C83.3192 212.328 78.1441 210.28 73.5272 207.08C59.2504 197.192 57.9416 185.899 56.6748 174.985C56.1585 170.536 55.6241 165.943 54.2013 161.17C52.3821 155.082 49.1041 149.469 45.6339 143.519C40.3267 134.43 34.8393 125.028 34.2929 113.206C33.2423 90.4523 48.1795 77.8145 59.5025 70.2858C63.1348 67.8663 66.713 65.9631 70.1711 64.12C77.3636 60.2896 83.5714 56.9816 87.6479 50.3115C88.8667 48.3182 89.5151 44.9021 90.1395 41.6001C90.8899 37.6376 91.6704 33.5371 93.5856 29.8508C100.514 16.4985 115.667 2.43181 133.901 1.08698C136.71 0.894864 139.49 1.02094 142.168 1.46522Z" stroke="url(#paint0_linear_23_227)" stroke-miterlimit="10" stroke-dasharray="25 25"/>
<path d="M241.763 66.4854C220.48 39.7089 203.273 48.8886 178.346 33.1949C164.141 24.2553 154.319 5.62578 134.339 7.0907C119.312 8.19537 105.647 19.6505 98.9109 32.6305C95.765 38.6943 96.1973 47.8379 92.7691 53.4514C85.6908 65.0326 74.0075 67.8603 62.8226 75.2929C49.9326 83.8662 39.4561 94.871 40.2906 112.936C41.1011 130.557 55.0598 143.045 59.9588 159.459C65.086 176.642 59.5746 190.114 76.9493 202.157C90.7699 211.733 106.296 206.078 120.662 209.602C157.387 218.602 177.452 239.002 205.051 201.977C216.596 186.488 221.813 166.886 234.217 152.855C256.262 127.897 269.999 102.009 241.763 66.4854Z" fill="url(#paint1_linear_23_227)"/>
<path d="M149 54.6144L181 106.602L213 158.591H149H85L117 106.602L149 54.6144Z" fill="#F2B643"/>
<path d="M143.738 136.58L146.437 133.657V158.59H149V121.862L143.738 136.58Z" fill="#D89932"/>
<path d="M149 54.6144V158.591H213L149 54.6144Z" fill="#5A47AB"/>
<path d="M149 54.6144L85.0005 158.591H134.708C134.708 158.591 154.938 112.784 155.027 96.941C155.116 81.0985 149 54.6144 149 54.6144Z" fill="#5A47AB"/>
<path opacity="0.5" d="M153.064 108.724C147.968 128.564 134.707 158.59 134.707 158.59L126.908 150.559L153.064 108.724Z" fill="#AF496B"/>
<path d="M191.986 158.59L169.075 108.724L180.53 158.59H191.986Z" fill="#39229A"/>
<path d="M102.048 158.591H110.091L132.272 99.8655L102.048 158.591Z" fill="#39229A"/>
<path d="M149 129.228C149 129.228 158.96 113.759 156.583 93.8942C155.234 82.6173 149 54.6146 149 54.6146C149 54.6146 155.117 81.0984 155.027 96.9409C154.995 102.586 152.406 112.036 149.087 121.862L149 129.228Z" fill="#39229A"/>
<path d="M85 158.591H88.8649L149 54.6144L85 158.591Z" fill="#39229A"/>
<path d="M213 158.591H209.136L149 54.6144L213 158.591Z" fill="#39229A"/>
<path d="M1.73852 293H9.92852V291.479H3.34052V287.141H8.84852V285.62H3.34052V281.561H9.92852V280.04H1.73852V293ZM16.655 282.146C17.111 282.146 17.522 282.035 17.888 281.813C18.26 281.591 18.557 281.294 18.779 280.922C19.001 280.55 19.112 280.139 19.112 279.689H17.816C17.816 280.007 17.702 280.28 17.474 280.508C17.252 280.736 16.979 280.85 16.655 280.85C16.337 280.85 16.064 280.736 15.836 280.508C15.608 280.28 15.494 280.007 15.494 279.689H14.198C14.198 280.139 14.309 280.55 14.531 280.922C14.753 281.294 15.05 281.591 15.422 281.813C15.794 282.035 16.205 282.146 16.655 282.146ZM15.908 293.27C16.508 293.27 17.045 293.168 17.519 292.964C17.999 292.76 18.413 292.475 18.761 292.109V293.045C18.779 295.043 17.87 296.042 16.034 296.042C15.56 296.042 15.104 295.934 14.666 295.718C14.228 295.502 13.889 295.157 13.649 294.683L12.182 295.457C12.59 296.183 13.142 296.72 13.838 297.068C14.534 297.416 15.263 297.59 16.025 297.59C17.189 297.59 18.137 297.341 18.869 296.843C19.607 296.351 20.069 295.589 20.255 294.557C20.303 294.317 20.333 294.074 20.345 293.828C20.363 293.588 20.372 293.333 20.372 293.063V283.28H18.95V284.369C18.596 283.943 18.164 283.61 17.654 283.37C17.144 283.13 16.559 283.01 15.899 283.01C14.999 283.01 14.225 283.235 13.577 283.685C12.929 284.129 12.428 284.738 12.074 285.512C11.726 286.286 11.552 287.159 11.552 288.131C11.552 289.103 11.726 289.976 12.074 290.75C12.422 291.524 12.92 292.139 13.568 292.595C14.222 293.045 15.002 293.27 15.908 293.27ZM16.106 291.803C15.47 291.803 14.939 291.641 14.513 291.317C14.093 290.993 13.778 290.555 13.568 290.003C13.358 289.445 13.253 288.821 13.253 288.131C13.253 287.447 13.355 286.829 13.559 286.277C13.769 285.725 14.087 285.287 14.513 284.963C14.945 284.639 15.491 284.477 16.151 284.477C17.099 284.477 17.801 284.819 18.257 285.503C18.719 286.181 18.95 287.057 18.95 288.131C18.95 289.199 18.722 290.078 18.266 290.768C17.81 291.458 17.09 291.803 16.106 291.803ZM23.065 281.561H24.667V279.905H23.065V281.561ZM23.065 293H24.667V283.28H23.065V293ZM32.7944 293V291.623C32.1284 291.725 31.5584 291.743 31.0844 291.677C30.6164 291.611 30.2744 291.386 30.0584 291.002C29.9444 290.798 29.8814 290.558 29.8694 290.282C29.8634 290 29.8604 289.658 29.8604 289.256V284.603H32.7944V283.28H29.8604V280.58H28.2584V283.28H26.2874V284.603H28.2584V289.328C28.2584 289.832 28.2644 290.282 28.2764 290.678C28.2944 291.068 28.3994 291.452 28.5914 291.83C28.8194 292.268 29.1524 292.592 29.5904 292.802C30.0284 293.006 30.5264 293.117 31.0844 293.135C31.6484 293.159 32.2184 293.114 32.7944 293ZM34.7588 293H36.3698V286.826C36.3698 286.112 36.5618 285.539 36.9458 285.107C37.3358 284.675 37.8488 284.459 38.4848 284.459C39.1208 284.459 39.6308 284.672 40.0148 285.098C40.3988 285.524 40.5908 286.106 40.5908 286.844L40.5818 293H42.1748L42.1838 286.826C42.1838 286.28 42.2858 285.833 42.4898 285.485C42.6938 285.137 42.9578 284.879 43.2818 284.711C43.6058 284.543 43.9478 284.459 44.3078 284.459C44.9198 284.459 45.4208 284.666 45.8108 285.08C46.2008 285.488 46.3958 286.055 46.3958 286.781L46.3868 293H47.9888L47.9978 286.43C47.9978 285.392 47.7068 284.567 47.1248 283.955C46.5428 283.337 45.7448 283.028 44.7308 283.028C44.0888 283.028 43.5098 283.172 42.9938 283.46C42.4778 283.742 42.0758 284.132 41.7878 284.63C41.5238 284.12 41.1488 283.727 40.6628 283.451C40.1768 283.169 39.6068 283.028 38.9528 283.028C38.3708 283.028 37.8398 283.145 37.3598 283.379C36.8858 283.607 36.4958 283.919 36.1898 284.315V283.28H34.7588V293ZM54.4661 293.27C55.4081 293.27 56.2571 293.036 57.0131 292.568C57.7691 292.094 58.3391 291.428 58.7231 290.57L57.1841 290.039C56.6261 291.179 55.6961 291.749 54.3941 291.749C53.5001 291.749 52.7981 291.476 52.2881 290.93C51.7841 290.378 51.4991 289.598 51.4331 288.59H58.8851C58.9331 287.438 58.7831 286.445 58.4351 285.611C58.0931 284.777 57.5771 284.135 56.8871 283.685C56.2031 283.235 55.3721 283.01 54.3941 283.01C53.4521 283.01 52.6301 283.223 51.9281 283.649C51.2261 284.069 50.6801 284.669 50.2901 285.449C49.9061 286.223 49.7141 287.141 49.7141 288.203C49.7141 289.217 49.9091 290.105 50.2991 290.867C50.6951 291.623 51.2501 292.214 51.9641 292.64C52.6781 293.06 53.5121 293.27 54.4661 293.27ZM54.4481 284.45C56.0981 284.45 57.0221 285.401 57.2201 287.303H51.4601C51.5741 286.379 51.8831 285.674 52.3871 285.188C52.8911 284.696 53.5781 284.45 54.4481 284.45ZM60.6162 293H62.2362V287.879C62.2362 286.751 62.4792 285.914 62.9652 285.368C63.4572 284.822 64.1052 284.549 64.9092 284.549C65.5932 284.549 66.1272 284.72 66.5112 285.062C66.8952 285.404 67.1622 285.848 67.3122 286.394C67.4682 286.94 67.5462 287.519 67.5462 288.131V293H69.1662V287.627C69.1662 287.165 69.1092 286.67 68.9952 286.142C68.8872 285.608 68.6892 285.107 68.4012 284.639C68.1192 284.165 67.7262 283.778 67.2222 283.478C66.7242 283.178 66.0822 283.028 65.2962 283.028C63.8802 283.028 62.8002 283.529 62.0562 284.531V283.28H60.6162V293ZM71.6861 293H73.2881V279.77H71.6861V293ZM80.2005 293.27C81.1425 293.27 81.9915 293.036 82.7475 292.568C83.5035 292.094 84.0735 291.428 84.4575 290.57L82.9185 290.039C82.3605 291.179 81.4305 291.749 80.1285 291.749C79.2345 291.749 78.5325 291.476 78.0225 290.93C77.5185 290.378 77.2335 289.598 77.1675 288.59H84.6195C84.6675 287.438 84.5175 286.445 84.1695 285.611C83.8275 284.777 83.3115 284.135 82.6215 283.685C81.9375 283.235 81.1065 283.01 80.1285 283.01C79.1865 283.01 78.3645 283.223 77.6625 283.649C76.9605 284.069 76.4145 284.669 76.0245 285.449C75.6405 286.223 75.4485 287.141 75.4485 288.203C75.4485 289.217 75.6435 290.105 76.0335 290.867C76.4295 291.623 76.9845 292.214 77.6985 292.64C78.4125 293.06 79.2465 293.27 80.2005 293.27ZM80.1825 284.45C81.8325 284.45 82.7565 285.401 82.9545 287.303H77.1945C77.3085 286.379 77.6175 285.674 78.1215 285.188C78.6255 284.696 79.3125 284.45 80.1825 284.45ZM86.6233 293H88.2343V288.122C88.2343 287.546 88.3123 286.991 88.4683 286.457C88.6243 285.923 88.9393 285.488 89.4133 285.152C89.7493 284.906 90.1183 284.762 90.5203 284.72C90.9283 284.678 91.3003 284.699 91.6363 284.783V283.28C91.2043 283.184 90.7303 283.184 90.2143 283.28C89.6983 283.376 89.2543 283.574 88.8823 283.874C88.5583 284.102 88.2823 284.417 88.0543 284.819V283.28H86.6233V293ZM99.5696 293H101.208L104.736 283.28H103.107L100.389 290.957L97.6616 283.28H96.0416L99.5696 293ZM110.224 293.27C111.166 293.27 112.015 293.036 112.771 292.568C113.527 292.094 114.097 291.428 114.481 290.57L112.942 290.039C112.384 291.179 111.454 291.749 110.152 291.749C109.258 291.749 108.556 291.476 108.046 290.93C107.542 290.378 107.257 289.598 107.191 288.59H114.643C114.691 287.438 114.541 286.445 114.193 285.611C113.851 284.777 113.335 284.135 112.645 283.685C111.961 283.235 111.13 283.01 110.152 283.01C109.21 283.01 108.388 283.223 107.686 283.649C106.984 284.069 106.438 284.669 106.048 285.449C105.664 286.223 105.472 287.141 105.472 288.203C105.472 289.217 105.667 290.105 106.057 290.867C106.453 291.623 107.008 292.214 107.722 292.64C108.436 293.06 109.27 293.27 110.224 293.27ZM110.206 284.45C111.856 284.45 112.78 285.401 112.978 287.303H107.218C107.332 286.379 107.641 285.674 108.145 285.188C108.649 284.696 109.336 284.45 110.206 284.45ZM120.241 293H121.87V288.32L126.289 293H128.53L123.733 288.14L128.026 283.28H125.947L121.87 287.96V280.04H120.25L120.241 293ZM133.116 293.252C134.532 293.252 135.612 292.751 136.356 291.749V293H137.787V283.28H136.176V288.401C136.176 289.523 135.93 290.36 135.438 290.912C134.952 291.458 134.307 291.731 133.503 291.731C132.819 291.731 132.285 291.56 131.901 291.218C131.523 290.876 131.256 290.432 131.1 289.886C130.944 289.334 130.866 288.755 130.866 288.149V283.28H129.246V288.653C129.246 289.115 129.3 289.613 129.408 290.147C129.522 290.675 129.72 291.176 130.002 291.65C130.29 292.118 130.686 292.502 131.19 292.802C131.694 293.102 132.336 293.252 133.116 293.252ZM140.307 293H141.918V288.122C141.918 287.546 141.996 286.991 142.152 286.457C142.308 285.923 142.623 285.488 143.097 285.152C143.433 284.906 143.802 284.762 144.204 284.72C144.612 284.678 144.984 284.699 145.32 284.783V283.28C144.888 283.184 144.414 283.184 143.898 283.28C143.382 283.376 142.938 283.574 142.566 283.874C142.242 284.102 141.966 284.417 141.738 284.819V283.28H140.307V293ZM150.342 293.261C151.554 293.261 152.505 292.994 153.195 292.46C153.885 291.926 154.23 291.188 154.23 290.246C154.23 289.742 154.125 289.319 153.915 288.977C153.705 288.629 153.351 288.329 152.853 288.077C152.361 287.819 151.686 287.582 150.828 287.366C150.066 287.174 149.484 287.003 149.082 286.853C148.686 286.703 148.413 286.544 148.263 286.376C148.119 286.208 148.047 286.007 148.047 285.773C148.047 285.359 148.242 285.029 148.632 284.783C149.028 284.537 149.541 284.423 150.171 284.441C150.831 284.459 151.374 284.621 151.8 284.927C152.226 285.227 152.478 285.635 152.556 286.151L154.194 285.854C154.092 284.996 153.672 284.309 152.934 283.793C152.202 283.271 151.281 283.01 150.171 283.01C149.049 283.01 148.146 283.271 147.462 283.793C146.778 284.309 146.436 284.996 146.436 285.854C146.436 286.316 146.538 286.709 146.742 287.033C146.952 287.357 147.303 287.642 147.795 287.888C148.293 288.134 148.971 288.371 149.829 288.599C150.621 288.809 151.212 288.992 151.602 289.148C151.998 289.298 152.259 289.457 152.385 289.625C152.511 289.793 152.574 290.015 152.574 290.291C152.574 290.765 152.382 291.14 151.998 291.416C151.62 291.692 151.101 291.83 150.441 291.83C149.739 291.83 149.151 291.677 148.677 291.371C148.203 291.059 147.9 290.639 147.768 290.111L146.13 290.372C146.298 291.284 146.751 291.995 147.489 292.505C148.233 293.009 149.184 293.261 150.342 293.261ZM156.395 281.561H157.997V279.905H156.395V281.561ZM156.395 293H157.997V283.28H156.395V293ZM162.048 297.32H163.605L168.896 283.28H167.268L164.424 290.93L161.391 283.28H159.708L163.65 292.964L162.048 297.32ZM174.243 293.27C175.185 293.27 176.034 293.036 176.79 292.568C177.546 292.094 178.116 291.428 178.5 290.57L176.961 290.039C176.403 291.179 175.473 291.749 174.171 291.749C173.277 291.749 172.575 291.476 172.065 290.93C171.561 290.378 171.276 289.598 171.21 288.59H178.662C178.71 287.438 178.56 286.445 178.212 285.611C177.87 284.777 177.354 284.135 176.664 283.685C175.98 283.235 175.149 283.01 174.171 283.01C173.229 283.01 172.407 283.223 171.705 283.649C171.003 284.069 170.457 284.669 170.067 285.449C169.683 286.223 169.491 287.141 169.491 288.203C169.491 289.217 169.686 290.105 170.076 290.867C170.472 291.623 171.027 292.214 171.741 292.64C172.455 293.06 173.289 293.27 174.243 293.27ZM174.225 284.45C175.875 284.45 176.799 285.401 176.997 287.303H171.237C171.351 286.379 171.66 285.674 172.164 285.188C172.668 284.696 173.355 284.45 174.225 284.45ZM180.666 293H182.277V288.122C182.277 287.546 182.355 286.991 182.511 286.457C182.667 285.923 182.982 285.488 183.456 285.152C183.792 284.906 184.161 284.762 184.563 284.72C184.971 284.678 185.343 284.699 185.679 284.783V283.28C185.247 283.184 184.773 283.184 184.257 283.28C183.741 283.376 183.297 283.574 182.925 283.874C182.601 284.102 182.325 284.417 182.097 284.819V283.28H180.666V293ZM187.561 293H189.163V279.77H187.561V293ZM196.076 293.27C197.018 293.27 197.867 293.036 198.623 292.568C199.379 292.094 199.949 291.428 200.333 290.57L198.794 290.039C198.236 291.179 197.306 291.749 196.004 291.749C195.11 291.749 194.408 291.476 193.898 290.93C193.394 290.378 193.109 289.598 193.043 288.59H200.495C200.543 287.438 200.393 286.445 200.045 285.611C199.703 284.777 199.187 284.135 198.497 283.685C197.813 283.235 196.982 283.01 196.004 283.01C195.062 283.01 194.24 283.223 193.538 283.649C192.836 284.069 192.29 284.669 191.9 285.449C191.516 286.223 191.324 287.141 191.324 288.203C191.324 289.217 191.519 290.105 191.909 290.867C192.305 291.623 192.86 292.214 193.574 292.64C194.288 293.06 195.122 293.27 196.076 293.27ZM196.058 284.45C197.708 284.45 198.632 285.401 198.83 287.303H193.07C193.184 286.379 193.493 285.674 193.997 285.188C194.501 284.696 195.188 284.45 196.058 284.45ZM202.498 293H204.109V288.122C204.109 287.546 204.187 286.991 204.343 286.457C204.499 285.923 204.814 285.488 205.288 285.152C205.624 284.906 205.993 284.762 206.395 284.72C206.803 284.678 207.175 284.699 207.511 284.783V283.28C207.079 283.184 206.605 283.184 206.089 283.28C205.573 283.376 205.129 283.574 204.757 283.874C204.433 284.102 204.157 284.417 203.929 284.819V283.28H202.498V293ZM212.997 281.561H214.599V279.905H212.997V281.561ZM212.997 293H214.599V283.28H212.997V293ZM217.479 293H219.081V279.77H217.479V293ZM225.993 293.27C226.935 293.27 227.784 293.036 228.54 292.568C229.296 292.094 229.866 291.428 230.25 290.57L228.711 290.039C228.153 291.179 227.223 291.749 225.921 291.749C225.027 291.749 224.325 291.476 223.815 290.93C223.311 290.378 223.026 289.598 222.96 288.59H230.412C230.46 287.438 230.31 286.445 229.962 285.611C229.62 284.777 229.104 284.135 228.414 283.685C227.73 283.235 226.899 283.01 225.921 283.01C224.979 283.01 224.157 283.223 223.455 283.649C222.753 284.069 222.207 284.669 221.817 285.449C221.433 286.223 221.241 287.141 221.241 288.203C221.241 289.217 221.436 290.105 221.826 290.867C222.222 291.623 222.777 292.214 223.491 292.64C224.205 293.06 225.039 293.27 225.993 293.27ZM225.975 284.45C227.625 284.45 228.549 285.401 228.747 287.303H222.987C223.101 286.379 223.41 285.674 223.914 285.188C224.418 284.696 225.105 284.45 225.975 284.45ZM236.011 293H237.442V291.902C237.796 292.328 238.225 292.664 238.729 292.91C239.239 293.15 239.824 293.27 240.484 293.27C241.39 293.27 242.167 293.045 242.815 292.595C243.469 292.139 243.97 291.524 244.318 290.75C244.666 289.976 244.84 289.103 244.84 288.131C244.84 287.159 244.666 286.286 244.318 285.512C243.97 284.738 243.469 284.129 242.815 283.685C242.167 283.235 241.393 283.01 240.493 283.01C239.887 283.01 239.344 283.112 238.864 283.316C238.384 283.52 237.97 283.802 237.622 284.162V280.04H236.011V293ZM240.286 291.803C239.308 291.803 238.588 291.458 238.126 290.768C237.67 290.078 237.442 289.199 237.442 288.131C237.442 287.057 237.67 286.181 238.126 285.503C238.588 284.819 239.293 284.477 240.241 284.477C240.901 284.477 241.444 284.639 241.87 284.963C242.302 285.287 242.62 285.725 242.824 286.277C243.034 286.829 243.139 287.447 243.139 288.131C243.139 288.821 243.034 289.445 242.824 290.003C242.614 290.555 242.299 290.993 241.879 291.317C241.459 291.641 240.928 291.803 240.286 291.803ZM246.993 281.561H248.595V279.905H246.993V281.561ZM246.993 293H248.595V283.28H246.993V293ZM251.295 293H252.906V288.122C252.906 287.546 252.984 286.991 253.14 286.457C253.296 285.923 253.611 285.488 254.085 285.152C254.421 284.906 254.79 284.762 255.192 284.72C255.6 284.678 255.972 284.699 256.308 284.783V283.28C255.876 283.184 255.402 283.184 254.886 283.28C254.37 283.376 253.926 283.574 253.554 283.874C253.23 284.102 252.954 284.417 252.726 284.819V283.28H251.295V293ZM258.19 293H259.792V279.77H258.19V293ZM262.672 281.561H264.274V279.905H262.672V281.561ZM262.672 293H264.274V283.28H262.672V293ZM266.966 293H268.595V288.32L273.014 293H275.255L270.458 288.14L274.751 283.28H272.672L268.595 287.96V280.04H266.975L266.966 293ZM281.578 293V291.623C280.912 291.725 280.342 291.743 279.868 291.677C279.4 291.611 279.058 291.386 278.842 291.002C278.728 290.798 278.665 290.558 278.653 290.282C278.647 290 278.644 289.658 278.644 289.256V284.603H281.578V283.28H278.644V280.58H277.042V283.28H275.071V284.603H277.042V289.328C277.042 289.832 277.048 290.282 277.06 290.678C277.078 291.068 277.183 291.452 277.375 291.83C277.603 292.268 277.936 292.592 278.374 292.802C278.812 293.006 279.31 293.117 279.868 293.135C280.432 293.159 281.002 293.114 281.578 293ZM287.359 293.27C288.301 293.27 289.15 293.036 289.906 292.568C290.662 292.094 291.232 291.428 291.616 290.57L290.077 290.039C289.519 291.179 288.589 291.749 287.287 291.749C286.393 291.749 285.691 291.476 285.181 290.93C284.677 290.378 284.392 289.598 284.326 288.59H291.778C291.826 287.438 291.676 286.445 291.328 285.611C290.986 284.777 290.47 284.135 289.78 283.685C289.096 283.235 288.265 283.01 287.287 283.01C286.345 283.01 285.523 283.223 284.821 283.649C284.119 284.069 283.573 284.669 283.183 285.449C282.799 286.223 282.607 287.141 282.607 288.203C282.607 289.217 282.802 290.105 283.192 290.867C283.588 291.623 284.143 292.214 284.857 292.64C285.571 293.06 286.405 293.27 287.359 293.27ZM287.341 284.45C288.991 284.45 289.915 285.401 290.113 287.303H284.353C284.467 286.379 284.776 285.674 285.28 285.188C285.784 284.696 286.471 284.45 287.341 284.45ZM27.3848 318H28.8158V316.902C29.1698 317.328 29.5988 317.664 30.1028 317.91C30.6128 318.15 31.1978 318.27 31.8578 318.27C32.7638 318.27 33.5408 318.045 34.1888 317.595C34.8428 317.139 35.3438 316.524 35.6918 315.75C36.0398 314.976 36.2138 314.103 36.2138 313.131C36.2138 312.159 36.0398 311.286 35.6918 310.512C35.3438 309.738 34.8428 309.129 34.1888 308.685C33.5408 308.235 32.7668 308.01 31.8668 308.01C31.2608 308.01 30.7178 308.112 30.2378 308.316C29.7578 308.52 29.3438 308.802 28.9958 309.162V305.04H27.3848V318ZM31.6598 316.803C30.6818 316.803 29.9618 316.458 29.4998 315.768C29.0438 315.078 28.8158 314.199 28.8158 313.131C28.8158 312.057 29.0438 311.181 29.4998 310.503C29.9618 309.819 30.6668 309.477 31.6148 309.477C32.2748 309.477 32.8178 309.639 33.2438 309.963C33.6758 310.287 33.9938 310.725 34.1978 311.277C34.4078 311.829 34.5128 312.447 34.5128 313.131C34.5128 313.821 34.4078 314.445 34.1978 315.003C33.9878 315.555 33.6728 315.993 33.2528 316.317C32.8328 316.641 32.3018 316.803 31.6598 316.803ZM43.2268 306.516H44.8468V304.896H43.2268V306.516ZM39.6988 306.516H41.3188V304.896H39.6988V306.516ZM41.8768 318.252C43.2928 318.252 44.3728 317.751 45.1168 316.749V318H46.5478V308.28H44.9368V313.401C44.9368 314.523 44.6908 315.36 44.1988 315.912C43.7128 316.458 43.0678 316.731 42.2638 316.731C41.5798 316.731 41.0458 316.56 40.6618 316.218C40.2838 315.876 40.0168 315.432 39.8608 314.886C39.7048 314.334 39.6268 313.755 39.6268 313.149V308.28H38.0068V313.653C38.0068 314.115 38.0608 314.613 38.1688 315.147C38.2828 315.675 38.4808 316.176 38.7628 316.65C39.0508 317.118 39.4468 317.502 39.9508 317.802C40.4548 318.102 41.0968 318.252 41.8768 318.252ZM50.4176 322.32H51.9746L57.2666 308.28H55.6376L52.7936 315.93L49.7606 308.28H48.0776L52.0196 317.964L50.4176 322.32ZM63.7932 306.516H65.4132V304.896H63.7932V306.516ZM60.2652 306.516H61.8852V304.896H60.2652V306.516ZM62.4432 318.252C63.8592 318.252 64.9392 317.751 65.6832 316.749V318H67.1142V308.28H65.5032V313.401C65.5032 314.523 65.2572 315.36 64.7652 315.912C64.2792 316.458 63.6342 316.731 62.8302 316.731C62.1462 316.731 61.6122 316.56 61.2282 316.218C60.8502 315.876 60.5832 315.432 60.4272 314.886C60.2712 314.334 60.1932 313.755 60.1932 313.149V308.28H58.5732V313.653C58.5732 314.115 58.6272 314.613 58.7352 315.147C58.8492 315.675 59.0472 316.176 59.3292 316.65C59.6172 317.118 60.0132 317.502 60.5172 317.802C61.0212 318.102 61.6632 318.252 62.4432 318.252ZM69.625 318H71.254V313.32L75.673 318H77.914L73.117 313.14L77.41 308.28H75.331L71.254 312.96V305.04H69.634L69.625 318ZM82.4043 318H83.8353V316.902C84.1893 317.328 84.6183 317.664 85.1223 317.91C85.6323 318.15 86.2173 318.27 86.8773 318.27C87.7833 318.27 88.5603 318.045 89.2083 317.595C89.8623 317.139 90.3633 316.524 90.7113 315.75C91.0593 314.976 91.2333 314.103 91.2333 313.131C91.2333 312.159 91.0593 311.286 90.7113 310.512C90.3633 309.738 89.8623 309.129 89.2083 308.685C88.5603 308.235 87.7863 308.01 86.8863 308.01C86.2803 308.01 85.7373 308.112 85.2573 308.316C84.7773 308.52 84.3633 308.802 84.0153 309.162V305.04H82.4043V318ZM86.6793 316.803C85.7013 316.803 84.9813 316.458 84.5193 315.768C84.0633 315.078 83.8353 314.199 83.8353 313.131C83.8353 312.057 84.0633 311.181 84.5193 310.503C84.9813 309.819 85.6863 309.477 86.6343 309.477C87.2943 309.477 87.8373 309.639 88.2633 309.963C88.6953 310.287 89.0133 310.725 89.2173 311.277C89.4273 311.829 89.5323 312.447 89.5323 313.131C89.5323 313.821 89.4273 314.445 89.2173 315.003C89.0073 315.555 88.6923 315.993 88.2723 316.317C87.8523 316.641 87.3213 316.803 86.6793 316.803ZM93.3863 306.561H94.9883V304.905H93.3863V306.561ZM93.3863 318H94.9883V308.28H93.3863V318ZM97.6887 318H99.2997V313.122C99.2997 312.546 99.3777 311.991 99.5337 311.457C99.6897 310.923 100.005 310.488 100.479 310.152C100.815 309.906 101.184 309.762 101.586 309.72C101.994 309.678 102.366 309.699 102.702 309.783V308.28C102.27 308.184 101.796 308.184 101.28 308.28C100.764 308.376 100.32 308.574 99.9477 308.874C99.6237 309.102 99.3477 309.417 99.1197 309.819V308.28H97.6887V318ZM113.11 306.516H114.73V304.896H113.11V306.516ZM109.582 306.516H111.202V304.896H109.582V306.516ZM112.147 318.27C113.113 318.27 113.944 318.054 114.64 317.622C115.342 317.19 115.882 316.587 116.26 315.813C116.644 315.039 116.836 314.145 116.836 313.131C116.836 312.129 116.647 311.244 116.269 310.476C115.897 309.702 115.36 309.099 114.658 308.667C113.956 308.229 113.119 308.01 112.147 308.01C111.199 308.01 110.374 308.226 109.672 308.658C108.97 309.084 108.427 309.681 108.043 310.449C107.659 311.217 107.467 312.111 107.467 313.131C107.467 314.133 107.653 315.021 108.025 315.795C108.403 316.569 108.943 317.175 109.645 317.613C110.347 318.051 111.181 318.27 112.147 318.27ZM112.147 316.749C111.169 316.749 110.428 316.422 109.924 315.768C109.42 315.108 109.168 314.229 109.168 313.131C109.168 312.069 109.411 311.205 109.897 310.539C110.383 309.867 111.133 309.531 112.147 309.531C113.143 309.531 113.89 309.858 114.388 310.512C114.886 311.166 115.135 312.039 115.135 313.131C115.135 314.199 114.886 315.069 114.388 315.741C113.896 316.413 113.149 316.749 112.147 316.749ZM123.381 307.146C123.837 307.146 124.248 307.035 124.614 306.813C124.986 306.591 125.283 306.294 125.505 305.922C125.727 305.55 125.838 305.139 125.838 304.689H124.542C124.542 305.007 124.428 305.28 124.2 305.508C123.978 305.736 123.705 305.85 123.381 305.85C123.063 305.85 122.79 305.736 122.562 305.508C122.334 305.28 122.22 305.007 122.22 304.689H120.924C120.924 305.139 121.035 305.55 121.257 305.922C121.479 306.294 121.776 306.591 122.148 306.813C122.52 307.035 122.931 307.146 123.381 307.146ZM122.634 318.27C123.234 318.27 123.771 318.168 124.245 317.964C124.725 317.76 125.139 317.475 125.487 317.109V318.045C125.505 320.043 124.596 321.042 122.76 321.042C122.286 321.042 121.83 320.934 121.392 320.718C120.954 320.502 120.615 320.157 120.375 319.683L118.908 320.457C119.316 321.183 119.868 321.72 120.564 322.068C121.26 322.416 121.989 322.59 122.751 322.59C123.915 322.59 124.863 322.341 125.595 321.843C126.333 321.351 126.795 320.589 126.981 319.557C127.029 319.317 127.059 319.074 127.071 318.828C127.089 318.588 127.098 318.333 127.098 318.063V308.28H125.676V309.369C125.322 308.943 124.89 308.61 124.38 308.37C123.87 308.13 123.285 308.01 122.625 308.01C121.725 308.01 120.951 308.235 120.303 308.685C119.655 309.129 119.154 309.738 118.8 310.512C118.452 311.286 118.278 312.159 118.278 313.131C118.278 314.103 118.452 314.976 118.8 315.75C119.148 316.524 119.646 317.139 120.294 317.595C120.948 318.045 121.728 318.27 122.634 318.27ZM122.832 316.803C122.196 316.803 121.665 316.641 121.239 316.317C120.819 315.993 120.504 315.555 120.294 315.003C120.084 314.445 119.979 313.821 119.979 313.131C119.979 312.447 120.081 311.829 120.285 311.277C120.495 310.725 120.813 310.287 121.239 309.963C121.671 309.639 122.217 309.477 122.877 309.477C123.825 309.477 124.527 309.819 124.983 310.503C125.445 311.181 125.676 312.057 125.676 313.131C125.676 314.199 125.448 315.078 124.992 315.768C124.536 316.458 123.816 316.803 122.832 316.803ZM129.611 318H131.222V313.122C131.222 312.546 131.3 311.991 131.456 311.457C131.612 310.923 131.927 310.488 132.401 310.152C132.737 309.906 133.106 309.762 133.508 309.72C133.916 309.678 134.288 309.699 134.624 309.783V308.28C134.192 308.184 133.718 308.184 133.202 308.28C132.686 308.376 132.242 308.574 131.87 308.874C131.546 309.102 131.27 309.417 131.042 309.819V308.28H129.611V318ZM140.362 318.27C141.304 318.27 142.153 318.036 142.909 317.568C143.665 317.094 144.235 316.428 144.619 315.57L143.08 315.039C142.522 316.179 141.592 316.749 140.29 316.749C139.396 316.749 138.694 316.476 138.184 315.93C137.68 315.378 137.395 314.598 137.329 313.59H144.781C144.829 312.438 144.679 311.445 144.331 310.611C143.989 309.777 143.473 309.135 142.783 308.685C142.099 308.235 141.268 308.01 140.29 308.01C139.348 308.01 138.526 308.223 137.824 308.649C137.122 309.069 136.576 309.669 136.186 310.449C135.802 311.223 135.61 312.141 135.61 313.203C135.61 314.217 135.805 315.105 136.195 315.867C136.591 316.623 137.146 317.214 137.86 317.64C138.574 318.06 139.408 318.27 140.362 318.27ZM140.344 309.45C141.994 309.45 142.918 310.401 143.116 312.303H137.356C137.47 311.379 137.779 310.674 138.283 310.188C138.787 309.696 139.474 309.45 140.344 309.45ZM146.512 318H148.132V312.879C148.132 311.751 148.375 310.914 148.861 310.368C149.353 309.822 150.001 309.549 150.805 309.549C151.489 309.549 152.023 309.72 152.407 310.062C152.791 310.404 153.058 310.848 153.208 311.394C153.364 311.94 153.442 312.519 153.442 313.131V318H155.062V312.627C155.062 312.165 155.005 311.67 154.891 311.142C154.783 310.608 154.585 310.107 154.297 309.639C154.015 309.165 153.622 308.778 153.118 308.478C152.62 308.178 151.978 308.028 151.192 308.028C149.776 308.028 148.696 308.529 147.952 309.531V308.28H146.512V318ZM157.393 318H159.004V311.826C159.004 311.112 159.196 310.539 159.58 310.107C159.97 309.675 160.483 309.459 161.119 309.459C161.755 309.459 162.265 309.672 162.649 310.098C163.033 310.524 163.225 311.106 163.225 311.844L163.216 318H164.809L164.818 311.826C164.818 311.28 164.92 310.833 165.124 310.485C165.328 310.137 165.592 309.879 165.916 309.711C166.24 309.543 166.582 309.459 166.942 309.459C167.554 309.459 168.055 309.666 168.445 310.08C168.835 310.488 169.03 311.055 169.03 311.781L169.021 318H170.623L170.632 311.43C170.632 310.392 170.341 309.567 169.759 308.955C169.177 308.337 168.379 308.028 167.365 308.028C166.723 308.028 166.144 308.172 165.628 308.46C165.112 308.742 164.71 309.132 164.422 309.63C164.158 309.12 163.783 308.727 163.297 308.451C162.811 308.169 162.241 308.028 161.587 308.028C161.005 308.028 160.474 308.145 159.994 308.379C159.52 308.607 159.13 308.919 158.824 309.315V308.28H157.393V318ZM177.1 318.27C178.042 318.27 178.891 318.036 179.647 317.568C180.403 317.094 180.973 316.428 181.357 315.57L179.818 315.039C179.26 316.179 178.33 316.749 177.028 316.749C176.134 316.749 175.432 316.476 174.922 315.93C174.418 315.378 174.133 314.598 174.067 313.59H181.519C181.567 312.438 181.417 311.445 181.069 310.611C180.727 309.777 180.211 309.135 179.521 308.685C178.837 308.235 178.006 308.01 177.028 308.01C176.086 308.01 175.264 308.223 174.562 308.649C173.86 309.069 173.314 309.669 172.924 310.449C172.54 311.223 172.348 312.141 172.348 313.203C172.348 314.217 172.543 315.105 172.933 315.867C173.329 316.623 173.884 317.214 174.598 317.64C175.312 318.06 176.146 318.27 177.1 318.27ZM177.082 309.45C178.732 309.45 179.656 310.401 179.854 312.303H174.094C174.208 311.379 174.517 310.674 175.021 310.188C175.525 309.696 176.212 309.45 177.082 309.45ZM192.553 318V316.623C191.887 316.725 191.317 316.743 190.843 316.677C190.375 316.611 190.033 316.386 189.817 316.002C189.703 315.798 189.64 315.558 189.628 315.282C189.622 315 189.619 314.658 189.619 314.256V309.603H192.553V308.28H189.619V305.58H188.017V308.28H186.046V309.603H188.017V314.328C188.017 314.832 188.023 315.282 188.035 315.678C188.053 316.068 188.158 316.452 188.35 316.83C188.578 317.268 188.911 317.592 189.349 317.802C189.787 318.006 190.285 318.117 190.843 318.135C191.407 318.159 191.977 318.114 192.553 318ZM198.262 318.27C199.228 318.27 200.059 318.054 200.755 317.622C201.457 317.19 201.997 316.587 202.375 315.813C202.759 315.039 202.951 314.145 202.951 313.131C202.951 312.129 202.762 311.244 202.384 310.476C202.012 309.702 201.475 309.099 200.773 308.667C200.071 308.229 199.234 308.01 198.262 308.01C197.314 308.01 196.489 308.226 195.787 308.658C195.085 309.084 194.542 309.681 194.158 310.449C193.774 311.217 193.582 312.111 193.582 313.131C193.582 314.133 193.768 315.021 194.14 315.795C194.518 316.569 195.058 317.175 195.76 317.613C196.462 318.051 197.296 318.27 198.262 318.27ZM198.262 316.749C197.284 316.749 196.543 316.422 196.039 315.768C195.535 315.108 195.283 314.229 195.283 313.131C195.283 312.069 195.526 311.205 196.012 310.539C196.498 309.867 197.248 309.531 198.262 309.531C199.258 309.531 200.005 309.858 200.503 310.512C201.001 311.166 201.25 312.039 201.25 313.131C201.25 314.199 201.001 315.069 200.503 315.741C200.011 316.413 199.264 316.749 198.262 316.749ZM204.924 322.32H206.535V317.1C206.883 317.466 207.294 317.754 207.768 317.964C208.248 318.168 208.791 318.27 209.397 318.27C210.303 318.27 211.08 318.045 211.728 317.595C212.382 317.139 212.883 316.524 213.231 315.75C213.579 314.976 213.753 314.103 213.753 313.131C213.753 312.159 213.579 311.286 213.231 310.512C212.883 309.738 212.382 309.129 211.728 308.685C211.08 308.235 210.306 308.01 209.406 308.01C208.746 308.01 208.161 308.13 207.651 308.37C207.141 308.61 206.709 308.943 206.355 309.369V308.28H204.924V322.32ZM209.199 316.803C208.221 316.803 207.501 316.458 207.039 315.768C206.583 315.078 206.355 314.199 206.355 313.131C206.355 312.057 206.583 311.181 207.039 310.503C207.501 309.819 208.206 309.477 209.154 309.477C209.814 309.477 210.357 309.639 210.783 309.963C211.215 310.287 211.533 310.725 211.737 311.277C211.947 311.829 212.052 312.447 212.052 313.131C212.052 313.821 211.947 314.445 211.737 315.003C211.527 315.555 211.212 315.993 210.792 316.317C210.372 316.641 209.841 316.803 209.199 316.803ZM215.906 318H217.508V304.77H215.906V318ZM223.898 318.252C225.314 318.252 226.394 317.751 227.138 316.749V318H228.569V308.28H226.958V313.401C226.958 314.523 226.712 315.36 226.22 315.912C225.734 316.458 225.089 316.731 224.285 316.731C223.601 316.731 223.067 316.56 222.683 316.218C222.305 315.876 222.038 315.432 221.882 314.886C221.726 314.334 221.648 313.755 221.648 313.149V308.28H220.028V313.653C220.028 314.115 220.082 314.613 220.19 315.147C220.304 315.675 220.502 316.176 220.784 316.65C221.072 317.118 221.468 317.502 221.972 317.802C222.476 318.102 223.118 318.252 223.898 318.252ZM231.269 318H232.871V304.77H231.269V318ZM239.262 318.252C240.678 318.252 241.758 317.751 242.502 316.749V318H243.933V308.28H242.322V313.401C242.322 314.523 242.076 315.36 241.584 315.912C241.098 316.458 240.453 316.731 239.649 316.731C238.965 316.731 238.431 316.56 238.047 316.218C237.669 315.876 237.402 315.432 237.246 314.886C237.09 314.334 237.012 313.755 237.012 313.149V308.28H235.392V313.653C235.392 314.115 235.446 314.613 235.554 315.147C235.668 315.675 235.866 316.176 236.148 316.65C236.436 317.118 236.832 317.502 237.336 317.802C237.84 318.102 238.482 318.252 239.262 318.252ZM251.015 307.146C251.471 307.146 251.882 307.035 252.248 306.813C252.62 306.591 252.917 306.294 253.139 305.922C253.361 305.55 253.472 305.139 253.472 304.689H252.176C252.176 305.007 252.062 305.28 251.834 305.508C251.612 305.736 251.339 305.85 251.015 305.85C250.697 305.85 250.424 305.736 250.196 305.508C249.968 305.28 249.854 305.007 249.854 304.689H248.558C248.558 305.139 248.669 305.55 248.891 305.922C249.113 306.294 249.41 306.591 249.782 306.813C250.154 307.035 250.565 307.146 251.015 307.146ZM250.268 318.27C250.868 318.27 251.405 318.168 251.879 317.964C252.359 317.76 252.773 317.475 253.121 317.109V318.045C253.139 320.043 252.23 321.042 250.394 321.042C249.92 321.042 249.464 320.934 249.026 320.718C248.588 320.502 248.249 320.157 248.009 319.683L246.542 320.457C246.95 321.183 247.502 321.72 248.198 322.068C248.894 322.416 249.623 322.59 250.385 322.59C251.549 322.59 252.497 322.341 253.229 321.843C253.967 321.351 254.429 320.589 254.615 319.557C254.663 319.317 254.693 319.074 254.705 318.828C254.723 318.588 254.732 318.333 254.732 318.063V308.28H253.31V309.369C252.956 308.943 252.524 308.61 252.014 308.37C251.504 308.13 250.919 308.01 250.259 308.01C249.359 308.01 248.585 308.235 247.937 308.685C247.289 309.129 246.788 309.738 246.434 310.512C246.086 311.286 245.912 312.159 245.912 313.131C245.912 314.103 246.086 314.976 246.434 315.75C246.782 316.524 247.28 317.139 247.928 317.595C248.582 318.045 249.362 318.27 250.268 318.27ZM250.466 316.803C249.83 316.803 249.299 316.641 248.873 316.317C248.453 315.993 248.138 315.555 247.928 315.003C247.718 314.445 247.613 313.821 247.613 313.131C247.613 312.447 247.715 311.829 247.919 311.277C248.129 310.725 248.447 310.287 248.873 309.963C249.305 309.639 249.851 309.477 250.511 309.477C251.459 309.477 252.161 309.819 252.617 310.503C253.079 311.181 253.31 312.057 253.31 313.131C253.31 314.199 253.082 315.078 252.626 315.768C252.17 316.458 251.45 316.803 250.466 316.803ZM260.935 318.252C262.351 318.252 263.431 317.751 264.175 316.749V318H265.606V308.28H263.995V313.401C263.995 314.523 263.749 315.36 263.257 315.912C262.771 316.458 262.126 316.731 261.322 316.731C260.638 316.731 260.104 316.56 259.72 316.218C259.342 315.876 259.075 315.432 258.919 314.886C258.763 314.334 258.685 313.755 258.685 313.149V308.28H257.065V313.653C257.065 314.115 257.119 314.613 257.227 315.147C257.341 315.675 257.539 316.176 257.821 316.65C258.109 317.118 258.505 317.502 259.009 317.802C259.513 318.102 260.155 318.252 260.935 318.252ZM101.943 343.27C102.909 343.27 103.74 343.054 104.436 342.622C105.138 342.19 105.678 341.587 106.056 340.813C106.44 340.039 106.632 339.145 106.632 338.131C106.632 337.129 106.443 336.244 106.065 335.476C105.693 334.702 105.156 334.099 104.454 333.667C103.752 333.229 102.915 333.01 101.943 333.01C100.995 333.01 100.17 333.226 99.468 333.658C98.766 334.084 98.223 334.681 97.839 335.449C97.455 336.217 97.263 337.111 97.263 338.131C97.263 339.133 97.449 340.021 97.821 340.795C98.199 341.569 98.739 342.175 99.441 342.613C100.143 343.051 100.977 343.27 101.943 343.27ZM101.943 341.749C100.965 341.749 100.224 341.422 99.72 340.768C99.216 340.108 98.964 339.229 98.964 338.131C98.964 337.069 99.207 336.205 99.693 335.539C100.179 334.867 100.929 334.531 101.943 334.531C102.939 334.531 103.686 334.858 104.184 335.512C104.682 336.166 104.931 337.039 104.931 338.131C104.931 339.199 104.682 340.069 104.184 340.741C103.692 341.413 102.945 341.749 101.943 341.749ZM108.794 343H110.396V329.77H108.794V343ZM116.786 343.252C118.202 343.252 119.282 342.751 120.026 341.749V343H121.457V333.28H119.846V338.401C119.846 339.523 119.6 340.36 119.108 340.912C118.622 341.458 117.977 341.731 117.173 341.731C116.489 341.731 115.955 341.56 115.571 341.218C115.193 340.876 114.926 340.432 114.77 339.886C114.614 339.334 114.536 338.755 114.536 338.149V333.28H112.916V338.653C112.916 339.115 112.97 339.613 113.078 340.147C113.192 340.675 113.39 341.176 113.672 341.65C113.96 342.118 114.356 342.502 114.86 342.802C115.364 343.102 116.006 343.252 116.786 343.252ZM127.37 347.329C127.85 347.329 128.264 347.161 128.612 346.825C128.96 346.489 129.134 346.066 129.134 345.556C129.134 345.166 129.035 344.839 128.837 344.575C128.639 344.317 128.375 344.113 128.045 343.963L128.306 343.234C129.32 343.138 130.112 342.829 130.682 342.307C131.252 341.785 131.537 341.098 131.537 340.246C131.537 339.742 131.432 339.319 131.222 338.977C131.012 338.629 130.658 338.329 130.16 338.077C129.668 337.819 128.993 337.582 128.135 337.366C127.373 337.174 126.791 337.003 126.389 336.853C125.993 336.703 125.72 336.544 125.57 336.376C125.426 336.208 125.354 336.007 125.354 335.773C125.354 335.359 125.549 335.029 125.939 334.783C126.335 334.537 126.848 334.423 127.478 334.441C128.138 334.459 128.681 334.621 129.107 334.927C129.533 335.227 129.785 335.635 129.863 336.151L131.501 335.854C131.399 334.996 130.979 334.309 130.241 333.793C129.509 333.271 128.588 333.01 127.478 333.01C126.356 333.01 125.453 333.271 124.769 333.793C124.085 334.309 123.743 334.996 123.743 335.854C123.743 336.316 123.845 336.709 124.049 337.033C124.259 337.357 124.61 337.642 125.102 337.888C125.6 338.134 126.278 338.371 127.136 338.599C127.928 338.809 128.519 338.992 128.909 339.148C129.305 339.298 129.566 339.457 129.692 339.625C129.818 339.793 129.881 340.015 129.881 340.291C129.881 340.765 129.689 341.14 129.305 341.416C128.927 341.692 128.408 341.83 127.748 341.83C127.046 341.83 126.458 341.677 125.984 341.371C125.51 341.059 125.207 340.639 125.075 340.111L123.437 340.372C123.593 341.23 124.001 341.908 124.661 342.406C125.321 342.904 126.173 343.186 127.217 343.252L126.722 344.629C127.028 344.725 127.301 344.83 127.541 344.944C127.787 345.058 127.91 345.247 127.91 345.511C127.91 345.667 127.85 345.811 127.73 345.943C127.616 346.075 127.451 346.141 127.235 346.141C127.067 346.141 126.848 346.093 126.578 345.997L126.191 347.032C126.365 347.116 126.548 347.185 126.74 347.239C126.938 347.299 127.148 347.329 127.37 347.329ZM138.949 343V341.623C138.283 341.725 137.713 341.743 137.239 341.677C136.771 341.611 136.429 341.386 136.213 341.002C136.099 340.798 136.036 340.558 136.024 340.282C136.018 340 136.015 339.658 136.015 339.256V334.603H138.949V333.28H136.015V330.58H134.413V333.28H132.442V334.603H134.413V339.328C134.413 339.832 134.419 340.282 134.431 340.678C134.449 341.068 134.554 341.452 134.746 341.83C134.974 342.268 135.307 342.592 135.745 342.802C136.183 343.006 136.681 343.117 137.239 343.135C137.803 343.159 138.373 343.114 138.949 343ZM144.612 343.252C146.028 343.252 147.108 342.751 147.852 341.749V343H149.283V333.28H147.672V338.401C147.672 339.523 147.426 340.36 146.934 340.912C146.448 341.458 145.803 341.731 144.999 341.731C144.315 341.731 143.781 341.56 143.397 341.218C143.019 340.876 142.752 340.432 142.596 339.886C142.44 339.334 142.362 338.755 142.362 338.149V333.28H140.742V338.653C140.742 339.115 140.796 339.613 140.904 340.147C141.018 340.675 141.216 341.176 141.498 341.65C141.786 342.118 142.182 342.502 142.686 342.802C143.19 343.102 143.832 343.252 144.612 343.252ZM151.803 343H153.414V338.122C153.414 337.546 153.492 336.991 153.648 336.457C153.804 335.923 154.119 335.488 154.593 335.152C154.929 334.906 155.298 334.762 155.7 334.72C156.108 334.678 156.48 334.699 156.816 334.783V333.28C156.384 333.184 155.91 333.184 155.394 333.28C154.878 333.376 154.434 333.574 154.062 333.874C153.738 334.102 153.462 334.417 153.234 334.819V333.28H151.803V343ZM160.964 343.27C162.584 343.27 163.784 342.676 164.564 341.488V343H165.986V336.988C165.986 336.604 165.968 336.238 165.932 335.89C165.896 335.536 165.809 335.209 165.671 334.909C165.395 334.273 164.939 333.799 164.303 333.487C163.667 333.169 162.911 333.01 162.035 333.01C160.937 333.01 160.049 333.253 159.371 333.739C158.699 334.225 158.249 334.894 158.021 335.746L159.542 336.205C159.716 335.611 160.025 335.179 160.469 334.909C160.913 334.639 161.429 334.504 162.017 334.504C162.857 334.504 163.46 334.693 163.826 335.071C164.198 335.443 164.393 336.016 164.411 336.79C163.691 336.892 162.935 337 162.143 337.114C161.357 337.222 160.658 337.357 160.046 337.519C159.308 337.735 158.726 338.074 158.3 338.536C157.874 338.992 157.661 339.604 157.661 340.372C157.661 340.894 157.784 341.374 158.03 341.812C158.282 342.25 158.651 342.604 159.137 342.874C159.629 343.138 160.238 343.27 160.964 343.27ZM161.207 341.929C160.517 341.929 160.019 341.77 159.713 341.452C159.407 341.128 159.254 340.765 159.254 340.363C159.254 339.907 159.404 339.559 159.704 339.319C160.01 339.073 160.364 338.887 160.766 338.761C161.24 338.629 161.792 338.518 162.422 338.428C163.052 338.338 163.709 338.248 164.393 338.158C164.393 338.38 164.381 338.632 164.357 338.914C164.339 339.196 164.297 339.454 164.231 339.688C164.117 340.288 163.799 340.813 163.277 341.263C162.761 341.707 162.071 341.929 161.207 341.929ZM168.506 343H170.108V329.77H168.506V343ZM172.989 343H174.591V333.28H172.989V343ZM177.282 343H178.893V336.826C178.893 336.112 179.085 335.539 179.469 335.107C179.859 334.675 180.372 334.459 181.008 334.459C181.644 334.459 182.154 334.672 182.538 335.098C182.922 335.524 183.114 336.106 183.114 336.844L183.105 343H184.698L184.707 336.826C184.707 336.28 184.809 335.833 185.013 335.485C185.217 335.137 185.481 334.879 185.805 334.711C186.129 334.543 186.471 334.459 186.831 334.459C187.443 334.459 187.944 334.666 188.334 335.08C188.724 335.488 188.919 336.055 188.919 336.781L188.91 343H190.512L190.521 336.43C190.521 335.392 190.23 334.567 189.648 333.955C189.066 333.337 188.268 333.028 187.254 333.028C186.612 333.028 186.033 333.172 185.517 333.46C185.001 333.742 184.599 334.132 184.311 334.63C184.047 334.12 183.672 333.727 183.186 333.451C182.7 333.169 182.13 333.028 181.476 333.028C180.894 333.028 180.363 333.145 179.883 333.379C179.409 333.607 179.019 333.919 178.713 334.315V333.28H177.282V343ZM193.153 343H194.917V341.236H193.153V343Z" fill="#796F6F"/>
<path d="M48.68 265H59.84V262.288H51.572V257.404H58.4V254.692H51.572V250.432H59.84V247.72H48.68V265ZM69.1511 250.576C69.8231 250.576 70.4351 250.412 70.9871 250.084C71.5391 249.756 71.9751 249.32 72.2951 248.776C72.6231 248.224 72.7871 247.612 72.7871 246.94H70.5311C70.5311 247.324 70.3951 247.652 70.1231 247.924C69.8591 248.188 69.5351 248.32 69.1511 248.32C68.7671 248.32 68.4391 248.188 68.1671 247.924C67.9031 247.652 67.7711 247.324 67.7711 246.94H65.5151C65.5151 247.612 65.6751 248.224 65.9951 248.776C66.3231 249.32 66.7631 249.756 67.3151 250.084C67.8671 250.412 68.4791 250.576 69.1511 250.576ZM67.9151 265.36C68.5871 265.36 69.1991 265.268 69.7511 265.084C70.3111 264.908 70.8111 264.66 71.2511 264.34V265.576C71.2671 266.496 70.9831 267.192 70.3991 267.664C69.8231 268.136 69.0831 268.372 68.1791 268.372C67.6671 268.372 67.1831 268.256 66.7271 268.024C66.2711 267.792 65.9231 267.444 65.6831 266.98L63.0191 268.3C63.5231 269.18 64.2351 269.868 65.1551 270.364C66.0831 270.868 67.0871 271.12 68.1671 271.12C69.6311 271.12 70.8871 270.82 71.9351 270.22C72.9911 269.628 73.6671 268.704 73.9631 267.448C74.0271 267.16 74.0711 266.868 74.0951 266.572C74.1271 266.276 74.1431 265.96 74.1431 265.624V252.04H71.6111V252.976C71.1551 252.56 70.6271 252.24 70.0271 252.016C69.4271 251.792 68.7591 251.68 68.0231 251.68C66.7991 251.68 65.7351 251.976 64.8311 252.568C63.9351 253.16 63.2391 253.972 62.7431 255.004C62.2471 256.036 61.9991 257.208 61.9991 258.52C61.9991 259.816 62.2431 260.98 62.7311 262.012C63.2191 263.044 63.9071 263.86 64.7951 264.46C65.6831 265.06 66.7231 265.36 67.9151 265.36ZM68.3591 262.768C67.6071 262.768 66.9871 262.58 66.4991 262.204C66.0111 261.82 65.6471 261.308 65.4071 260.668C65.1751 260.028 65.0591 259.312 65.0591 258.52C65.0591 257.736 65.1791 257.024 65.4191 256.384C65.6671 255.736 66.0391 255.224 66.5351 254.848C67.0391 254.464 67.6791 254.272 68.4551 254.272C69.5591 254.272 70.3591 254.664 70.8551 255.448C71.3591 256.232 71.6111 257.256 71.6111 258.52C71.6111 259.776 71.3591 260.8 70.8551 261.592C70.3591 262.376 69.5271 262.768 68.3591 262.768ZM77.7481 250.072H80.6401V247.42H77.7481V250.072ZM77.7481 265H80.6401V252.04H77.7481V265ZM91.8307 265V262.576C91.0227 262.696 90.3027 262.728 89.6707 262.672C89.0387 262.616 88.5787 262.348 88.2907 261.868C88.1387 261.62 88.0547 261.3 88.0387 260.908C88.0307 260.508 88.0267 260.052 88.0267 259.54V254.308H91.8307V252.04H88.0267V248.44H85.1467V252.04H82.7947V254.308H85.1467V259.708C85.1467 260.452 85.1547 261.116 85.1707 261.7C85.1867 262.276 85.3427 262.844 85.6387 263.404C85.9747 264.02 86.4667 264.472 87.1147 264.76C87.7627 265.04 88.4947 265.188 89.3107 265.204C90.1347 265.228 90.9747 265.16 91.8307 265ZM94.8575 250.072H97.7495V247.42H94.8575V250.072ZM94.8575 265H97.7495V252.04H94.8575V265ZM101.32 265H104.236V257.02C104.236 256.212 104.456 255.556 104.896 255.052C105.344 254.548 105.936 254.296 106.672 254.296C107.432 254.296 108.032 254.548 108.472 255.052C108.912 255.556 109.132 256.26 109.132 257.164V265H112.012V257.02C112.012 256.164 112.244 255.496 112.708 255.016C113.18 254.536 113.764 254.296 114.46 254.296C115.204 254.296 115.796 254.548 116.236 255.052C116.684 255.548 116.908 256.24 116.908 257.128V265H119.8V256.396C119.8 254.988 119.416 253.856 118.648 253C117.888 252.144 116.792 251.716 115.36 251.716C114.52 251.716 113.752 251.9 113.056 252.268C112.36 252.636 111.812 253.14 111.412 253.78C111.068 253.148 110.58 252.648 109.948 252.28C109.316 251.904 108.544 251.716 107.632 251.716C106.856 251.716 106.14 251.872 105.484 252.184C104.836 252.488 104.3 252.908 103.876 253.444V252.04H101.32V265ZM127.735 265H130.627V256.936L137.911 265H141.583L133.651 256.192L141.079 247.72H137.527L130.627 255.736V247.72H127.735V265ZM146.898 265.36C147.93 265.36 148.806 265.192 149.526 264.856C150.254 264.512 150.894 263.98 151.446 263.26V265H153.978V257.044C153.978 256.484 153.954 255.968 153.906 255.496C153.858 255.016 153.718 254.548 153.486 254.092C153.062 253.236 152.41 252.62 151.53 252.244C150.658 251.868 149.646 251.68 148.494 251.68C146.974 251.68 145.762 252.012 144.858 252.676C143.954 253.34 143.342 254.22 143.022 255.316L145.662 256.144C145.878 255.48 146.258 255.012 146.802 254.74C147.346 254.468 147.91 254.332 148.494 254.332C149.374 254.332 150.022 254.512 150.438 254.872C150.854 255.224 151.09 255.772 151.146 256.516C150.01 256.684 148.954 256.848 147.978 257.008C147.01 257.16 146.186 257.348 145.506 257.572C144.482 257.924 143.734 258.424 143.262 259.072C142.79 259.712 142.554 260.504 142.554 261.448C142.554 262.16 142.718 262.812 143.046 263.404C143.382 263.996 143.874 264.472 144.522 264.832C145.17 265.184 145.962 265.36 146.898 265.36ZM147.474 263.056C146.794 263.056 146.274 262.9 145.914 262.588C145.562 262.276 145.386 261.884 145.386 261.412C145.386 260.988 145.522 260.644 145.794 260.38C146.074 260.116 146.462 259.892 146.958 259.708C147.414 259.556 147.962 259.424 148.602 259.312C149.242 259.192 150.078 259.052 151.11 258.892C151.102 259.196 151.082 259.536 151.05 259.912C151.018 260.28 150.942 260.612 150.822 260.908C150.726 261.204 150.538 261.52 150.258 261.856C149.986 262.192 149.618 262.476 149.154 262.708C148.69 262.94 148.13 263.056 147.474 263.056ZM157.078 265H159.994V257.02C159.994 256.212 160.214 255.556 160.654 255.052C161.102 254.548 161.694 254.296 162.43 254.296C163.19 254.296 163.79 254.548 164.23 255.052C164.67 255.556 164.89 256.26 164.89 257.164V265H167.77V257.02C167.77 256.164 168.002 255.496 168.466 255.016C168.938 254.536 169.522 254.296 170.218 254.296C170.962 254.296 171.554 254.548 171.994 255.052C172.442 255.548 172.666 256.24 172.666 257.128V265H175.558V256.396C175.558 254.988 175.174 253.856 174.406 253C173.646 252.144 172.55 251.716 171.118 251.716C170.278 251.716 169.51 251.9 168.814 252.268C168.118 252.636 167.57 253.14 167.17 253.78C166.826 253.148 166.338 252.648 165.706 252.28C165.074 251.904 164.302 251.716 163.39 251.716C162.614 251.716 161.898 251.872 161.242 252.184C160.594 252.488 160.058 252.908 159.634 253.444V252.04H157.078V265ZM178.664 270.76H181.58V264.34C182.02 264.66 182.516 264.908 183.068 265.084C183.628 265.268 184.244 265.36 184.916 265.36C186.116 265.36 187.156 265.06 188.036 264.46C188.924 263.86 189.612 263.044 190.1 262.012C190.588 260.98 190.832 259.816 190.832 258.52C190.832 257.208 190.584 256.036 190.088 255.004C189.6 253.972 188.904 253.16 188 252.568C187.096 251.976 186.032 251.68 184.808 251.68C184.072 251.68 183.404 251.792 182.804 252.016C182.204 252.24 181.676 252.56 181.22 252.976V252.04H178.664V270.76ZM184.472 262.768C183.312 262.768 182.48 262.376 181.976 261.592C181.472 260.8 181.22 259.776 181.22 258.52C181.22 257.256 181.468 256.232 181.964 255.448C182.468 254.664 183.272 254.272 184.376 254.272C185.152 254.272 185.788 254.464 186.284 254.848C186.788 255.224 187.16 255.736 187.4 256.384C187.648 257.024 187.772 257.736 187.772 258.52C187.772 259.312 187.652 260.028 187.412 260.668C187.18 261.308 186.82 261.82 186.332 262.204C185.844 262.58 185.224 262.768 184.472 262.768ZM193.717 265H196.609V247.36H193.717V265ZM203.827 265.36C204.859 265.36 205.735 265.192 206.455 264.856C207.183 264.512 207.823 263.98 208.375 263.26V265H210.907V257.044C210.907 256.484 210.883 255.968 210.835 255.496C210.787 255.016 210.647 254.548 210.415 254.092C209.991 253.236 209.339 252.62 208.459 252.244C207.587 251.868 206.575 251.68 205.423 251.68C203.903 251.68 202.691 252.012 201.787 252.676C200.883 253.34 200.271 254.22 199.951 255.316L202.591 256.144C202.807 255.48 203.187 255.012 203.731 254.74C204.275 254.468 204.839 254.332 205.423 254.332C206.303 254.332 206.951 254.512 207.367 254.872C207.783 255.224 208.019 255.772 208.075 256.516C206.939 256.684 205.883 256.848 204.907 257.008C203.939 257.16 203.115 257.348 202.435 257.572C201.411 257.924 200.663 258.424 200.191 259.072C199.719 259.712 199.483 260.504 199.483 261.448C199.483 262.16 199.647 262.812 199.975 263.404C200.311 263.996 200.803 264.472 201.451 264.832C202.099 265.184 202.891 265.36 203.827 265.36ZM204.403 263.056C203.723 263.056 203.203 262.9 202.843 262.588C202.491 262.276 202.315 261.884 202.315 261.412C202.315 260.988 202.451 260.644 202.723 260.38C203.003 260.116 203.391 259.892 203.887 259.708C204.343 259.556 204.891 259.424 205.531 259.312C206.171 259.192 207.007 259.052 208.039 258.892C208.031 259.196 208.011 259.536 207.979 259.912C207.947 260.28 207.871 260.612 207.751 260.908C207.655 261.204 207.467 261.52 207.187 261.856C206.915 262.192 206.547 262.476 206.083 262.708C205.619 262.94 205.059 263.056 204.403 263.056ZM214.032 265H216.936V258.412C216.936 257.66 217.072 256.992 217.344 256.408C217.624 255.824 218.06 255.372 218.652 255.052C219.052 254.82 219.5 254.684 219.996 254.644C220.492 254.596 220.936 254.628 221.328 254.74V252.04C220.744 251.952 220.144 251.964 219.528 252.076C218.912 252.18 218.364 252.396 217.884 252.724C217.612 252.892 217.368 253.096 217.152 253.336C216.936 253.568 216.748 253.828 216.588 254.116V252.04H214.032V265ZM223.858 265H226.75V252.04H223.858V265Z" fill="#5A47AB"/>
<defs>
<linearGradient id="paint0_linear_23_227" x1="211.806" y1="209.527" x2="83.1728" y2="29.3656" gradientUnits="userSpaceOnUse">
<stop stop-color="#FCEE21"/>
<stop offset="1" stop-color="#00A99D"/>
</linearGradient>
<linearGradient id="paint1_linear_23_227" x1="207.487" y1="203.474" x2="85.8604" y2="33.1256" gradientUnits="userSpaceOnUse">
<stop stop-color="#D9BFBF"/>
<stop offset="1" stop-color="#7C4EFF"/>
</linearGradient>
</defs>
</svg>
