<svg width="394" height="324" viewBox="0 0 394 324" fill="none" xmlns="http://www.w3.org/2000/svg">
<path d="M184.712 228.888C172.962 226.925 164.533 219.018 157.101 212.042C153.12 208.307 149.356 204.777 145.333 202.244C136.244 196.522 128.139 194.349 120.298 192.247C107.624 188.855 94.5179 185.343 80.4152 167.602C66.2164 149.735 60.8911 132.726 64.1391 115.604C67.3211 98.8115 78.6561 84.2945 88.172 73.5299C94.3798 66.4995 98.7205 57.8001 103.307 48.5904C107.3 40.5815 111.424 32.3023 117.02 24.7917C131.375 5.53779 145.351 -1.37249 163.753 1.70141C170.849 2.88414 178.144 5.43572 185.864 8.13739C192.691 10.5209 199.745 12.9884 207.652 14.9276C208.414 15.1137 209.225 15.2818 210.053 15.4199C214.076 16.0923 218.315 16.1103 222.793 16.1343C227.578 16.1583 232.519 16.1824 237.544 17.0229C243.56 18.0255 248.735 20.0728 253.352 23.2728C267.629 33.1609 268.938 44.4539 270.205 55.3686C270.721 59.8174 271.255 64.4102 272.678 69.1832C274.497 75.2709 277.775 80.8844 281.245 86.8341C286.553 95.9237 292.04 105.326 292.586 117.147C293.637 139.901 278.7 152.539 267.377 160.067C263.745 162.487 260.166 164.39 256.708 166.233C249.516 170.064 243.308 173.372 239.231 180.042C238.013 182.035 237.364 185.451 236.74 188.753C235.989 192.716 235.209 196.816 233.294 200.502C226.365 213.855 211.212 227.921 192.979 229.266C190.169 229.458 187.389 229.332 184.712 228.888Z" stroke="url(#paint0_linear_23_248)" stroke-miterlimit="10" stroke-dasharray="25 25"/>
<path d="M85.1161 163.868C106.399 190.644 123.606 181.465 148.533 197.158C162.738 206.098 172.56 224.727 192.541 223.263C207.568 222.158 221.232 210.703 227.968 197.723C231.114 191.659 230.682 182.515 234.11 176.902C241.189 165.321 252.872 162.493 264.057 155.06C276.947 146.487 287.423 135.482 286.589 117.417C285.778 99.7961 271.82 87.3084 266.921 70.8942C261.793 53.7116 267.305 40.2393 249.93 28.1958C236.11 18.6199 220.584 24.2754 206.217 20.7512C169.492 11.7516 149.428 -8.64897 121.829 28.3759C110.284 43.8655 105.066 63.4676 92.6627 77.4983C70.6171 102.456 56.8806 128.344 85.1161 163.868Z" fill="url(#paint1_linear_23_248)"/>
<path d="M223.618 92.0412L223.506 132.082C223.489 137.86 219.691 143.631 212.104 148.04C196.829 156.917 171.986 156.917 156.611 148.04C148.876 143.574 145.012 137.712 145.029 131.858L145.143 91.8174C145.126 97.6714 148.989 103.534 156.725 108C172.099 116.876 196.943 116.876 212.218 107.999C219.804 103.59 223.602 97.8199 223.618 92.0412Z" fill="url(#paint2_linear_23_248)"/>
<path d="M212.218 107.999C204.594 112.429 194.586 114.648 184.561 114.656V154.695C194.548 154.67 204.509 152.454 212.105 148.04C219.691 143.631 223.489 137.86 223.506 132.082L223.619 92.041C223.603 97.8197 219.804 103.59 212.218 107.999Z" fill="url(#paint3_linear_23_248)"/>
<path d="M258.429 95.4178L184.571 138.341L110.228 95.4188L184.087 52.4968L258.429 95.4178Z" fill="#6363A5"/>
<path d="M184.571 138.341L184.561 141.622L110.218 98.7013L110.228 95.4191L184.571 138.341Z" fill="url(#paint4_linear_23_248)"/>
<path d="M224.77 157.553C226.392 158.489 226.405 160.011 224.796 160.948C223.178 161.887 220.551 161.883 218.93 160.948C217.308 160.011 217.3 158.492 218.917 157.553C220.527 156.617 223.15 156.617 224.77 157.553Z" fill="#FBD15B"/>
<path d="M217.709 159.251L219.422 150.855L224.271 150.734L225.994 159.251H217.709Z" fill="#FBD15B"/>
<path d="M224.281 146.914L224.271 150.734C224.269 151.091 224.035 151.448 223.567 151.72C222.62 152.27 221.079 152.268 220.127 151.72C219.649 151.444 219.411 151.082 219.412 150.719L219.422 146.899C219.421 147.262 219.661 147.623 220.138 147.9C221.089 148.448 222.63 148.451 223.578 147.9C224.046 147.628 224.28 147.271 224.281 146.914Z" fill="#DDA35E"/>
<path d="M223.563 145.909C224.515 146.458 224.523 147.351 223.578 147.9C222.63 148.45 221.089 148.448 220.138 147.9C219.187 147.351 219.183 146.46 220.131 145.909C221.075 145.36 222.613 145.36 223.563 145.909Z" fill="#FBD15B"/>
<path d="M221.754 147.745C221.332 147.725 220.918 147.62 220.596 147.435C220.248 147.233 220.068 146.981 220.052 146.718V146.589L219.936 113.812L221.639 114.803L221.754 147.745Z" fill="#DDA35E"/>
<path d="M223.755 146.643V146.731C223.74 146.984 223.559 147.242 223.22 147.435C222.818 147.668 222.278 147.77 221.754 147.745L221.639 114.803C221.634 114.167 222.085 113.393 222.632 113.075C222.798 112.983 222.951 112.938 223.087 112.938L223.192 112.95H223.205L223.286 112.979L223.309 112.987L223.333 112.999C223.522 113.1 223.636 113.326 223.64 113.647L223.755 146.643Z" fill="#FBD15B"/>
<path d="M184.275 92.5538L184.279 94.5231L221.209 115.984L221.204 114.014L184.275 92.5538Z" fill="#DDA35E"/>
<path d="M223.618 115.403L223.613 113.433C223.613 113.643 223.474 113.854 223.197 114.014C222.644 114.334 221.752 114.334 221.204 114.014L221.209 115.984C221.758 116.303 222.649 116.303 223.203 115.984C223.481 115.824 223.619 115.612 223.618 115.403Z" fill="#FBD15B"/>
<path d="M184.28 91.399C183.728 91.7182 183.727 92.2357 184.275 92.5538L221.204 114.014C221.752 114.334 222.644 114.334 223.197 114.014C223.749 113.695 223.752 113.18 223.204 112.86L186.274 91.399C185.727 91.0808 184.833 91.0797 184.28 91.399Z" fill="#FBD15B"/>
<path d="M1.28832 293H9.47832V291.479H2.89032V287.141H8.39832V285.62H2.89032V281.561H9.47832V280.04H1.28832V293ZM16.2048 282.146C16.6608 282.146 17.0718 282.035 17.4378 281.813C17.8098 281.591 18.1068 281.294 18.3288 280.922C18.5508 280.55 18.6618 280.139 18.6618 279.689H17.3658C17.3658 280.007 17.2518 280.28 17.0238 280.508C16.8018 280.736 16.5288 280.85 16.2048 280.85C15.8868 280.85 15.6138 280.736 15.3858 280.508C15.1578 280.28 15.0438 280.007 15.0438 279.689H13.7478C13.7478 280.139 13.8588 280.55 14.0808 280.922C14.3028 281.294 14.5998 281.591 14.9718 281.813C15.3438 282.035 15.7548 282.146 16.2048 282.146ZM15.4578 293.27C16.0578 293.27 16.5948 293.168 17.0688 292.964C17.5488 292.76 17.9628 292.475 18.3108 292.109V293.045C18.3288 295.043 17.4198 296.042 15.5838 296.042C15.1098 296.042 14.6538 295.934 14.2158 295.718C13.7778 295.502 13.4388 295.157 13.1988 294.683L11.7318 295.457C12.1398 296.183 12.6918 296.72 13.3878 297.068C14.0838 297.416 14.8128 297.59 15.5748 297.59C16.7388 297.59 17.6868 297.341 18.4188 296.843C19.1568 296.351 19.6188 295.589 19.8048 294.557C19.8528 294.317 19.8828 294.074 19.8948 293.828C19.9128 293.588 19.9218 293.333 19.9218 293.063V283.28H18.4998V284.369C18.1458 283.943 17.7138 283.61 17.2038 283.37C16.6938 283.13 16.1088 283.01 15.4488 283.01C14.5488 283.01 13.7748 283.235 13.1268 283.685C12.4788 284.129 11.9778 284.738 11.6238 285.512C11.2758 286.286 11.1018 287.159 11.1018 288.131C11.1018 289.103 11.2758 289.976 11.6238 290.75C11.9718 291.524 12.4698 292.139 13.1178 292.595C13.7718 293.045 14.5518 293.27 15.4578 293.27ZM15.6558 291.803C15.0198 291.803 14.4888 291.641 14.0628 291.317C13.6428 290.993 13.3278 290.555 13.1178 290.003C12.9078 289.445 12.8028 288.821 12.8028 288.131C12.8028 287.447 12.9048 286.829 13.1088 286.277C13.3188 285.725 13.6368 285.287 14.0628 284.963C14.4948 284.639 15.0408 284.477 15.7008 284.477C16.6488 284.477 17.3508 284.819 17.8068 285.503C18.2688 286.181 18.4998 287.057 18.4998 288.131C18.4998 289.199 18.2718 290.078 17.8158 290.768C17.3598 291.458 16.6398 291.803 15.6558 291.803ZM22.6148 281.561H24.2168V279.905H22.6148V281.561ZM22.6148 293H24.2168V283.28H22.6148V293ZM32.3442 293V291.623C31.6782 291.725 31.1082 291.743 30.6342 291.677C30.1662 291.611 29.8242 291.386 29.6082 291.002C29.4942 290.798 29.4312 290.558 29.4192 290.282C29.4132 290 29.4102 289.658 29.4102 289.256V284.603H32.3442V283.28H29.4102V280.58H27.8082V283.28H25.8372V284.603H27.8082V289.328C27.8082 289.832 27.8142 290.282 27.8262 290.678C27.8442 291.068 27.9492 291.452 28.1412 291.83C28.3692 292.268 28.7022 292.592 29.1402 292.802C29.5782 293.006 30.0762 293.117 30.6342 293.135C31.1982 293.159 31.7682 293.114 32.3442 293ZM34.4976 281.561H36.0996V279.905H34.4976V281.561ZM34.4976 293H36.0996V283.28H34.4976V293ZM38.791 293H40.402V286.826C40.402 286.112 40.594 285.539 40.978 285.107C41.368 284.675 41.881 284.459 42.517 284.459C43.153 284.459 43.663 284.672 44.047 285.098C44.431 285.524 44.623 286.106 44.623 286.844L44.614 293H46.207L46.216 286.826C46.216 286.28 46.318 285.833 46.522 285.485C46.726 285.137 46.99 284.879 47.314 284.711C47.638 284.543 47.98 284.459 48.34 284.459C48.952 284.459 49.453 284.666 49.843 285.08C50.233 285.488 50.428 286.055 50.428 286.781L50.419 293H52.021L52.03 286.43C52.03 285.392 51.739 284.567 51.157 283.955C50.575 283.337 49.777 283.028 48.763 283.028C48.121 283.028 47.542 283.172 47.026 283.46C46.51 283.742 46.108 284.132 45.82 284.63C45.556 284.12 45.181 283.727 44.695 283.451C44.209 283.169 43.639 283.028 42.985 283.028C42.403 283.028 41.872 283.145 41.392 283.379C40.918 283.607 40.528 283.919 40.222 284.315V283.28H38.791V293ZM54.5543 293H56.1563V279.77H54.5543V293ZM63.0687 293.27C64.0107 293.27 64.8597 293.036 65.6157 292.568C66.3717 292.094 66.9417 291.428 67.3257 290.57L65.7867 290.039C65.2287 291.179 64.2987 291.749 62.9967 291.749C62.1027 291.749 61.4007 291.476 60.8907 290.93C60.3867 290.378 60.1017 289.598 60.0357 288.59H67.4877C67.5357 287.438 67.3857 286.445 67.0377 285.611C66.6957 284.777 66.1797 284.135 65.4897 283.685C64.8057 283.235 63.9747 283.01 62.9967 283.01C62.0547 283.01 61.2327 283.223 60.5307 283.649C59.8287 284.069 59.2827 284.669 58.8927 285.449C58.5087 286.223 58.3167 287.141 58.3167 288.203C58.3167 289.217 58.5117 290.105 58.9017 290.867C59.2977 291.623 59.8527 292.214 60.5667 292.64C61.2807 293.06 62.1147 293.27 63.0687 293.27ZM63.0507 284.45C64.7007 284.45 65.6247 285.401 65.8227 287.303H60.0627C60.1767 286.379 60.4857 285.674 60.9897 285.188C61.4937 284.696 62.1807 284.45 63.0507 284.45ZM69.4914 293H71.1024V288.122C71.1024 287.546 71.1804 286.991 71.3364 286.457C71.4924 285.923 71.8074 285.488 72.2814 285.152C72.6174 284.906 72.9864 284.762 73.3884 284.72C73.7964 284.678 74.1684 284.699 74.5044 284.783V283.28C74.0724 283.184 73.5984 283.184 73.0824 283.28C72.5664 283.376 72.1224 283.574 71.7504 283.874C71.4264 284.102 71.1504 284.417 70.9224 284.819V283.28H69.4914V293ZM76.3863 281.561H77.9883V279.905H76.3863V281.561ZM76.3863 293H77.9883V283.28H76.3863V293ZM84.2832 293H85.7142V291.902C86.0682 292.328 86.4972 292.664 87.0012 292.91C87.5112 293.15 88.0962 293.27 88.7562 293.27C89.6622 293.27 90.4392 293.045 91.0872 292.595C91.7412 292.139 92.2422 291.524 92.5902 290.75C92.9382 289.976 93.1122 289.103 93.1122 288.131C93.1122 287.159 92.9382 286.286 92.5902 285.512C92.2422 284.738 91.7412 284.129 91.0872 283.685C90.4392 283.235 89.6652 283.01 88.7652 283.01C88.1592 283.01 87.6162 283.112 87.1362 283.316C86.6562 283.52 86.2422 283.802 85.8942 284.162V280.04H84.2832V293ZM88.5582 291.803C87.5802 291.803 86.8602 291.458 86.3982 290.768C85.9422 290.078 85.7142 289.199 85.7142 288.131C85.7142 287.057 85.9422 286.181 86.3982 285.503C86.8602 284.819 87.5652 284.477 88.5132 284.477C89.1732 284.477 89.7162 284.639 90.1422 284.963C90.5742 285.287 90.8922 285.725 91.0962 286.277C91.3062 286.829 91.4112 287.447 91.4112 288.131C91.4112 288.821 91.3062 289.445 91.0962 290.003C90.8862 290.555 90.5712 290.993 90.1512 291.317C89.7312 291.641 89.2002 291.803 88.5582 291.803ZM97.8482 293.27C99.4682 293.27 100.668 292.676 101.448 291.488V293H102.87V286.988C102.87 286.604 102.852 286.238 102.816 285.89C102.78 285.536 102.693 285.209 102.555 284.909C102.279 284.273 101.823 283.799 101.187 283.487C100.551 283.169 99.7952 283.01 98.9192 283.01C97.8212 283.01 96.9332 283.253 96.2552 283.739C95.5832 284.225 95.1332 284.894 94.9052 285.746L96.4262 286.205C96.6002 285.611 96.9092 285.179 97.3532 284.909C97.7972 284.639 98.3132 284.504 98.9012 284.504C99.7412 284.504 100.344 284.693 100.71 285.071C101.082 285.443 101.277 286.016 101.295 286.79C100.575 286.892 99.8192 287 99.0272 287.114C98.2412 287.222 97.5422 287.357 96.9302 287.519C96.1922 287.735 95.6102 288.074 95.1842 288.536C94.7582 288.992 94.5452 289.604 94.5452 290.372C94.5452 290.894 94.6682 291.374 94.9142 291.812C95.1662 292.25 95.5352 292.604 96.0212 292.874C96.5132 293.138 97.1222 293.27 97.8482 293.27ZM98.0912 291.929C97.4012 291.929 96.9032 291.77 96.5972 291.452C96.2912 291.128 96.1382 290.765 96.1382 290.363C96.1382 289.907 96.2882 289.559 96.5882 289.319C96.8942 289.073 97.2482 288.887 97.6502 288.761C98.1242 288.629 98.6762 288.518 99.3062 288.428C99.9362 288.338 100.593 288.248 101.277 288.158C101.277 288.38 101.265 288.632 101.241 288.914C101.223 289.196 101.181 289.454 101.115 289.688C101.001 290.288 100.683 290.813 100.161 291.263C99.6452 291.707 98.9552 291.929 98.0912 291.929ZM108.603 297.329C109.083 297.329 109.497 297.161 109.845 296.825C110.193 296.489 110.367 296.066 110.367 295.556C110.367 295.166 110.268 294.839 110.07 294.575C109.872 294.317 109.608 294.113 109.278 293.963L109.539 293.234C110.553 293.138 111.345 292.829 111.915 292.307C112.485 291.785 112.77 291.098 112.77 290.246C112.77 289.742 112.665 289.319 112.455 288.977C112.245 288.629 111.891 288.329 111.393 288.077C110.901 287.819 110.226 287.582 109.368 287.366C108.606 287.174 108.024 287.003 107.622 286.853C107.226 286.703 106.953 286.544 106.803 286.376C106.659 286.208 106.587 286.007 106.587 285.773C106.587 285.359 106.782 285.029 107.172 284.783C107.568 284.537 108.081 284.423 108.711 284.441C109.371 284.459 109.914 284.621 110.34 284.927C110.766 285.227 111.018 285.635 111.096 286.151L112.734 285.854C112.632 284.996 112.212 284.309 111.474 283.793C110.742 283.271 109.821 283.01 108.711 283.01C107.589 283.01 106.686 283.271 106.002 283.793C105.318 284.309 104.976 284.996 104.976 285.854C104.976 286.316 105.078 286.709 105.282 287.033C105.492 287.357 105.843 287.642 106.335 287.888C106.833 288.134 107.511 288.371 108.369 288.599C109.161 288.809 109.752 288.992 110.142 289.148C110.538 289.298 110.799 289.457 110.925 289.625C111.051 289.793 111.114 290.015 111.114 290.291C111.114 290.765 110.922 291.14 110.538 291.416C110.16 291.692 109.641 291.83 108.981 291.83C108.279 291.83 107.691 291.677 107.217 291.371C106.743 291.059 106.44 290.639 106.308 290.111L104.67 290.372C104.826 291.23 105.234 291.908 105.894 292.406C106.554 292.904 107.406 293.186 108.45 293.252L107.955 294.629C108.261 294.725 108.534 294.83 108.774 294.944C109.02 295.058 109.143 295.247 109.143 295.511C109.143 295.667 109.083 295.811 108.963 295.943C108.849 296.075 108.684 296.141 108.468 296.141C108.3 296.141 108.081 296.093 107.811 295.997L107.424 297.032C107.598 297.116 107.781 297.185 107.973 297.239C108.171 297.299 108.381 297.329 108.603 297.329ZM117.518 293.27C119.138 293.27 120.338 292.676 121.118 291.488V293H122.54V286.988C122.54 286.604 122.522 286.238 122.486 285.89C122.45 285.536 122.363 285.209 122.225 284.909C121.949 284.273 121.493 283.799 120.857 283.487C120.221 283.169 119.465 283.01 118.589 283.01C117.491 283.01 116.603 283.253 115.925 283.739C115.253 284.225 114.803 284.894 114.575 285.746L116.096 286.205C116.27 285.611 116.579 285.179 117.023 284.909C117.467 284.639 117.983 284.504 118.571 284.504C119.411 284.504 120.014 284.693 120.38 285.071C120.752 285.443 120.947 286.016 120.965 286.79C120.245 286.892 119.489 287 118.697 287.114C117.911 287.222 117.212 287.357 116.6 287.519C115.862 287.735 115.28 288.074 114.854 288.536C114.428 288.992 114.215 289.604 114.215 290.372C114.215 290.894 114.338 291.374 114.584 291.812C114.836 292.25 115.205 292.604 115.691 292.874C116.183 293.138 116.792 293.27 117.518 293.27ZM117.761 291.929C117.071 291.929 116.573 291.77 116.267 291.452C115.961 291.128 115.808 290.765 115.808 290.363C115.808 289.907 115.958 289.559 116.258 289.319C116.564 289.073 116.918 288.887 117.32 288.761C117.794 288.629 118.346 288.518 118.976 288.428C119.606 288.338 120.263 288.248 120.947 288.158C120.947 288.38 120.935 288.632 120.911 288.914C120.893 289.196 120.851 289.454 120.785 289.688C120.671 290.288 120.353 290.813 119.831 291.263C119.315 291.707 118.625 291.929 117.761 291.929ZM124.88 293H126.491V288.122C126.491 287.546 126.569 286.991 126.725 286.457C126.881 285.923 127.196 285.488 127.67 285.152C128.006 284.906 128.375 284.762 128.777 284.72C129.185 284.678 129.557 284.699 129.893 284.783V283.28C129.461 283.184 128.987 283.184 128.471 283.28C127.955 283.376 127.511 283.574 127.139 283.874C126.815 284.102 126.539 284.417 126.311 284.819V283.28H124.88V293ZM131.775 293H133.377V283.28H131.775V293ZM139.861 281.561H141.463V279.905H139.861V281.561ZM139.861 293H141.463V283.28H139.861V293ZM144.343 293H145.945V279.77H144.343V293ZM152.858 293.27C153.8 293.27 154.649 293.036 155.405 292.568C156.161 292.094 156.731 291.428 157.115 290.57L155.576 290.039C155.018 291.179 154.088 291.749 152.786 291.749C151.892 291.749 151.19 291.476 150.68 290.93C150.176 290.378 149.891 289.598 149.825 288.59H157.277C157.325 287.438 157.175 286.445 156.827 285.611C156.485 284.777 155.969 284.135 155.279 283.685C154.595 283.235 153.764 283.01 152.786 283.01C151.844 283.01 151.022 283.223 150.32 283.649C149.618 284.069 149.072 284.669 148.682 285.449C148.298 286.223 148.106 287.141 148.106 288.203C148.106 289.217 148.301 290.105 148.691 290.867C149.087 291.623 149.642 292.214 150.356 292.64C151.07 293.06 151.904 293.27 152.858 293.27ZM152.84 284.45C154.49 284.45 155.414 285.401 155.612 287.303H149.852C149.966 286.379 150.275 285.674 150.779 285.188C151.283 284.696 151.97 284.45 152.84 284.45ZM168.311 293V291.623C167.645 291.725 167.075 291.743 166.601 291.677C166.133 291.611 165.791 291.386 165.575 291.002C165.461 290.798 165.398 290.558 165.386 290.282C165.38 290 165.377 289.658 165.377 289.256V284.603H168.311V283.28H165.377V280.58H163.775V283.28H161.804V284.603H163.775V289.328C163.775 289.832 163.781 290.282 163.793 290.678C163.811 291.068 163.916 291.452 164.108 291.83C164.336 292.268 164.669 292.592 165.107 292.802C165.545 293.006 166.043 293.117 166.601 293.135C167.165 293.159 167.735 293.114 168.311 293ZM173.047 293.27C174.667 293.27 175.867 292.676 176.647 291.488V293H178.069V286.988C178.069 286.604 178.051 286.238 178.015 285.89C177.979 285.536 177.892 285.209 177.754 284.909C177.478 284.273 177.022 283.799 176.386 283.487C175.75 283.169 174.994 283.01 174.118 283.01C173.02 283.01 172.132 283.253 171.454 283.739C170.782 284.225 170.332 284.894 170.104 285.746L171.625 286.205C171.799 285.611 172.108 285.179 172.552 284.909C172.996 284.639 173.512 284.504 174.1 284.504C174.94 284.504 175.543 284.693 175.909 285.071C176.281 285.443 176.476 286.016 176.494 286.79C175.774 286.892 175.018 287 174.226 287.114C173.44 287.222 172.741 287.357 172.129 287.519C171.391 287.735 170.809 288.074 170.383 288.536C169.957 288.992 169.744 289.604 169.744 290.372C169.744 290.894 169.867 291.374 170.113 291.812C170.365 292.25 170.734 292.604 171.22 292.874C171.712 293.138 172.321 293.27 173.047 293.27ZM173.29 291.929C172.6 291.929 172.102 291.77 171.796 291.452C171.49 291.128 171.337 290.765 171.337 290.363C171.337 289.907 171.487 289.559 171.787 289.319C172.093 289.073 172.447 288.887 172.849 288.761C173.323 288.629 173.875 288.518 174.505 288.428C175.135 288.338 175.792 288.248 176.476 288.158C176.476 288.38 176.464 288.632 176.44 288.914C176.422 289.196 176.38 289.454 176.314 289.688C176.2 290.288 175.882 290.813 175.36 291.263C174.844 291.707 174.154 291.929 173.29 291.929ZM180.4 293H182.011V286.826C182.011 286.112 182.203 285.539 182.587 285.107C182.977 284.675 183.49 284.459 184.126 284.459C184.762 284.459 185.272 284.672 185.656 285.098C186.04 285.524 186.232 286.106 186.232 286.844L186.223 293H187.816L187.825 286.826C187.825 286.28 187.927 285.833 188.131 285.485C188.335 285.137 188.599 284.879 188.923 284.711C189.247 284.543 189.589 284.459 189.949 284.459C190.561 284.459 191.062 284.666 191.452 285.08C191.842 285.488 192.037 286.055 192.037 286.781L192.028 293H193.63L193.639 286.43C193.639 285.392 193.348 284.567 192.766 283.955C192.184 283.337 191.386 283.028 190.372 283.028C189.73 283.028 189.151 283.172 188.635 283.46C188.119 283.742 187.717 284.132 187.429 284.63C187.165 284.12 186.79 283.727 186.304 283.451C185.818 283.169 185.248 283.028 184.594 283.028C184.012 283.028 183.481 283.145 183.001 283.379C182.527 283.607 182.137 283.919 181.831 284.315V283.28H180.4V293ZM198.747 293.27C200.367 293.27 201.567 292.676 202.347 291.488V293H203.769V286.988C203.769 286.604 203.751 286.238 203.715 285.89C203.679 285.536 203.592 285.209 203.454 284.909C203.178 284.273 202.722 283.799 202.086 283.487C201.45 283.169 200.694 283.01 199.818 283.01C198.72 283.01 197.832 283.253 197.154 283.739C196.482 284.225 196.032 284.894 195.804 285.746L197.325 286.205C197.499 285.611 197.808 285.179 198.252 284.909C198.696 284.639 199.212 284.504 199.8 284.504C200.64 284.504 201.243 284.693 201.609 285.071C201.981 285.443 202.176 286.016 202.194 286.79C201.474 286.892 200.718 287 199.926 287.114C199.14 287.222 198.441 287.357 197.829 287.519C197.091 287.735 196.509 288.074 196.083 288.536C195.657 288.992 195.444 289.604 195.444 290.372C195.444 290.894 195.567 291.374 195.813 291.812C196.065 292.25 196.434 292.604 196.92 292.874C197.412 293.138 198.021 293.27 198.747 293.27ZM198.99 291.929C198.3 291.929 197.802 291.77 197.496 291.452C197.19 291.128 197.037 290.765 197.037 290.363C197.037 289.907 197.187 289.559 197.487 289.319C197.793 289.073 198.147 288.887 198.549 288.761C199.023 288.629 199.575 288.518 200.205 288.428C200.835 288.338 201.492 288.248 202.176 288.158C202.176 288.38 202.164 288.632 202.14 288.914C202.122 289.196 202.08 289.454 202.014 289.688C201.9 290.288 201.582 290.813 201.06 291.263C200.544 291.707 199.854 291.929 198.99 291.929ZM206.1 293H207.711V286.826C207.711 286.112 207.903 285.539 208.287 285.107C208.677 284.675 209.19 284.459 209.826 284.459C210.462 284.459 210.972 284.672 211.356 285.098C211.74 285.524 211.932 286.106 211.932 286.844L211.923 293H213.516L213.525 286.826C213.525 286.28 213.627 285.833 213.831 285.485C214.035 285.137 214.299 284.879 214.623 284.711C214.947 284.543 215.289 284.459 215.649 284.459C216.261 284.459 216.762 284.666 217.152 285.08C217.542 285.488 217.737 286.055 217.737 286.781L217.728 293H219.33L219.339 286.43C219.339 285.392 219.048 284.567 218.466 283.955C217.884 283.337 217.086 283.028 216.072 283.028C215.43 283.028 214.851 283.172 214.335 283.46C213.819 283.742 213.417 284.132 213.129 284.63C212.865 284.12 212.49 283.727 212.004 283.451C211.518 283.169 210.948 283.028 210.294 283.028C209.712 283.028 209.181 283.145 208.701 283.379C208.227 283.607 207.837 283.919 207.531 284.315V283.28H206.1V293ZM221.863 293H223.465V279.77H221.863V293ZM228.928 293.27C230.548 293.27 231.748 292.676 232.528 291.488V293H233.95V286.988C233.95 286.604 233.932 286.238 233.896 285.89C233.86 285.536 233.773 285.209 233.635 284.909C233.359 284.273 232.903 283.799 232.267 283.487C231.631 283.169 230.875 283.01 229.999 283.01C228.901 283.01 228.013 283.253 227.335 283.739C226.663 284.225 226.213 284.894 225.985 285.746L227.506 286.205C227.68 285.611 227.989 285.179 228.433 284.909C228.877 284.639 229.393 284.504 229.981 284.504C230.821 284.504 231.424 284.693 231.79 285.071C232.162 285.443 232.357 286.016 232.375 286.79C231.655 286.892 230.899 287 230.107 287.114C229.321 287.222 228.622 287.357 228.01 287.519C227.272 287.735 226.69 288.074 226.264 288.536C225.838 288.992 225.625 289.604 225.625 290.372C225.625 290.894 225.748 291.374 225.994 291.812C226.246 292.25 226.615 292.604 227.101 292.874C227.593 293.138 228.202 293.27 228.928 293.27ZM229.171 291.929C228.481 291.929 227.983 291.77 227.677 291.452C227.371 291.128 227.218 290.765 227.218 290.363C227.218 289.907 227.368 289.559 227.668 289.319C227.974 289.073 228.328 288.887 228.73 288.761C229.204 288.629 229.756 288.518 230.386 288.428C231.016 288.338 231.673 288.248 232.357 288.158C232.357 288.38 232.345 288.632 232.321 288.914C232.303 289.196 232.261 289.454 232.195 289.688C232.081 290.288 231.763 290.813 231.241 291.263C230.725 291.707 230.035 291.929 229.171 291.929ZM236.11 295.016C236.668 295.118 237.1 295.01 237.406 294.692C237.718 294.374 237.874 293.9 237.874 293.27V290.966H236.11V293H237.037C237.067 293.36 237.028 293.666 236.92 293.918C236.818 294.176 236.581 294.293 236.209 294.269L236.11 295.016ZM250.007 281.516H251.627V279.896H250.007V281.516ZM246.479 281.516H248.099V279.896H246.479V281.516ZM249.044 293.27C250.01 293.27 250.841 293.054 251.537 292.622C252.239 292.19 252.779 291.587 253.157 290.813C253.541 290.039 253.733 289.145 253.733 288.131C253.733 287.129 253.544 286.244 253.166 285.476C252.794 284.702 252.257 284.099 251.555 283.667C250.853 283.229 250.016 283.01 249.044 283.01C248.096 283.01 247.271 283.226 246.569 283.658C245.867 284.084 245.324 284.681 244.94 285.449C244.556 286.217 244.364 287.111 244.364 288.131C244.364 289.133 244.55 290.021 244.922 290.795C245.3 291.569 245.84 292.175 246.542 292.613C247.244 293.051 248.078 293.27 249.044 293.27ZM249.044 291.749C248.066 291.749 247.325 291.422 246.821 290.768C246.317 290.108 246.065 289.229 246.065 288.131C246.065 287.069 246.308 286.205 246.794 285.539C247.28 284.867 248.03 284.531 249.044 284.531C250.04 284.531 250.787 284.858 251.285 285.512C251.783 286.166 252.032 287.039 252.032 288.131C252.032 289.199 251.783 290.069 251.285 290.741C250.793 291.413 250.046 291.749 249.044 291.749ZM259.53 293.27C260.19 293.27 260.772 293.15 261.276 292.91C261.786 292.664 262.218 292.328 262.572 291.902V293H264.003V280.04H262.392V284.162C262.044 283.802 261.63 283.52 261.15 283.316C260.67 283.112 260.127 283.01 259.521 283.01C258.621 283.01 257.844 283.235 257.19 283.685C256.542 284.129 256.044 284.738 255.696 285.512C255.348 286.286 255.174 287.159 255.174 288.131C255.174 289.103 255.348 289.976 255.696 290.75C256.044 291.524 256.542 292.139 257.19 292.595C257.844 293.045 258.624 293.27 259.53 293.27ZM259.728 291.803C259.092 291.803 258.561 291.641 258.135 291.317C257.715 290.993 257.4 290.555 257.19 290.003C256.98 289.445 256.875 288.821 256.875 288.131C256.875 287.447 256.977 286.829 257.181 286.277C257.391 285.725 257.709 285.287 258.135 284.963C258.567 284.639 259.113 284.477 259.773 284.477C260.721 284.477 261.423 284.819 261.879 285.503C262.341 286.181 262.572 287.057 262.572 288.131C262.572 289.199 262.344 290.078 261.888 290.768C261.432 291.458 260.712 291.803 259.728 291.803ZM271.565 281.516H273.185V279.896H271.565V281.516ZM268.037 281.516H269.657V279.896H268.037V281.516ZM270.215 293.252C271.631 293.252 272.711 292.751 273.455 291.749V293H274.886V283.28H273.275V288.401C273.275 289.523 273.029 290.36 272.537 290.912C272.051 291.458 271.406 291.731 270.602 291.731C269.918 291.731 269.384 291.56 269 291.218C268.622 290.876 268.355 290.432 268.199 289.886C268.043 289.334 267.965 288.755 267.965 288.149V283.28H266.345V288.653C266.345 289.115 266.399 289.613 266.507 290.147C266.621 290.675 266.819 291.176 267.101 291.65C267.389 292.118 267.785 292.502 268.289 292.802C268.793 293.102 269.435 293.252 270.215 293.252ZM277.586 293H279.188V279.77H277.586V293ZM282.068 293H283.67V279.77H282.068V293ZM290.582 293.27C291.524 293.27 292.373 293.036 293.129 292.568C293.885 292.094 294.455 291.428 294.839 290.57L293.3 290.039C292.742 291.179 291.812 291.749 290.51 291.749C289.616 291.749 288.914 291.476 288.404 290.93C287.9 290.378 287.615 289.598 287.549 288.59H295.001C295.049 287.438 294.899 286.445 294.551 285.611C294.209 284.777 293.693 284.135 293.003 283.685C292.319 283.235 291.488 283.01 290.51 283.01C289.568 283.01 288.746 283.223 288.044 283.649C287.342 284.069 286.796 284.669 286.406 285.449C286.022 286.223 285.83 287.141 285.83 288.203C285.83 289.217 286.025 290.105 286.415 290.867C286.811 291.623 287.366 292.214 288.08 292.64C288.794 293.06 289.628 293.27 290.582 293.27ZM290.564 284.45C292.214 284.45 293.138 285.401 293.336 287.303H287.576C287.69 286.379 287.999 285.674 288.503 285.188C289.007 284.696 289.694 284.45 290.564 284.45ZM297.005 293H298.616V288.122C298.616 287.546 298.694 286.991 298.85 286.457C299.006 285.923 299.321 285.488 299.795 285.152C300.131 284.906 300.5 284.762 300.902 284.72C301.31 284.678 301.682 284.699 302.018 284.783V283.28C301.586 283.184 301.112 283.184 300.596 283.28C300.08 283.376 299.636 283.574 299.264 283.874C298.94 284.102 298.664 284.417 298.436 284.819V283.28H297.005V293ZM303.9 281.561H305.502V279.905H303.9V281.561ZM303.9 293H305.502V283.28H303.9V293ZM308.193 293H309.804V286.826C309.804 286.112 309.996 285.539 310.38 285.107C310.77 284.675 311.283 284.459 311.919 284.459C312.555 284.459 313.065 284.672 313.449 285.098C313.833 285.524 314.025 286.106 314.025 286.844L314.016 293H315.609L315.618 286.826C315.618 286.28 315.72 285.833 315.924 285.485C316.128 285.137 316.392 284.879 316.716 284.711C317.04 284.543 317.382 284.459 317.742 284.459C318.354 284.459 318.855 284.666 319.245 285.08C319.635 285.488 319.83 286.055 319.83 286.781L319.821 293H321.423L321.432 286.43C321.432 285.392 321.141 284.567 320.559 283.955C319.977 283.337 319.179 283.028 318.165 283.028C317.523 283.028 316.944 283.172 316.428 283.46C315.912 283.742 315.51 284.132 315.222 284.63C314.958 284.12 314.583 283.727 314.097 283.451C313.611 283.169 313.041 283.028 312.387 283.028C311.805 283.028 311.274 283.145 310.794 283.379C310.32 283.607 309.93 283.919 309.624 284.315V283.28H308.193V293ZM323.957 281.561H325.559V279.905H323.957V281.561ZM323.957 293H325.559V283.28H323.957V293ZM327.359 293H335.531V291.542H329.951L335.837 283.586V283.28H327.845V284.738H333.254L327.359 292.712V293ZM338.002 281.561H339.604V279.905H338.002V281.561ZM338.002 293H339.604V283.28H338.002V293ZM345.898 293H347.527V288.32L351.946 293H354.187L349.39 288.14L353.683 283.28H351.604L347.527 287.96V280.04H345.907L345.898 293ZM357.846 293.27C359.466 293.27 360.666 292.676 361.446 291.488V293H362.868V286.988C362.868 286.604 362.85 286.238 362.814 285.89C362.778 285.536 362.691 285.209 362.553 284.909C362.277 284.273 361.821 283.799 361.185 283.487C360.549 283.169 359.793 283.01 358.917 283.01C357.819 283.01 356.931 283.253 356.253 283.739C355.581 284.225 355.131 284.894 354.903 285.746L356.424 286.205C356.598 285.611 356.907 285.179 357.351 284.909C357.795 284.639 358.311 284.504 358.899 284.504C359.739 284.504 360.342 284.693 360.708 285.071C361.08 285.443 361.275 286.016 361.293 286.79C360.573 286.892 359.817 287 359.025 287.114C358.239 287.222 357.54 287.357 356.928 287.519C356.19 287.735 355.608 288.074 355.182 288.536C354.756 288.992 354.543 289.604 354.543 290.372C354.543 290.894 354.666 291.374 354.912 291.812C355.164 292.25 355.533 292.604 356.019 292.874C356.511 293.138 357.12 293.27 357.846 293.27ZM358.089 291.929C357.399 291.929 356.901 291.77 356.595 291.452C356.289 291.128 356.136 290.765 356.136 290.363C356.136 289.907 356.286 289.559 356.586 289.319C356.892 289.073 357.246 288.887 357.648 288.761C358.122 288.629 358.674 288.518 359.304 288.428C359.934 288.338 360.591 288.248 361.275 288.158C361.275 288.38 361.263 288.632 361.239 288.914C361.221 289.196 361.179 289.454 361.113 289.688C360.999 290.288 360.681 290.813 360.159 291.263C359.643 291.707 358.953 291.929 358.089 291.929ZM364.308 293H372.48V291.542H366.9L372.786 283.586V283.28H364.794V284.738H370.203L364.308 292.712V293ZM376.989 293.27C378.609 293.27 379.809 292.676 380.589 291.488V293H382.011V286.988C382.011 286.604 381.993 286.238 381.957 285.89C381.921 285.536 381.834 285.209 381.696 284.909C381.42 284.273 380.964 283.799 380.328 283.487C379.692 283.169 378.936 283.01 378.06 283.01C376.962 283.01 376.074 283.253 375.396 283.739C374.724 284.225 374.274 284.894 374.046 285.746L375.567 286.205C375.741 285.611 376.05 285.179 376.494 284.909C376.938 284.639 377.454 284.504 378.042 284.504C378.882 284.504 379.485 284.693 379.851 285.071C380.223 285.443 380.418 286.016 380.436 286.79C379.716 286.892 378.96 287 378.168 287.114C377.382 287.222 376.683 287.357 376.071 287.519C375.333 287.735 374.751 288.074 374.325 288.536C373.899 288.992 373.686 289.604 373.686 290.372C373.686 290.894 373.809 291.374 374.055 291.812C374.307 292.25 374.676 292.604 375.162 292.874C375.654 293.138 376.263 293.27 376.989 293.27ZM377.232 291.929C376.542 291.929 376.044 291.77 375.738 291.452C375.432 291.128 375.279 290.765 375.279 290.363C375.279 289.907 375.429 289.559 375.729 289.319C376.035 289.073 376.389 288.887 376.791 288.761C377.265 288.629 377.817 288.518 378.447 288.428C379.077 288.338 379.734 288.248 380.418 288.158C380.418 288.38 380.406 288.632 380.382 288.914C380.364 289.196 380.322 289.454 380.256 289.688C380.142 290.288 379.824 290.813 379.302 291.263C378.786 291.707 378.096 291.929 377.232 291.929ZM384.342 293H385.962V287.879C385.962 286.751 386.205 285.914 386.691 285.368C387.183 284.822 387.831 284.549 388.635 284.549C389.319 284.549 389.853 284.72 390.237 285.062C390.621 285.404 390.888 285.848 391.038 286.394C391.194 286.94 391.272 287.519 391.272 288.131V293H392.892V287.627C392.892 287.165 392.835 286.67 392.721 286.142C392.613 285.608 392.415 285.107 392.127 284.639C391.845 284.165 391.452 283.778 390.948 283.478C390.45 283.178 389.808 283.028 389.022 283.028C387.606 283.028 386.526 283.529 385.782 284.531V283.28H384.342V293ZM35.847 318H37.485L41.013 308.28H39.384L36.666 315.957L33.939 308.28H32.319L35.847 318ZM46.5013 318.27C47.4433 318.27 48.2923 318.036 49.0483 317.568C49.8043 317.094 50.3743 316.428 50.7583 315.57L49.2193 315.039C48.6613 316.179 47.7313 316.749 46.4293 316.749C45.5353 316.749 44.8333 316.476 44.3233 315.93C43.8193 315.378 43.5343 314.598 43.4683 313.59H50.9203C50.9683 312.438 50.8183 311.445 50.4703 310.611C50.1283 309.777 49.6123 309.135 48.9223 308.685C48.2383 308.235 47.4073 308.01 46.4293 308.01C45.4873 308.01 44.6653 308.223 43.9633 308.649C43.2613 309.069 42.7153 309.669 42.3253 310.449C41.9413 311.223 41.7493 312.141 41.7493 313.203C41.7493 314.217 41.9443 315.105 42.3343 315.867C42.7303 316.623 43.2853 317.214 43.9993 317.64C44.7133 318.06 45.5473 318.27 46.5013 318.27ZM46.4833 309.45C48.1333 309.45 49.0573 310.401 49.2553 312.303H43.4953C43.6093 311.379 43.9183 310.674 44.4223 310.188C44.9263 309.696 45.6133 309.45 46.4833 309.45ZM56.5186 318H58.1476V313.32L62.5666 318H64.8076L60.0106 313.14L64.3036 308.28H62.2246L58.1476 312.96V305.04H56.5276L56.5186 318ZM68.4664 318.27C70.0864 318.27 71.2864 317.676 72.0664 316.488V318H73.4884V311.988C73.4884 311.604 73.4704 311.238 73.4344 310.89C73.3984 310.536 73.3114 310.209 73.1734 309.909C72.8974 309.273 72.4414 308.799 71.8054 308.487C71.1694 308.169 70.4134 308.01 69.5374 308.01C68.4394 308.01 67.5514 308.253 66.8734 308.739C66.2014 309.225 65.7514 309.894 65.5234 310.746L67.0444 311.205C67.2184 310.611 67.5274 310.179 67.9714 309.909C68.4154 309.639 68.9314 309.504 69.5194 309.504C70.3594 309.504 70.9624 309.693 71.3284 310.071C71.7004 310.443 71.8954 311.016 71.9134 311.79C71.1934 311.892 70.4374 312 69.6454 312.114C68.8594 312.222 68.1604 312.357 67.5484 312.519C66.8104 312.735 66.2284 313.074 65.8024 313.536C65.3764 313.992 65.1634 314.604 65.1634 315.372C65.1634 315.894 65.2864 316.374 65.5324 316.812C65.7844 317.25 66.1534 317.604 66.6394 317.874C67.1314 318.138 67.7404 318.27 68.4664 318.27ZM68.7094 316.929C68.0194 316.929 67.5214 316.77 67.2154 316.452C66.9094 316.128 66.7564 315.765 66.7564 315.363C66.7564 314.907 66.9064 314.559 67.2064 314.319C67.5124 314.073 67.8664 313.887 68.2684 313.761C68.7424 313.629 69.2944 313.518 69.9244 313.428C70.5544 313.338 71.2114 313.248 71.8954 313.158C71.8954 313.38 71.8834 313.632 71.8594 313.914C71.8414 314.196 71.7994 314.454 71.7334 314.688C71.6194 315.288 71.3014 315.813 70.7794 316.263C70.2634 316.707 69.5734 316.929 68.7094 316.929ZM75.8284 318H77.4394V313.122C77.4394 312.546 77.5174 311.991 77.6734 311.457C77.8294 310.923 78.1444 310.488 78.6184 310.152C78.9544 309.906 79.3234 309.762 79.7254 309.72C80.1334 309.678 80.5054 309.699 80.8414 309.783V308.28C80.4094 308.184 79.9354 308.184 79.4194 308.28C78.9034 308.376 78.4594 308.574 78.0874 308.874C77.7634 309.102 77.4874 309.417 77.2594 309.819V308.28H75.8284V318ZM82.7232 306.561H84.3252V304.905H82.7232V306.561ZM82.7232 318H84.3252V308.28H82.7232V318ZM88.3756 322.32H89.9326L95.2246 308.28H93.5956L90.7516 315.93L87.7186 308.28H86.0356L89.9776 317.964L88.3756 322.32ZM100.572 318.27C101.514 318.27 102.363 318.036 103.119 317.568C103.875 317.094 104.445 316.428 104.829 315.57L103.29 315.039C102.732 316.179 101.802 316.749 100.5 316.749C99.6056 316.749 98.9036 316.476 98.3936 315.93C97.8896 315.378 97.6046 314.598 97.5386 313.59H104.991C105.039 312.438 104.889 311.445 104.541 310.611C104.199 309.777 103.683 309.135 102.993 308.685C102.309 308.235 101.478 308.01 100.5 308.01C99.5576 308.01 98.7356 308.223 98.0336 308.649C97.3316 309.069 96.7856 309.669 96.3956 310.449C96.0116 311.223 95.8196 312.141 95.8196 313.203C95.8196 314.217 96.0146 315.105 96.4046 315.867C96.8006 316.623 97.3556 317.214 98.0696 317.64C98.7836 318.06 99.6176 318.27 100.572 318.27ZM100.554 309.45C102.204 309.45 103.128 310.401 103.326 312.303H97.5656C97.6796 311.379 97.9886 310.674 98.4926 310.188C98.9966 309.696 99.6836 309.45 100.554 309.45ZM106.994 318H108.605V313.122C108.605 312.546 108.683 311.991 108.839 311.457C108.995 310.923 109.31 310.488 109.784 310.152C110.12 309.906 110.489 309.762 110.891 309.72C111.299 309.678 111.671 309.699 112.007 309.783V308.28C111.575 308.184 111.101 308.184 110.585 308.28C110.069 308.376 109.625 308.574 109.253 308.874C108.929 309.102 108.653 309.417 108.425 309.819V308.28H106.994V318ZM117.304 318H118.924V312.879C118.924 311.751 119.167 310.914 119.653 310.368C120.145 309.822 120.793 309.549 121.597 309.549C122.281 309.549 122.815 309.72 123.199 310.062C123.583 310.404 123.85 310.848 124 311.394C124.156 311.94 124.234 312.519 124.234 313.131V318H125.854V312.627C125.854 312.165 125.797 311.67 125.683 311.142C125.575 310.608 125.377 310.107 125.089 309.639C124.807 309.165 124.414 308.778 123.91 308.478C123.412 308.178 122.77 308.028 121.984 308.028C120.568 308.028 119.488 308.529 118.744 309.531V305.04H117.304V318ZM132.406 318.27C133.348 318.27 134.197 318.036 134.953 317.568C135.709 317.094 136.279 316.428 136.663 315.57L135.124 315.039C134.566 316.179 133.636 316.749 132.334 316.749C131.44 316.749 130.738 316.476 130.228 315.93C129.724 315.378 129.439 314.598 129.373 313.59H136.825C136.873 312.438 136.723 311.445 136.375 310.611C136.033 309.777 135.517 309.135 134.827 308.685C134.143 308.235 133.312 308.01 132.334 308.01C131.392 308.01 130.57 308.223 129.868 308.649C129.166 309.069 128.62 309.669 128.23 310.449C127.846 311.223 127.654 312.141 127.654 313.203C127.654 314.217 127.849 315.105 128.239 315.867C128.635 316.623 129.19 317.214 129.904 317.64C130.618 318.06 131.452 318.27 132.406 318.27ZM132.388 309.45C134.038 309.45 134.962 310.401 135.16 312.303H129.4C129.514 311.379 129.823 310.674 130.327 310.188C130.831 309.696 131.518 309.45 132.388 309.45ZM142.644 318.27C143.304 318.27 143.886 318.15 144.39 317.91C144.9 317.664 145.332 317.328 145.686 316.902V318H147.117V305.04H145.506V309.162C145.158 308.802 144.744 308.52 144.264 308.316C143.784 308.112 143.241 308.01 142.635 308.01C141.735 308.01 140.958 308.235 140.304 308.685C139.656 309.129 139.158 309.738 138.81 310.512C138.462 311.286 138.288 312.159 138.288 313.131C138.288 314.103 138.462 314.976 138.81 315.75C139.158 316.524 139.656 317.139 140.304 317.595C140.958 318.045 141.738 318.27 142.644 318.27ZM142.842 316.803C142.206 316.803 141.675 316.641 141.249 316.317C140.829 315.993 140.514 315.555 140.304 315.003C140.094 314.445 139.989 313.821 139.989 313.131C139.989 312.447 140.091 311.829 140.295 311.277C140.505 310.725 140.823 310.287 141.249 309.963C141.681 309.639 142.227 309.477 142.887 309.477C143.835 309.477 144.537 309.819 144.993 310.503C145.455 311.181 145.686 312.057 145.686 313.131C145.686 314.199 145.458 315.078 145.002 315.768C144.546 316.458 143.826 316.803 142.842 316.803ZM153.851 318.27C154.793 318.27 155.642 318.036 156.398 317.568C157.154 317.094 157.724 316.428 158.108 315.57L156.569 315.039C156.011 316.179 155.081 316.749 153.779 316.749C152.885 316.749 152.183 316.476 151.673 315.93C151.169 315.378 150.884 314.598 150.818 313.59H158.27C158.318 312.438 158.168 311.445 157.82 310.611C157.478 309.777 156.962 309.135 156.272 308.685C155.588 308.235 154.757 308.01 153.779 308.01C152.837 308.01 152.015 308.223 151.313 308.649C150.611 309.069 150.065 309.669 149.675 310.449C149.291 311.223 149.099 312.141 149.099 313.203C149.099 314.217 149.294 315.105 149.684 315.867C150.08 316.623 150.635 317.214 151.349 317.64C152.063 318.06 152.897 318.27 153.851 318.27ZM153.833 309.45C155.483 309.45 156.407 310.401 156.605 312.303H150.845C150.959 311.379 151.268 310.674 151.772 310.188C152.276 309.696 152.963 309.45 153.833 309.45ZM161.201 318H162.803V309.603H167.6V318H169.202V304.77H167.6V308.28H162.803V307.497C162.803 306.567 163.274 306.102 164.216 306.102H165.359V304.77H164.126C163.76 304.77 163.367 304.806 162.947 304.878C162.527 304.944 162.149 305.16 161.813 305.526C161.525 305.838 161.351 306.195 161.291 306.597C161.231 306.993 161.201 307.377 161.201 307.749V308.28H159.554V309.603H161.201V318ZM176.105 318.27C177.047 318.27 177.896 318.036 178.652 317.568C179.408 317.094 179.978 316.428 180.362 315.57L178.823 315.039C178.265 316.179 177.335 316.749 176.033 316.749C175.139 316.749 174.437 316.476 173.927 315.93C173.423 315.378 173.138 314.598 173.072 313.59H180.524C180.572 312.438 180.422 311.445 180.074 310.611C179.732 309.777 179.216 309.135 178.526 308.685C177.842 308.235 177.011 308.01 176.033 308.01C175.091 308.01 174.269 308.223 173.567 308.649C172.865 309.069 172.319 309.669 171.929 310.449C171.545 311.223 171.353 312.141 171.353 313.203C171.353 314.217 171.548 315.105 171.938 315.867C172.334 316.623 172.889 317.214 173.603 317.64C174.317 318.06 175.151 318.27 176.105 318.27ZM176.087 309.45C177.737 309.45 178.661 310.401 178.859 312.303H173.099C173.213 311.379 173.522 310.674 174.026 310.188C174.53 309.696 175.217 309.45 176.087 309.45ZM182.528 318H184.139V313.122C184.139 312.546 184.217 311.991 184.373 311.457C184.529 310.923 184.844 310.488 185.318 310.152C185.654 309.906 186.023 309.762 186.425 309.72C186.833 309.678 187.205 309.699 187.541 309.783V308.28C187.109 308.184 186.635 308.184 186.119 308.28C185.603 308.376 185.159 308.574 184.787 308.874C184.463 309.102 184.187 309.417 183.959 309.819V308.28H182.528V318ZM189.422 306.561H191.024V304.905H189.422V306.561ZM189.422 318H191.024V308.28H189.422V318ZM193.716 318H195.336V312.879C195.336 311.751 195.579 310.914 196.065 310.368C196.557 309.822 197.205 309.549 198.009 309.549C198.693 309.549 199.227 309.72 199.611 310.062C199.995 310.404 200.262 310.848 200.412 311.394C200.568 311.94 200.646 312.519 200.646 313.131V318H202.266V312.627C202.266 312.165 202.209 311.67 202.095 311.142C201.987 310.608 201.789 310.107 201.501 309.639C201.219 309.165 200.826 308.778 200.322 308.478C199.824 308.178 199.182 308.028 198.396 308.028C196.98 308.028 195.9 308.529 195.156 309.531V308.28H193.716V318ZM208.73 318.27C209.672 318.27 210.521 318.036 211.277 317.568C212.033 317.094 212.603 316.428 212.987 315.57L211.448 315.039C210.89 316.179 209.96 316.749 208.658 316.749C207.764 316.749 207.062 316.476 206.552 315.93C206.048 315.378 205.763 314.598 205.697 313.59H213.149C213.197 312.438 213.047 311.445 212.699 310.611C212.357 309.777 211.841 309.135 211.151 308.685C210.467 308.235 209.636 308.01 208.658 308.01C207.716 308.01 206.894 308.223 206.192 308.649C205.49 309.069 204.944 309.669 204.554 310.449C204.17 311.223 203.978 312.141 203.978 313.203C203.978 314.217 204.173 315.105 204.563 315.867C204.959 316.623 205.514 317.214 206.228 317.64C206.942 318.06 207.776 318.27 208.73 318.27ZM208.712 309.45C210.362 309.45 211.286 310.401 211.484 312.303H205.724C205.838 311.379 206.147 310.674 206.651 310.188C207.155 309.696 207.842 309.45 208.712 309.45ZM218.747 318H220.178V316.902C220.532 317.328 220.961 317.664 221.465 317.91C221.975 318.15 222.56 318.27 223.22 318.27C224.126 318.27 224.903 318.045 225.551 317.595C226.205 317.139 226.706 316.524 227.054 315.75C227.402 314.976 227.576 314.103 227.576 313.131C227.576 312.159 227.402 311.286 227.054 310.512C226.706 309.738 226.205 309.129 225.551 308.685C224.903 308.235 224.129 308.01 223.229 308.01C222.623 308.01 222.08 308.112 221.6 308.316C221.12 308.52 220.706 308.802 220.358 309.162V305.04H218.747V318ZM223.022 316.803C222.044 316.803 221.324 316.458 220.862 315.768C220.406 315.078 220.178 314.199 220.178 313.131C220.178 312.057 220.406 311.181 220.862 310.503C221.324 309.819 222.029 309.477 222.977 309.477C223.637 309.477 224.18 309.639 224.606 309.963C225.038 310.287 225.356 310.725 225.56 311.277C225.77 311.829 225.875 312.447 225.875 313.131C225.875 313.821 225.77 314.445 225.56 315.003C225.35 315.555 225.035 315.993 224.615 316.317C224.195 316.641 223.664 316.803 223.022 316.803ZM229.729 306.561H231.331V304.905H229.729V306.561ZM229.729 318H231.331V308.28H229.729V318ZM234.031 318H235.642V313.122C235.642 312.546 235.72 311.991 235.876 311.457C236.032 310.923 236.347 310.488 236.821 310.152C237.157 309.906 237.526 309.762 237.928 309.72C238.336 309.678 238.708 309.699 239.044 309.783V308.28C238.612 308.184 238.138 308.184 237.622 308.28C237.106 308.376 236.662 308.574 236.29 308.874C235.966 309.102 235.69 309.417 235.462 309.819V308.28H234.031V318ZM243.193 318.27C244.813 318.27 246.013 317.676 246.793 316.488V318H248.215V311.988C248.215 311.604 248.197 311.238 248.161 310.89C248.125 310.536 248.038 310.209 247.9 309.909C247.624 309.273 247.168 308.799 246.532 308.487C245.896 308.169 245.14 308.01 244.264 308.01C243.166 308.01 242.278 308.253 241.6 308.739C240.928 309.225 240.478 309.894 240.25 310.746L241.771 311.205C241.945 310.611 242.254 310.179 242.698 309.909C243.142 309.639 243.658 309.504 244.246 309.504C245.086 309.504 245.689 309.693 246.055 310.071C246.427 310.443 246.622 311.016 246.64 311.79C245.92 311.892 245.164 312 244.372 312.114C243.586 312.222 242.887 312.357 242.275 312.519C241.537 312.735 240.955 313.074 240.529 313.536C240.103 313.992 239.89 314.604 239.89 315.372C239.89 315.894 240.013 316.374 240.259 316.812C240.511 317.25 240.88 317.604 241.366 317.874C241.858 318.138 242.467 318.27 243.193 318.27ZM243.436 316.929C242.746 316.929 242.248 316.77 241.942 316.452C241.636 316.128 241.483 315.765 241.483 315.363C241.483 314.907 241.633 314.559 241.933 314.319C242.239 314.073 242.593 313.887 242.995 313.761C243.469 313.629 244.021 313.518 244.651 313.428C245.281 313.338 245.938 313.248 246.622 313.158C246.622 313.38 246.61 313.632 246.586 313.914C246.568 314.196 246.526 314.454 246.46 314.688C246.346 315.288 246.028 315.813 245.506 316.263C244.99 316.707 244.3 316.929 243.436 316.929ZM249.655 318H257.827V316.542H252.247L258.133 308.586V308.28H250.141V309.738H255.55L249.655 317.712V318ZM267.537 318.27C268.197 318.27 268.779 318.15 269.283 317.91C269.793 317.664 270.225 317.328 270.579 316.902V318H272.01V305.04H270.399V309.162C270.051 308.802 269.637 308.52 269.157 308.316C268.677 308.112 268.134 308.01 267.528 308.01C266.628 308.01 265.851 308.235 265.197 308.685C264.549 309.129 264.051 309.738 263.703 310.512C263.355 311.286 263.181 312.159 263.181 313.131C263.181 314.103 263.355 314.976 263.703 315.75C264.051 316.524 264.549 317.139 265.197 317.595C265.851 318.045 266.631 318.27 267.537 318.27ZM267.735 316.803C267.099 316.803 266.568 316.641 266.142 316.317C265.722 315.993 265.407 315.555 265.197 315.003C264.987 314.445 264.882 313.821 264.882 313.131C264.882 312.447 264.984 311.829 265.188 311.277C265.398 310.725 265.716 310.287 266.142 309.963C266.574 309.639 267.12 309.477 267.78 309.477C268.728 309.477 269.43 309.819 269.886 310.503C270.348 311.181 270.579 312.057 270.579 313.131C270.579 314.199 270.351 315.078 269.895 315.768C269.439 316.458 268.719 316.803 267.735 316.803ZM277.294 318.27C278.914 318.27 280.114 317.676 280.894 316.488V318H282.316V311.988C282.316 311.604 282.298 311.238 282.262 310.89C282.226 310.536 282.139 310.209 282.001 309.909C281.725 309.273 281.269 308.799 280.633 308.487C279.997 308.169 279.241 308.01 278.365 308.01C277.267 308.01 276.379 308.253 275.701 308.739C275.029 309.225 274.579 309.894 274.351 310.746L275.872 311.205C276.046 310.611 276.355 310.179 276.799 309.909C277.243 309.639 277.759 309.504 278.347 309.504C279.187 309.504 279.79 309.693 280.156 310.071C280.528 310.443 280.723 311.016 280.741 311.79C280.021 311.892 279.265 312 278.473 312.114C277.687 312.222 276.988 312.357 276.376 312.519C275.638 312.735 275.056 313.074 274.63 313.536C274.204 313.992 273.991 314.604 273.991 315.372C273.991 315.894 274.114 316.374 274.36 316.812C274.612 317.25 274.981 317.604 275.467 317.874C275.959 318.138 276.568 318.27 277.294 318.27ZM277.537 316.929C276.847 316.929 276.349 316.77 276.043 316.452C275.737 316.128 275.584 315.765 275.584 315.363C275.584 314.907 275.734 314.559 276.034 314.319C276.34 314.073 276.694 313.887 277.096 313.761C277.57 313.629 278.122 313.518 278.752 313.428C279.382 313.338 280.039 313.248 280.723 313.158C280.723 313.38 280.711 313.632 280.687 313.914C280.669 314.196 280.627 314.454 280.561 314.688C280.447 315.288 280.129 315.813 279.607 316.263C279.091 316.707 278.401 316.929 277.537 316.929ZM284.647 318H286.267V312.879C286.267 311.751 286.51 310.914 286.996 310.368C287.488 309.822 288.136 309.549 288.94 309.549C289.624 309.549 290.158 309.72 290.542 310.062C290.926 310.404 291.193 310.848 291.343 311.394C291.499 311.94 291.577 312.519 291.577 313.131V318H293.197V312.627C293.197 312.165 293.14 311.67 293.026 311.142C292.918 310.608 292.72 310.107 292.432 309.639C292.15 309.165 291.757 308.778 291.253 308.478C290.755 308.178 290.113 308.028 289.327 308.028C287.911 308.028 286.831 308.529 286.087 309.531V305.04H284.647V318ZM298.3 318.27C299.92 318.27 301.12 317.676 301.9 316.488V318H303.322V311.988C303.322 311.604 303.304 311.238 303.268 310.89C303.232 310.536 303.145 310.209 303.007 309.909C302.731 309.273 302.275 308.799 301.639 308.487C301.003 308.169 300.247 308.01 299.371 308.01C298.273 308.01 297.385 308.253 296.707 308.739C296.035 309.225 295.585 309.894 295.357 310.746L296.878 311.205C297.052 310.611 297.361 310.179 297.805 309.909C298.249 309.639 298.765 309.504 299.353 309.504C300.193 309.504 300.796 309.693 301.162 310.071C301.534 310.443 301.729 311.016 301.747 311.79C301.027 311.892 300.271 312 299.479 312.114C298.693 312.222 297.994 312.357 297.382 312.519C296.644 312.735 296.062 313.074 295.636 313.536C295.21 313.992 294.997 314.604 294.997 315.372C294.997 315.894 295.12 316.374 295.366 316.812C295.618 317.25 295.987 317.604 296.473 317.874C296.965 318.138 297.574 318.27 298.3 318.27ZM298.543 316.929C297.853 316.929 297.355 316.77 297.049 316.452C296.743 316.128 296.59 315.765 296.59 315.363C296.59 314.907 296.74 314.559 297.04 314.319C297.346 314.073 297.7 313.887 298.102 313.761C298.576 313.629 299.128 313.518 299.758 313.428C300.388 313.338 301.045 313.248 301.729 313.158C301.729 313.38 301.717 313.632 301.693 313.914C301.675 314.196 301.633 314.454 301.567 314.688C301.453 315.288 301.135 315.813 300.613 316.263C300.097 316.707 299.407 316.929 298.543 316.929ZM310.616 322.32H312.173L317.465 308.28H315.836L312.992 315.93L309.959 308.28H308.276L312.218 317.964L310.616 322.32ZM321.363 318.27C322.983 318.27 324.183 317.676 324.963 316.488V318H326.385V311.988C326.385 311.604 326.367 311.238 326.331 310.89C326.295 310.536 326.208 310.209 326.07 309.909C325.794 309.273 325.338 308.799 324.702 308.487C324.066 308.169 323.31 308.01 322.434 308.01C321.336 308.01 320.448 308.253 319.77 308.739C319.098 309.225 318.648 309.894 318.42 310.746L319.941 311.205C320.115 310.611 320.424 310.179 320.868 309.909C321.312 309.639 321.828 309.504 322.416 309.504C323.256 309.504 323.859 309.693 324.225 310.071C324.597 310.443 324.792 311.016 324.81 311.79C324.09 311.892 323.334 312 322.542 312.114C321.756 312.222 321.057 312.357 320.445 312.519C319.707 312.735 319.125 313.074 318.699 313.536C318.273 313.992 318.06 314.604 318.06 315.372C318.06 315.894 318.183 316.374 318.429 316.812C318.681 317.25 319.05 317.604 319.536 317.874C320.028 318.138 320.637 318.27 321.363 318.27ZM321.606 316.929C320.916 316.929 320.418 316.77 320.112 316.452C319.806 316.128 319.653 315.765 319.653 315.363C319.653 314.907 319.803 314.559 320.103 314.319C320.409 314.073 320.763 313.887 321.165 313.761C321.639 313.629 322.191 313.518 322.821 313.428C323.451 313.338 324.108 313.248 324.792 313.158C324.792 313.38 324.78 313.632 324.756 313.914C324.738 314.196 324.696 314.454 324.63 314.688C324.516 315.288 324.198 315.813 323.676 316.263C323.16 316.707 322.47 316.929 321.606 316.929ZM328.716 318H330.345V313.32L334.764 318H337.005L332.208 313.14L336.501 308.28H334.422L330.345 312.96V305.04H328.725L328.716 318ZM338.081 318H339.683V304.77H338.081V318ZM345.146 318.27C346.766 318.27 347.966 317.676 348.746 316.488V318H350.168V311.988C350.168 311.604 350.15 311.238 350.114 310.89C350.078 310.536 349.991 310.209 349.853 309.909C349.577 309.273 349.121 308.799 348.485 308.487C347.849 308.169 347.093 308.01 346.217 308.01C345.119 308.01 344.231 308.253 343.553 308.739C342.881 309.225 342.431 309.894 342.203 310.746L343.724 311.205C343.898 310.611 344.207 310.179 344.651 309.909C345.095 309.639 345.611 309.504 346.199 309.504C347.039 309.504 347.642 309.693 348.008 310.071C348.38 310.443 348.575 311.016 348.593 311.79C347.873 311.892 347.117 312 346.325 312.114C345.539 312.222 344.84 312.357 344.228 312.519C343.49 312.735 342.908 313.074 342.482 313.536C342.056 313.992 341.843 314.604 341.843 315.372C341.843 315.894 341.966 316.374 342.212 316.812C342.464 317.25 342.833 317.604 343.319 317.874C343.811 318.138 344.42 318.27 345.146 318.27ZM345.389 316.929C344.699 316.929 344.201 316.77 343.895 316.452C343.589 316.128 343.436 315.765 343.436 315.363C343.436 314.907 343.586 314.559 343.886 314.319C344.192 314.073 344.546 313.887 344.948 313.761C345.422 313.629 345.974 313.518 346.604 313.428C347.234 313.338 347.891 313.248 348.575 313.158C348.575 313.38 348.563 313.632 348.539 313.914C348.521 314.196 348.479 314.454 348.413 314.688C348.299 315.288 347.981 315.813 347.459 316.263C346.943 316.707 346.253 316.929 345.389 316.929ZM355.901 322.329C356.381 322.329 356.795 322.161 357.143 321.825C357.491 321.489 357.665 321.066 357.665 320.556C357.665 320.166 357.566 319.839 357.368 319.575C357.17 319.317 356.906 319.113 356.576 318.963L356.837 318.234C357.851 318.138 358.643 317.829 359.213 317.307C359.783 316.785 360.068 316.098 360.068 315.246C360.068 314.742 359.963 314.319 359.753 313.977C359.543 313.629 359.189 313.329 358.691 313.077C358.199 312.819 357.524 312.582 356.666 312.366C355.904 312.174 355.322 312.003 354.92 311.853C354.524 311.703 354.251 311.544 354.101 311.376C353.957 311.208 353.885 311.007 353.885 310.773C353.885 310.359 354.08 310.029 354.47 309.783C354.866 309.537 355.379 309.423 356.009 309.441C356.669 309.459 357.212 309.621 357.638 309.927C358.064 310.227 358.316 310.635 358.394 311.151L360.032 310.854C359.93 309.996 359.51 309.309 358.772 308.793C358.04 308.271 357.119 308.01 356.009 308.01C354.887 308.01 353.984 308.271 353.3 308.793C352.616 309.309 352.274 309.996 352.274 310.854C352.274 311.316 352.376 311.709 352.58 312.033C352.79 312.357 353.141 312.642 353.633 312.888C354.131 313.134 354.809 313.371 355.667 313.599C356.459 313.809 357.05 313.992 357.44 314.148C357.836 314.298 358.097 314.457 358.223 314.625C358.349 314.793 358.412 315.015 358.412 315.291C358.412 315.765 358.22 316.14 357.836 316.416C357.458 316.692 356.939 316.83 356.279 316.83C355.577 316.83 354.989 316.677 354.515 316.371C354.041 316.059 353.738 315.639 353.606 315.111L351.968 315.372C352.124 316.23 352.532 316.908 353.192 317.406C353.852 317.904 354.704 318.186 355.748 318.252L355.253 319.629C355.559 319.725 355.832 319.83 356.072 319.944C356.318 320.058 356.441 320.247 356.441 320.511C356.441 320.667 356.381 320.811 356.261 320.943C356.147 321.075 355.982 321.141 355.766 321.141C355.598 321.141 355.379 321.093 355.109 320.997L354.722 322.032C354.896 322.116 355.079 322.185 355.271 322.239C355.469 322.299 355.679 322.329 355.901 322.329ZM362.341 318H364.105V316.236H362.341V318Z" fill="#796F6F"/>
<path d="M46.988 265.36C48.716 265.36 50.196 264.984 51.428 264.232C52.668 263.472 53.616 262.416 54.272 261.064C54.936 259.712 55.268 258.144 55.268 256.36C55.268 254.568 54.936 253 54.272 251.656C53.616 250.304 52.668 249.252 51.428 248.5C50.196 247.74 48.716 247.36 46.988 247.36C45.268 247.36 43.788 247.74 42.548 248.5C41.316 249.252 40.368 250.304 39.704 251.656C39.048 253 38.72 254.568 38.72 256.36C38.72 258.144 39.048 259.712 39.704 261.064C40.368 262.416 41.316 263.472 42.548 264.232C43.788 264.984 45.268 265.36 46.988 265.36ZM46.988 262.636C45.252 262.612 43.948 262.032 43.076 260.896C42.204 259.76 41.772 258.248 41.78 256.36C41.788 255.096 41.984 253.992 42.368 253.048C42.752 252.104 43.328 251.372 44.096 250.852C44.864 250.324 45.828 250.068 46.988 250.084C48.732 250.108 50.036 250.688 50.9 251.824C51.772 252.96 52.208 254.472 52.208 256.36C52.208 257.616 52.012 258.72 51.62 259.672C51.236 260.616 50.656 261.348 49.88 261.868C49.112 262.388 48.148 262.644 46.988 262.636ZM57.6326 265H60.5606V258.34C60.5606 257.292 60.7086 256.484 61.0046 255.916C61.3086 255.34 61.6926 254.944 62.1566 254.728C62.6286 254.504 63.1086 254.392 63.5966 254.392C64.2846 254.392 64.8326 254.544 65.2406 254.848C65.6486 255.144 65.9486 255.524 66.1406 255.988C66.3406 256.444 66.4686 256.92 66.5246 257.416C66.5886 257.912 66.6206 258.36 66.6206 258.76V265H69.5486V257.764C69.5486 257.46 69.5206 257.056 69.4646 256.552C69.4166 256.048 69.3046 255.516 69.1286 254.956C68.9526 254.396 68.6806 253.868 68.3126 253.372C67.9446 252.868 67.4446 252.46 66.8126 252.148C66.1886 251.828 65.4006 251.668 64.4486 251.668C63.5126 251.668 62.6886 251.832 61.9766 252.16C61.2726 252.48 60.6846 252.92 60.2126 253.48V252.04H57.6326V265ZM72.92 265H75.812V247.36H72.92V265ZM79.6466 250.072H82.5386V247.42H79.6466V250.072ZM79.6466 265H82.5386V252.04H79.6466V265ZM86.1091 265H89.0371V258.34C89.0371 257.292 89.1851 256.484 89.4811 255.916C89.7851 255.34 90.1691 254.944 90.6331 254.728C91.1051 254.504 91.5851 254.392 92.0731 254.392C92.7611 254.392 93.3091 254.544 93.7171 254.848C94.1251 255.144 94.4251 255.524 94.6171 255.988C94.8171 256.444 94.9451 256.92 95.0011 257.416C95.0651 257.912 95.0971 258.36 95.0971 258.76V265H98.0251V257.764C98.0251 257.46 97.9971 257.056 97.9411 256.552C97.8931 256.048 97.7811 255.516 97.6051 254.956C97.4291 254.396 97.1571 253.868 96.7891 253.372C96.4211 252.868 95.9211 252.46 95.2891 252.148C94.6651 251.828 93.8771 251.668 92.9251 251.668C91.9891 251.668 91.1651 251.832 90.4531 252.16C89.7491 252.48 89.1611 252.92 88.6891 253.48V252.04H86.1091V265ZM106.838 265.36C108.086 265.36 109.226 265.04 110.258 264.4C111.298 263.752 112.066 262.84 112.562 261.664L109.706 260.8C109.13 262.032 108.118 262.648 106.67 262.648C105.686 262.648 104.91 262.364 104.342 261.796C103.774 261.22 103.434 260.396 103.322 259.324H112.706C112.818 257.764 112.646 256.412 112.19 255.268C111.734 254.124 111.034 253.24 110.09 252.616C109.154 251.992 108.014 251.68 106.67 251.68C105.398 251.68 104.278 251.968 103.31 252.544C102.342 253.112 101.586 253.92 101.042 254.968C100.498 256.016 100.226 257.248 100.226 258.664C100.226 259.976 100.502 261.136 101.054 262.144C101.614 263.152 102.39 263.94 103.382 264.508C104.374 265.076 105.526 265.36 106.838 265.36ZM106.79 254.212C107.686 254.212 108.374 254.448 108.854 254.92C109.342 255.384 109.65 256.124 109.778 257.14H103.394C103.738 255.188 104.87 254.212 106.79 254.212ZM120.188 265H123.08V258.964H127.184L130.112 265H133.388L130.196 258.448C131.18 258.008 131.912 257.34 132.392 256.444C132.872 255.548 133.112 254.516 133.112 253.348C133.112 251.916 132.752 250.696 132.032 249.688C131.32 248.672 130.212 248.048 128.708 247.816C128.484 247.776 128.24 247.752 127.976 247.744C127.712 247.728 127.496 247.72 127.328 247.72H120.188V265ZM123.08 256.264V250.432H127.208C127.368 250.432 127.548 250.44 127.748 250.456C127.948 250.472 128.132 250.5 128.3 250.54C128.78 250.66 129.156 250.876 129.428 251.188C129.708 251.492 129.904 251.836 130.016 252.22C130.136 252.604 130.196 252.98 130.196 253.348C130.196 253.716 130.136 254.092 130.016 254.476C129.904 254.86 129.708 255.204 129.428 255.508C129.156 255.812 128.78 256.024 128.3 256.144C128.132 256.192 127.948 256.224 127.748 256.24C127.548 256.256 127.368 256.264 127.208 256.264H123.08ZM141.756 265.36C143.052 265.36 144.184 265.072 145.152 264.496C146.12 263.912 146.872 263.108 147.408 262.084C147.952 261.052 148.224 259.864 148.224 258.52C148.224 257.184 147.956 256.004 147.42 254.98C146.884 253.948 146.132 253.14 145.164 252.556C144.196 251.972 143.06 251.68 141.756 251.68C140.484 251.68 139.364 251.968 138.396 252.544C137.428 253.12 136.672 253.92 136.128 254.944C135.584 255.968 135.312 257.16 135.312 258.52C135.312 259.856 135.576 261.04 136.104 262.072C136.64 263.096 137.392 263.9 138.36 264.484C139.328 265.068 140.46 265.36 141.756 265.36ZM141.756 262.648C140.644 262.648 139.8 262.276 139.224 261.532C138.656 260.78 138.372 259.776 138.372 258.52C138.372 257.296 138.644 256.304 139.188 255.544C139.74 254.776 140.596 254.392 141.756 254.392C142.892 254.392 143.744 254.768 144.312 255.52C144.88 256.264 145.164 257.264 145.164 258.52C145.164 259.736 144.88 260.728 144.312 261.496C143.752 262.264 142.9 262.648 141.756 262.648ZM149.199 265H160.275V262.468H153.723L160.563 252.448V252.04H149.895V254.572H156.063L149.199 264.604V265ZM168.127 265.36C169.375 265.36 170.515 265.04 171.547 264.4C172.587 263.752 173.355 262.84 173.851 261.664L170.995 260.8C170.419 262.032 169.407 262.648 167.959 262.648C166.975 262.648 166.199 262.364 165.631 261.796C165.063 261.22 164.723 260.396 164.611 259.324H173.995C174.107 257.764 173.935 256.412 173.479 255.268C173.023 254.124 172.323 253.24 171.379 252.616C170.443 251.992 169.303 251.68 167.959 251.68C166.687 251.68 165.567 251.968 164.599 252.544C163.631 253.112 162.875 253.92 162.331 254.968C161.787 256.016 161.515 257.248 161.515 258.664C161.515 259.976 161.791 261.136 162.343 262.144C162.903 263.152 163.679 263.94 164.671 264.508C165.663 265.076 166.815 265.36 168.127 265.36ZM168.079 254.212C168.975 254.212 169.663 254.448 170.143 254.92C170.631 255.384 170.939 256.124 171.067 257.14H164.683C165.027 255.188 166.159 254.212 168.079 254.212ZM184.268 265V262.576C183.46 262.696 182.74 262.728 182.108 262.672C181.476 262.616 181.016 262.348 180.728 261.868C180.576 261.62 180.492 261.3 180.476 260.908C180.468 260.508 180.464 260.052 180.464 259.54V254.308H184.268V252.04H180.464V248.44H177.584V252.04H175.232V254.308H177.584V259.708C177.584 260.452 177.592 261.116 177.608 261.7C177.624 262.276 177.78 262.844 178.076 263.404C178.412 264.02 178.904 264.472 179.552 264.76C180.2 265.04 180.932 265.188 181.748 265.204C182.572 265.228 183.412 265.16 184.268 265ZM187.295 265H190.187V247.36H187.295V265ZM199.674 265.36C200.922 265.36 202.062 265.04 203.094 264.4C204.134 263.752 204.902 262.84 205.398 261.664L202.542 260.8C201.966 262.032 200.954 262.648 199.506 262.648C198.522 262.648 197.746 262.364 197.178 261.796C196.61 261.22 196.27 260.396 196.158 259.324H205.542C205.654 257.764 205.482 256.412 205.026 255.268C204.57 254.124 203.87 253.24 202.926 252.616C201.99 251.992 200.85 251.68 199.506 251.68C198.234 251.68 197.114 251.968 196.146 252.544C195.178 253.112 194.422 253.92 193.878 254.968C193.334 256.016 193.062 257.248 193.062 258.664C193.062 259.976 193.338 261.136 193.89 262.144C194.45 263.152 195.226 263.94 196.218 264.508C197.21 265.076 198.362 265.36 199.674 265.36ZM199.626 254.212C200.522 254.212 201.21 254.448 201.69 254.92C202.178 255.384 202.486 256.124 202.614 257.14H196.23C196.574 255.188 197.706 254.212 199.626 254.212ZM208.219 265H211.123V258.412C211.123 257.66 211.259 256.992 211.531 256.408C211.811 255.824 212.247 255.372 212.839 255.052C213.239 254.82 213.687 254.684 214.183 254.644C214.679 254.596 215.123 254.628 215.515 254.74V252.04C214.931 251.952 214.331 251.964 213.715 252.076C213.099 252.18 212.551 252.396 212.071 252.724C211.799 252.892 211.555 253.096 211.339 253.336C211.123 253.568 210.935 253.828 210.775 254.116V252.04H208.219V265ZM226.114 265H229.018L233.722 252.04H230.818L227.566 261.436L224.302 252.04H221.41L226.114 265ZM241.299 265.36C242.547 265.36 243.687 265.04 244.719 264.4C245.759 263.752 246.527 262.84 247.023 261.664L244.167 260.8C243.591 262.032 242.579 262.648 241.131 262.648C240.147 262.648 239.371 262.364 238.803 261.796C238.235 261.22 237.895 260.396 237.783 259.324H247.167C247.279 257.764 247.107 256.412 246.651 255.268C246.195 254.124 245.495 253.24 244.551 252.616C243.615 251.992 242.475 251.68 241.131 251.68C239.859 251.68 238.739 251.968 237.771 252.544C236.803 253.112 236.047 253.92 235.503 254.968C234.959 256.016 234.687 257.248 234.687 258.664C234.687 259.976 234.963 261.136 235.515 262.144C236.075 263.152 236.851 263.94 237.843 264.508C238.835 265.076 239.987 265.36 241.299 265.36ZM241.251 254.212C242.147 254.212 242.835 254.448 243.315 254.92C243.803 255.384 244.111 256.124 244.239 257.14H237.855C238.199 255.188 239.331 254.212 241.251 254.212ZM261.045 265.36C262.229 265.36 263.337 265.16 264.369 264.76C265.401 264.36 266.233 263.76 266.865 262.96C267.505 262.16 267.825 261.164 267.825 259.972C267.825 259.116 267.665 258.408 267.345 257.848C267.033 257.28 266.629 256.824 266.133 256.48C265.645 256.136 265.137 255.868 264.609 255.676C264.089 255.484 263.617 255.332 263.193 255.22L260.097 254.356C259.713 254.252 259.329 254.124 258.945 253.972C258.561 253.812 258.241 253.6 257.985 253.336C257.729 253.064 257.601 252.716 257.601 252.292C257.601 251.844 257.749 251.452 258.045 251.116C258.349 250.78 258.745 250.52 259.233 250.336C259.729 250.152 260.265 250.068 260.841 250.084C261.729 250.108 262.529 250.368 263.241 250.864C263.953 251.36 264.401 252.064 264.585 252.976L267.693 252.436C267.309 250.836 266.521 249.6 265.329 248.728C264.137 247.848 262.653 247.4 260.877 247.384C259.709 247.376 258.645 247.564 257.685 247.948C256.733 248.324 255.973 248.888 255.405 249.64C254.845 250.392 254.565 251.324 254.565 252.436C254.565 253.196 254.689 253.836 254.937 254.356C255.193 254.868 255.517 255.288 255.909 255.616C256.309 255.944 256.729 256.204 257.169 256.396C257.617 256.588 258.033 256.74 258.417 256.852L262.881 258.172C264.161 258.556 264.801 259.22 264.801 260.164C264.801 260.692 264.629 261.144 264.285 261.52C263.949 261.888 263.509 262.168 262.965 262.36C262.421 262.552 261.841 262.648 261.225 262.648C260.185 262.648 259.265 262.368 258.465 261.808C257.673 261.248 257.149 260.456 256.893 259.432L253.893 259.888C254.077 261.016 254.493 261.992 255.141 262.816C255.797 263.632 256.629 264.26 257.637 264.7C258.653 265.14 259.789 265.36 261.045 265.36ZM276.314 265.36C277.562 265.36 278.702 265.04 279.734 264.4C280.774 263.752 281.542 262.84 282.038 261.664L279.182 260.8C278.606 262.032 277.594 262.648 276.146 262.648C275.162 262.648 274.386 262.364 273.818 261.796C273.25 261.22 272.91 260.396 272.798 259.324H282.182C282.294 257.764 282.122 256.412 281.666 255.268C281.21 254.124 280.51 253.24 279.566 252.616C278.63 251.992 277.49 251.68 276.146 251.68C274.874 251.68 273.754 251.968 272.786 252.544C271.818 253.112 271.062 253.92 270.518 254.968C269.974 256.016 269.702 257.248 269.702 258.664C269.702 259.976 269.978 261.136 270.53 262.144C271.09 263.152 271.866 263.94 272.858 264.508C273.85 265.076 275.002 265.36 276.314 265.36ZM276.266 254.212C277.162 254.212 277.85 254.448 278.33 254.92C278.818 255.384 279.126 256.124 279.254 257.14H272.87C273.214 255.188 274.346 254.212 276.266 254.212ZM284.86 265H287.764V258.412C287.764 257.66 287.9 256.992 288.172 256.408C288.452 255.824 288.888 255.372 289.48 255.052C289.88 254.82 290.328 254.684 290.824 254.644C291.32 254.596 291.764 254.628 292.156 254.74V252.04C291.572 251.952 290.972 251.964 290.356 252.076C289.74 252.18 289.192 252.396 288.712 252.724C288.44 252.892 288.196 253.096 287.98 253.336C287.764 253.568 287.576 253.828 287.416 254.116V252.04H284.86V265ZM302.042 265V262.576C301.234 262.696 300.514 262.728 299.882 262.672C299.25 262.616 298.79 262.348 298.502 261.868C298.35 261.62 298.266 261.3 298.25 260.908C298.242 260.508 298.238 260.052 298.238 259.54V254.308H302.042V252.04H298.238V248.44H295.358V252.04H293.006V254.308H295.358V259.708C295.358 260.452 295.366 261.116 295.382 261.7C295.398 262.276 295.554 262.844 295.85 263.404C296.186 264.02 296.678 264.472 297.326 264.76C297.974 265.04 298.706 265.188 299.522 265.204C300.346 265.228 301.186 265.16 302.042 265ZM305.068 250.072H307.96V247.42H305.068V250.072ZM305.068 265H307.96V252.04H305.068V265ZM312.683 265H315.575V254.308H318.707V252.04H315.575V251.212C315.575 250.764 315.707 250.404 315.971 250.132C316.243 249.852 316.655 249.712 317.207 249.712H318.707V247.36H317.087C316.775 247.36 316.411 247.372 315.995 247.396C315.579 247.412 315.155 247.5 314.723 247.66C314.299 247.812 313.903 248.092 313.535 248.5C313.095 248.98 312.843 249.532 312.779 250.156C312.715 250.78 312.683 251.34 312.683 251.836V252.04H310.595V254.308H312.683V265ZM321.227 250.072H324.119V247.42H321.227V250.072ZM321.227 265H324.119V252.04H321.227V265ZM327.703 265H330.655V258.76L335.611 265H339.439L333.979 258.52L339.007 252.04H335.395L330.655 258.28V247.72H327.727L327.703 265ZM344.265 265.36C345.297 265.36 346.173 265.192 346.893 264.856C347.621 264.512 348.261 263.98 348.813 263.26V265H351.345V257.044C351.345 256.484 351.321 255.968 351.273 255.496C351.225 255.016 351.085 254.548 350.853 254.092C350.429 253.236 349.777 252.62 348.897 252.244C348.025 251.868 347.013 251.68 345.861 251.68C344.341 251.68 343.129 252.012 342.225 252.676C341.321 253.34 340.709 254.22 340.389 255.316L343.029 256.144C343.245 255.48 343.625 255.012 344.169 254.74C344.713 254.468 345.277 254.332 345.861 254.332C346.741 254.332 347.389 254.512 347.805 254.872C348.221 255.224 348.457 255.772 348.513 256.516C347.377 256.684 346.321 256.848 345.345 257.008C344.377 257.16 343.553 257.348 342.873 257.572C341.849 257.924 341.101 258.424 340.629 259.072C340.157 259.712 339.921 260.504 339.921 261.448C339.921 262.16 340.085 262.812 340.413 263.404C340.749 263.996 341.241 264.472 341.889 264.832C342.537 265.184 343.329 265.36 344.265 265.36ZM344.841 263.056C344.161 263.056 343.641 262.9 343.281 262.588C342.929 262.276 342.753 261.884 342.753 261.412C342.753 260.988 342.889 260.644 343.161 260.38C343.441 260.116 343.829 259.892 344.325 259.708C344.781 259.556 345.329 259.424 345.969 259.312C346.609 259.192 347.445 259.052 348.477 258.892C348.469 259.196 348.449 259.536 348.417 259.912C348.385 260.28 348.309 260.612 348.189 260.908C348.093 261.204 347.905 261.52 347.625 261.856C347.353 262.192 346.985 262.476 346.521 262.708C346.057 262.94 345.497 263.056 344.841 263.056Z" fill="#5A47AB"/>
<defs>
<linearGradient id="paint0_linear_23_248" x1="115.073" y1="20.8259" x2="243.707" y2="200.988" gradientUnits="userSpaceOnUse">
<stop stop-color="#FCEE21"/>
<stop offset="1" stop-color="#00A99D"/>
</linearGradient>
<linearGradient id="paint1_linear_23_248" x1="119.392" y1="26.879" x2="241.019" y2="197.228" gradientUnits="userSpaceOnUse">
<stop stop-color="#E48EE6"/>
<stop offset="1" stop-color="#00A99D"/>
</linearGradient>
<linearGradient id="paint2_linear_23_248" x1="184.323" y1="91.8174" x2="184.323" y2="154.697" gradientUnits="userSpaceOnUse">
<stop stop-color="#56548C"/>
<stop offset="1" stop-color="#444477"/>
</linearGradient>
<linearGradient id="paint3_linear_23_248" x1="204.09" y1="92.041" x2="204.09" y2="154.695" gradientUnits="userSpaceOnUse">
<stop stop-color="#444477"/>
<stop offset="0.37792" stop-color="#444477"/>
<stop offset="1" stop-color="#2F2F68"/>
</linearGradient>
<linearGradient id="paint4_linear_23_248" x1="147.394" y1="95.4191" x2="147.394" y2="141.622" gradientUnits="userSpaceOnUse">
<stop stop-color="#444477"/>
<stop offset="0.37792" stop-color="#444477"/>
<stop offset="1" stop-color="#2F2F68"/>
</linearGradient>
</defs>
</svg>
