<svg width="404" height="374" viewBox="0 0 404 374" fill="none" xmlns="http://www.w3.org/2000/svg">
<path d="M311.422 109.393C309.458 121.143 301.552 129.572 294.575 137.005C290.841 140.985 287.311 144.749 284.777 148.772C279.056 157.861 276.882 165.966 274.781 173.807C271.389 186.481 267.877 199.587 250.136 213.69C232.269 227.889 215.26 233.214 198.138 229.966C181.345 226.784 166.828 215.449 156.064 205.933C149.033 199.725 140.334 195.385 131.124 190.798C123.115 186.805 114.836 182.681 107.325 177.085C88.0715 162.73 81.1612 148.754 84.2351 130.352C85.4178 123.256 87.9694 115.962 90.6711 108.241C93.0546 101.415 95.5221 94.3602 97.4613 86.4533C97.6474 85.6908 97.8155 84.8803 97.9536 84.0518C98.626 80.0293 98.644 75.7906 98.668 71.3119C98.692 66.5269 98.7161 61.5858 99.5566 56.5607C100.559 50.545 102.606 45.3698 105.806 40.753C115.695 26.4762 126.988 25.1673 137.902 23.9006C142.351 23.3842 146.944 22.8499 151.717 21.427C157.805 19.6079 163.418 16.3299 169.368 12.8597C178.457 7.55243 187.859 2.06502 199.681 1.51869C222.435 0.468036 235.072 15.4053 242.601 26.7283C245.021 30.3605 246.924 33.9388 248.767 37.3969C252.597 44.5893 255.905 50.7972 262.575 54.8737C264.569 56.0925 267.985 56.7409 271.287 57.3653C275.249 58.1157 279.35 58.8962 283.036 60.8114C296.388 67.7397 310.455 82.8931 311.8 101.126C311.992 103.936 311.866 106.716 311.422 109.393Z" stroke="url(#paint0_linear_23_276)" stroke-miterlimit="10" stroke-dasharray="25 25"/>
<path d="M246.401 208.989C273.178 187.706 263.998 170.499 279.692 145.572C288.631 131.367 307.261 121.545 305.796 101.565C304.691 86.5373 293.236 72.8728 280.256 66.1366C274.192 62.9907 265.049 63.423 259.435 59.9948C247.854 52.9165 245.026 41.2332 237.594 30.0483C229.02 17.1583 218.016 6.68182 199.95 7.51634C182.33 8.32684 169.842 22.2855 153.428 27.1845C136.245 32.3117 122.773 26.8003 110.729 44.175C101.153 57.9956 106.809 73.5212 103.285 87.8881C94.2851 124.613 73.8845 144.677 110.909 172.276C126.399 183.821 146.001 189.039 160.032 201.442C184.989 223.488 210.877 237.224 246.401 208.989Z" fill="url(#paint1_linear_23_276)"/>
<path d="M218.767 57.7705L229.77 64.1651C222.77 60.0974 213.075 60.6713 202.377 66.8483L191.372 60.4537C202.073 54.2767 211.767 53.7029 218.767 57.7705Z" fill="#5744A8"/>
<path d="M175.233 158.006L164.23 151.61C157.319 147.595 153.034 139.055 153 126.918C152.931 102.485 170.111 72.7299 191.372 60.4537L202.377 66.8483C181.114 79.1244 163.935 108.88 164.004 133.312C164.038 145.451 168.324 153.99 175.233 158.006Z" fill="#5744A8"/>
<path d="M202.377 66.8481C223.639 54.572 240.93 64.4254 241 88.8582C241.069 113.291 223.891 143.047 202.628 155.322C181.364 167.598 164.072 157.745 164.004 133.312C163.935 108.879 181.114 79.1243 202.377 66.8481Z" fill="url(#paint2_linear_23_276)"/>
<path d="M201.321 99.4163C201.851 99.1096 202.397 98.9338 202.92 98.9338L231.631 98.8097C234.278 98.7951 234.29 103.128 231.652 106.164L203.035 139.136C202.513 139.737 201.972 140.188 201.443 140.493C199.566 141.577 197.858 140.829 197.85 138.441L197.757 105.592C197.752 103.216 199.445 100.499 201.321 99.4163Z" fill="#E0AD3B"/>
<path d="M31.469 293H33.071V286.664L39.146 293H41.216L34.871 286.331L40.757 280.04H38.741L33.071 286.124V280.04H31.469V293ZM45.2359 293.27C46.8559 293.27 48.0559 292.676 48.8359 291.488V293H50.2579V286.988C50.2579 286.604 50.2399 286.238 50.2039 285.89C50.1679 285.536 50.0809 285.209 49.9429 284.909C49.6669 284.273 49.2109 283.799 48.5749 283.487C47.9389 283.169 47.1829 283.01 46.3069 283.01C45.2089 283.01 44.3209 283.253 43.6429 283.739C42.9709 284.225 42.5209 284.894 42.2929 285.746L43.8139 286.205C43.9879 285.611 44.2969 285.179 44.7409 284.909C45.1849 284.639 45.7009 284.504 46.2889 284.504C47.1289 284.504 47.7319 284.693 48.0979 285.071C48.4699 285.443 48.6649 286.016 48.6829 286.79C47.9629 286.892 47.2069 287 46.4149 287.114C45.6289 287.222 44.9299 287.357 44.3179 287.519C43.5799 287.735 42.9979 288.074 42.5719 288.536C42.1459 288.992 41.9329 289.604 41.9329 290.372C41.9329 290.894 42.0559 291.374 42.3019 291.812C42.5539 292.25 42.9229 292.604 43.4089 292.874C43.9009 293.138 44.5099 293.27 45.2359 293.27ZM45.4789 291.929C44.7889 291.929 44.2909 291.77 43.9849 291.452C43.6789 291.128 43.5259 290.765 43.5259 290.363C43.5259 289.907 43.6759 289.559 43.9759 289.319C44.2819 289.073 44.6359 288.887 45.0379 288.761C45.5119 288.629 46.0639 288.518 46.6939 288.428C47.3239 288.338 47.9809 288.248 48.6649 288.158C48.6649 288.38 48.6529 288.632 48.6289 288.914C48.6109 289.196 48.5689 289.454 48.5029 289.688C48.3889 290.288 48.0709 290.813 47.5489 291.263C47.0329 291.707 46.3429 291.929 45.4789 291.929ZM52.5889 293H54.1999V286.826C54.1999 286.112 54.3919 285.539 54.7759 285.107C55.1659 284.675 55.6789 284.459 56.3149 284.459C56.9509 284.459 57.4609 284.672 57.8449 285.098C58.2289 285.524 58.4209 286.106 58.4209 286.844L58.4119 293H60.0049L60.0139 286.826C60.0139 286.28 60.1159 285.833 60.3199 285.485C60.5239 285.137 60.7879 284.879 61.1119 284.711C61.4359 284.543 61.7779 284.459 62.1379 284.459C62.7499 284.459 63.2509 284.666 63.6409 285.08C64.0309 285.488 64.2259 286.055 64.2259 286.781L64.2169 293H65.8189L65.8279 286.43C65.8279 285.392 65.5369 284.567 64.9549 283.955C64.3729 283.337 63.5749 283.028 62.5609 283.028C61.9189 283.028 61.3399 283.172 60.8239 283.46C60.3079 283.742 59.9059 284.132 59.6179 284.63C59.3539 284.12 58.9789 283.727 58.4929 283.451C58.0069 283.169 57.4369 283.028 56.7829 283.028C56.2009 283.028 55.6699 283.145 55.1899 283.379C54.7159 283.607 54.3259 283.919 54.0199 284.315V283.28H52.5889V293ZM68.1631 297.32H69.7741V292.1C70.1221 292.466 70.5331 292.754 71.0071 292.964C71.4871 293.168 72.0301 293.27 72.6361 293.27C73.5421 293.27 74.3191 293.045 74.9671 292.595C75.6211 292.139 76.1221 291.524 76.4701 290.75C76.8181 289.976 76.9921 289.103 76.9921 288.131C76.9921 287.159 76.8181 286.286 76.4701 285.512C76.1221 284.738 75.6211 284.129 74.9671 283.685C74.3191 283.235 73.5451 283.01 72.6451 283.01C71.9851 283.01 71.4001 283.13 70.8901 283.37C70.3801 283.61 69.9481 283.943 69.5941 284.369V283.28H68.1631V297.32ZM72.4381 291.803C71.4601 291.803 70.7401 291.458 70.2781 290.768C69.8221 290.078 69.5941 289.199 69.5941 288.131C69.5941 287.057 69.8221 286.181 70.2781 285.503C70.7401 284.819 71.4451 284.477 72.3931 284.477C73.0531 284.477 73.5961 284.639 74.0221 284.963C74.4541 285.287 74.7721 285.725 74.9761 286.277C75.1861 286.829 75.2911 287.447 75.2911 288.131C75.2911 288.821 75.1861 289.445 74.9761 290.003C74.7661 290.555 74.4511 290.993 74.0311 291.317C73.6111 291.641 73.0801 291.803 72.4381 291.803ZM84.3921 293V291.623C83.7261 291.725 83.1561 291.743 82.6821 291.677C82.2141 291.611 81.8721 291.386 81.6561 291.002C81.5421 290.798 81.4791 290.558 81.4671 290.282C81.4611 290 81.4581 289.658 81.4581 289.256V284.603H84.3921V283.28H81.4581V280.58H79.8561V283.28H77.8851V284.603H79.8561V289.328C79.8561 289.832 79.8621 290.282 79.8741 290.678C79.8921 291.068 79.9971 291.452 80.1891 291.83C80.4171 292.268 80.7501 292.592 81.1881 292.802C81.6261 293.006 82.1241 293.117 82.6821 293.135C83.2461 293.159 83.8161 293.114 84.3921 293ZM89.1285 293.27C90.7485 293.27 91.9485 292.676 92.7285 291.488V293H94.1505V286.988C94.1505 286.604 94.1325 286.238 94.0965 285.89C94.0605 285.536 93.9735 285.209 93.8355 284.909C93.5595 284.273 93.1035 283.799 92.4675 283.487C91.8315 283.169 91.0755 283.01 90.1995 283.01C89.1015 283.01 88.2135 283.253 87.5355 283.739C86.8635 284.225 86.4135 284.894 86.1855 285.746L87.7065 286.205C87.8805 285.611 88.1895 285.179 88.6335 284.909C89.0775 284.639 89.5935 284.504 90.1815 284.504C91.0215 284.504 91.6245 284.693 91.9905 285.071C92.3625 285.443 92.5575 286.016 92.5755 286.79C91.8555 286.892 91.0995 287 90.3075 287.114C89.5215 287.222 88.8225 287.357 88.2105 287.519C87.4725 287.735 86.8905 288.074 86.4645 288.536C86.0385 288.992 85.8255 289.604 85.8255 290.372C85.8255 290.894 85.9485 291.374 86.1945 291.812C86.4465 292.25 86.8155 292.604 87.3015 292.874C87.7935 293.138 88.4025 293.27 89.1285 293.27ZM89.3715 291.929C88.6815 291.929 88.1835 291.77 87.8775 291.452C87.5715 291.128 87.4185 290.765 87.4185 290.363C87.4185 289.907 87.5685 289.559 87.8685 289.319C88.1745 289.073 88.5285 288.887 88.9305 288.761C89.4045 288.629 89.9565 288.518 90.5865 288.428C91.2165 288.338 91.8735 288.248 92.5575 288.158C92.5575 288.38 92.5455 288.632 92.5215 288.914C92.5035 289.196 92.4615 289.454 92.3955 289.688C92.2815 290.288 91.9635 290.813 91.4415 291.263C90.9255 291.707 90.2355 291.929 89.3715 291.929ZM96.4815 293H98.1105V288.32L102.529 293H104.77L99.9735 288.14L104.266 283.28H102.187L98.1105 287.96V280.04H96.4905L96.4815 293ZM105.846 281.561H107.448V279.905H105.846V281.561ZM105.846 293H107.448V283.28H105.846V293ZM116.515 293.27C118.135 293.27 119.335 292.676 120.115 291.488V293H121.537V286.988C121.537 286.604 121.519 286.238 121.483 285.89C121.447 285.536 121.36 285.209 121.222 284.909C120.946 284.273 120.49 283.799 119.854 283.487C119.218 283.169 118.462 283.01 117.586 283.01C116.488 283.01 115.6 283.253 114.922 283.739C114.25 284.225 113.8 284.894 113.572 285.746L115.093 286.205C115.267 285.611 115.576 285.179 116.02 284.909C116.464 284.639 116.98 284.504 117.568 284.504C118.408 284.504 119.011 284.693 119.377 285.071C119.749 285.443 119.944 286.016 119.962 286.79C119.242 286.892 118.486 287 117.694 287.114C116.908 287.222 116.209 287.357 115.597 287.519C114.859 287.735 114.277 288.074 113.851 288.536C113.425 288.992 113.212 289.604 113.212 290.372C113.212 290.894 113.335 291.374 113.581 291.812C113.833 292.25 114.202 292.604 114.688 292.874C115.18 293.138 115.789 293.27 116.515 293.27ZM116.758 291.929C116.068 291.929 115.57 291.77 115.264 291.452C114.958 291.128 114.805 290.765 114.805 290.363C114.805 289.907 114.955 289.559 115.255 289.319C115.561 289.073 115.915 288.887 116.317 288.761C116.791 288.629 117.343 288.518 117.973 288.428C118.603 288.338 119.26 288.248 119.944 288.158C119.944 288.38 119.932 288.632 119.908 288.914C119.89 289.196 119.848 289.454 119.782 289.688C119.668 290.288 119.35 290.813 118.828 291.263C118.312 291.707 117.622 291.929 116.758 291.929ZM123.868 293H125.497V288.32L129.916 293H132.157L127.36 288.14L131.653 283.28H129.574L125.497 287.96V280.04H123.877L123.868 293ZM138.48 293V291.623C137.814 291.725 137.244 291.743 136.77 291.677C136.302 291.611 135.96 291.386 135.744 291.002C135.63 290.798 135.567 290.558 135.555 290.282C135.549 290 135.546 289.658 135.546 289.256V284.603H138.48V283.28H135.546V280.58H133.944V283.28H131.973V284.603H133.944V289.328C133.944 289.832 133.95 290.282 133.962 290.678C133.98 291.068 134.085 291.452 134.277 291.83C134.505 292.268 134.838 292.592 135.276 292.802C135.714 293.006 136.212 293.117 136.77 293.135C137.334 293.159 137.904 293.114 138.48 293ZM140.633 281.561H142.235V279.905H140.633V281.561ZM140.633 293H142.235V283.28H140.633V293ZM147.564 293H149.202L152.73 283.28H151.101L148.383 290.957L145.656 283.28H144.036L147.564 293ZM154.538 281.561H156.14V279.905H154.538V281.561ZM154.538 293H156.14V283.28H154.538V293ZM164.267 293V291.623C163.601 291.725 163.031 291.743 162.557 291.677C162.089 291.611 161.747 291.386 161.531 291.002C161.417 290.798 161.354 290.558 161.342 290.282C161.336 290 161.333 289.658 161.333 289.256V284.603H164.267V283.28H161.333V280.58H159.731V283.28H157.76V284.603H159.731V289.328C159.731 289.832 159.737 290.282 159.749 290.678C159.767 291.068 159.872 291.452 160.064 291.83C160.292 292.268 160.625 292.592 161.063 292.802C161.501 293.006 161.999 293.117 162.557 293.135C163.121 293.159 163.691 293.114 164.267 293ZM170.048 293.27C170.99 293.27 171.839 293.036 172.595 292.568C173.351 292.094 173.921 291.428 174.305 290.57L172.766 290.039C172.208 291.179 171.278 291.749 169.976 291.749C169.082 291.749 168.38 291.476 167.87 290.93C167.366 290.378 167.081 289.598 167.015 288.59H174.467C174.515 287.438 174.365 286.445 174.017 285.611C173.675 284.777 173.159 284.135 172.469 283.685C171.785 283.235 170.954 283.01 169.976 283.01C169.034 283.01 168.212 283.223 167.51 283.649C166.808 284.069 166.262 284.669 165.872 285.449C165.488 286.223 165.296 287.141 165.296 288.203C165.296 289.217 165.491 290.105 165.881 290.867C166.277 291.623 166.832 292.214 167.546 292.64C168.26 293.06 169.094 293.27 170.048 293.27ZM170.03 284.45C171.68 284.45 172.604 285.401 172.802 287.303H167.042C167.156 286.379 167.465 285.674 167.969 285.188C168.473 284.696 169.16 284.45 170.03 284.45ZM176.651 293H178.253V279.77H176.651V293ZM185.165 293.27C186.107 293.27 186.956 293.036 187.712 292.568C188.468 292.094 189.038 291.428 189.422 290.57L187.883 290.039C187.325 291.179 186.395 291.749 185.093 291.749C184.199 291.749 183.497 291.476 182.987 290.93C182.483 290.378 182.198 289.598 182.132 288.59H189.584C189.632 287.438 189.482 286.445 189.134 285.611C188.792 284.777 188.276 284.135 187.586 283.685C186.902 283.235 186.071 283.01 185.093 283.01C184.151 283.01 183.329 283.223 182.627 283.649C181.925 284.069 181.379 284.669 180.989 285.449C180.605 286.223 180.413 287.141 180.413 288.203C180.413 289.217 180.608 290.105 180.998 290.867C181.394 291.623 181.949 292.214 182.663 292.64C183.377 293.06 184.211 293.27 185.165 293.27ZM185.147 284.45C186.797 284.45 187.721 285.401 187.919 287.303H182.159C182.273 286.379 182.582 285.674 183.086 285.188C183.59 284.696 184.277 284.45 185.147 284.45ZM191.588 293H193.199V288.122C193.199 287.546 193.277 286.991 193.433 286.457C193.589 285.923 193.904 285.488 194.378 285.152C194.714 284.906 195.083 284.762 195.485 284.72C195.893 284.678 196.265 284.699 196.601 284.783V283.28C196.169 283.184 195.695 283.184 195.179 283.28C194.663 283.376 194.219 283.574 193.847 283.874C193.523 284.102 193.247 284.417 193.019 284.819V283.28H191.588V293ZM198.483 281.561H200.085V279.905H198.483V281.561ZM198.483 293H200.085V283.28H198.483V293ZM211.816 293V291.623C211.15 291.725 210.58 291.743 210.106 291.677C209.638 291.611 209.296 291.386 209.08 291.002C208.966 290.798 208.903 290.558 208.891 290.282C208.885 290 208.882 289.658 208.882 289.256V284.603H211.816V283.28H208.882V280.58H207.28V283.28H205.309V284.603H207.28V289.328C207.28 289.832 207.286 290.282 207.298 290.678C207.316 291.068 207.421 291.452 207.613 291.83C207.841 292.268 208.174 292.592 208.612 292.802C209.05 293.006 209.548 293.117 210.106 293.135C210.67 293.159 211.24 293.114 211.816 293ZM216.552 293.27C218.172 293.27 219.372 292.676 220.152 291.488V293H221.574V286.988C221.574 286.604 221.556 286.238 221.52 285.89C221.484 285.536 221.397 285.209 221.259 284.909C220.983 284.273 220.527 283.799 219.891 283.487C219.255 283.169 218.499 283.01 217.623 283.01C216.525 283.01 215.637 283.253 214.959 283.739C214.287 284.225 213.837 284.894 213.609 285.746L215.13 286.205C215.304 285.611 215.613 285.179 216.057 284.909C216.501 284.639 217.017 284.504 217.605 284.504C218.445 284.504 219.048 284.693 219.414 285.071C219.786 285.443 219.981 286.016 219.999 286.79C219.279 286.892 218.523 287 217.731 287.114C216.945 287.222 216.246 287.357 215.634 287.519C214.896 287.735 214.314 288.074 213.888 288.536C213.462 288.992 213.249 289.604 213.249 290.372C213.249 290.894 213.372 291.374 213.618 291.812C213.87 292.25 214.239 292.604 214.725 292.874C215.217 293.138 215.826 293.27 216.552 293.27ZM216.795 291.929C216.105 291.929 215.607 291.77 215.301 291.452C214.995 291.128 214.842 290.765 214.842 290.363C214.842 289.907 214.992 289.559 215.292 289.319C215.598 289.073 215.952 288.887 216.354 288.761C216.828 288.629 217.38 288.518 218.01 288.428C218.64 288.338 219.297 288.248 219.981 288.158C219.981 288.38 219.969 288.632 219.945 288.914C219.927 289.196 219.885 289.454 219.819 289.688C219.705 290.288 219.387 290.813 218.865 291.263C218.349 291.707 217.659 291.929 216.795 291.929ZM223.905 293H225.534V288.32L229.953 293H232.194L227.397 288.14L231.69 283.28H229.611L225.534 287.96V280.04H223.914L223.905 293ZM233.27 281.561H234.872V279.905H233.27V281.561ZM233.27 293H234.872V283.28H233.27V293ZM237.564 297.32H239.175V292.1C239.523 292.466 239.934 292.754 240.408 292.964C240.888 293.168 241.431 293.27 242.037 293.27C242.943 293.27 243.72 293.045 244.368 292.595C245.022 292.139 245.523 291.524 245.871 290.75C246.219 289.976 246.393 289.103 246.393 288.131C246.393 287.159 246.219 286.286 245.871 285.512C245.523 284.738 245.022 284.129 244.368 283.685C243.72 283.235 242.946 283.01 242.046 283.01C241.386 283.01 240.801 283.13 240.291 283.37C239.781 283.61 239.349 283.943 238.995 284.369V283.28H237.564V297.32ZM241.839 291.803C240.861 291.803 240.141 291.458 239.679 290.768C239.223 290.078 238.995 289.199 238.995 288.131C238.995 287.057 239.223 286.181 239.679 285.503C240.141 284.819 240.846 284.477 241.794 284.477C242.454 284.477 242.997 284.639 243.423 284.963C243.855 285.287 244.173 285.725 244.377 286.277C244.587 286.829 244.692 287.447 244.692 288.131C244.692 288.821 244.587 289.445 244.377 290.003C244.167 290.555 243.852 290.993 243.432 291.317C243.012 291.641 242.481 291.803 241.839 291.803ZM256.181 293.27C257.123 293.27 257.972 293.036 258.728 292.568C259.484 292.094 260.054 291.428 260.438 290.57L258.899 290.039C258.341 291.179 257.411 291.749 256.109 291.749C255.215 291.749 254.513 291.476 254.003 290.93C253.499 290.378 253.214 289.598 253.148 288.59H260.6C260.648 287.438 260.498 286.445 260.15 285.611C259.808 284.777 259.292 284.135 258.602 283.685C257.918 283.235 257.087 283.01 256.109 283.01C255.167 283.01 254.345 283.223 253.643 283.649C252.941 284.069 252.395 284.669 252.005 285.449C251.621 286.223 251.429 287.141 251.429 288.203C251.429 289.217 251.624 290.105 252.014 290.867C252.41 291.623 252.965 292.214 253.679 292.64C254.393 293.06 255.227 293.27 256.181 293.27ZM256.163 284.45C257.813 284.45 258.737 285.401 258.935 287.303H253.175C253.289 286.379 253.598 285.674 254.102 285.188C254.606 284.696 255.293 284.45 256.163 284.45ZM268.031 293V291.623C267.365 291.725 266.795 291.743 266.321 291.677C265.853 291.611 265.511 291.386 265.295 291.002C265.181 290.798 265.118 290.558 265.106 290.282C265.1 290 265.097 289.658 265.097 289.256V284.603H268.031V283.28H265.097V280.58H263.495V283.28H261.524V284.603H263.495V289.328C263.495 289.832 263.501 290.282 263.513 290.678C263.531 291.068 263.636 291.452 263.828 291.83C264.056 292.268 264.389 292.592 264.827 292.802C265.265 293.006 265.763 293.117 266.321 293.135C266.885 293.159 267.455 293.114 268.031 293ZM269.824 295.016C270.382 295.118 270.814 295.01 271.12 294.692C271.432 294.374 271.588 293.9 271.588 293.27V290.966H269.824V293H270.751C270.781 293.36 270.742 293.666 270.634 293.918C270.532 294.176 270.295 294.293 269.923 294.269L269.824 295.016ZM282.433 293.27C283.093 293.27 283.675 293.15 284.179 292.91C284.689 292.664 285.121 292.328 285.475 291.902V293H286.906V280.04H285.295V284.162C284.947 283.802 284.533 283.52 284.053 283.316C283.573 283.112 283.03 283.01 282.424 283.01C281.524 283.01 280.747 283.235 280.093 283.685C279.445 284.129 278.947 284.738 278.599 285.512C278.251 286.286 278.077 287.159 278.077 288.131C278.077 289.103 278.251 289.976 278.599 290.75C278.947 291.524 279.445 292.139 280.093 292.595C280.747 293.045 281.527 293.27 282.433 293.27ZM282.631 291.803C281.995 291.803 281.464 291.641 281.038 291.317C280.618 290.993 280.303 290.555 280.093 290.003C279.883 289.445 279.778 288.821 279.778 288.131C279.778 287.447 279.88 286.829 280.084 286.277C280.294 285.725 280.612 285.287 281.038 284.963C281.47 284.639 282.016 284.477 282.676 284.477C283.624 284.477 284.326 284.819 284.782 285.503C285.244 286.181 285.475 287.057 285.475 288.131C285.475 289.199 285.247 290.078 284.791 290.768C284.335 291.458 283.615 291.803 282.631 291.803ZM293.64 293.27C294.582 293.27 295.431 293.036 296.187 292.568C296.943 292.094 297.513 291.428 297.897 290.57L296.358 290.039C295.8 291.179 294.87 291.749 293.568 291.749C292.674 291.749 291.972 291.476 291.462 290.93C290.958 290.378 290.673 289.598 290.607 288.59H298.059C298.107 287.438 297.957 286.445 297.609 285.611C297.267 284.777 296.751 284.135 296.061 283.685C295.377 283.235 294.546 283.01 293.568 283.01C292.626 283.01 291.804 283.223 291.102 283.649C290.4 284.069 289.854 284.669 289.464 285.449C289.08 286.223 288.888 287.141 288.888 288.203C288.888 289.217 289.083 290.105 289.473 290.867C289.869 291.623 290.424 292.214 291.138 292.64C291.852 293.06 292.686 293.27 293.64 293.27ZM293.622 284.45C295.272 284.45 296.196 285.401 296.394 287.303H290.634C290.748 286.379 291.057 285.674 291.561 285.188C292.065 284.696 292.752 284.45 293.622 284.45ZM300.063 293H301.674V288.122C301.674 287.546 301.752 286.991 301.908 286.457C302.064 285.923 302.379 285.488 302.853 285.152C303.189 284.906 303.558 284.762 303.96 284.72C304.368 284.678 304.74 284.699 305.076 284.783V283.28C304.644 283.184 304.17 283.184 303.654 283.28C303.138 283.376 302.694 283.574 302.322 283.874C301.998 284.102 301.722 284.417 301.494 284.819V283.28H300.063V293ZM310.098 293.261C311.31 293.261 312.261 292.994 312.951 292.46C313.641 291.926 313.986 291.188 313.986 290.246C313.986 289.742 313.881 289.319 313.671 288.977C313.461 288.629 313.107 288.329 312.609 288.077C312.117 287.819 311.442 287.582 310.584 287.366C309.822 287.174 309.24 287.003 308.838 286.853C308.442 286.703 308.169 286.544 308.019 286.376C307.875 286.208 307.803 286.007 307.803 285.773C307.803 285.359 307.998 285.029 308.388 284.783C308.784 284.537 309.297 284.423 309.927 284.441C310.587 284.459 311.13 284.621 311.556 284.927C311.982 285.227 312.234 285.635 312.312 286.151L313.95 285.854C313.848 284.996 313.428 284.309 312.69 283.793C311.958 283.271 311.037 283.01 309.927 283.01C308.805 283.01 307.902 283.271 307.218 283.793C306.534 284.309 306.192 284.996 306.192 285.854C306.192 286.316 306.294 286.709 306.498 287.033C306.708 287.357 307.059 287.642 307.551 287.888C308.049 288.134 308.727 288.371 309.585 288.599C310.377 288.809 310.968 288.992 311.358 289.148C311.754 289.298 312.015 289.457 312.141 289.625C312.267 289.793 312.33 290.015 312.33 290.291C312.33 290.765 312.138 291.14 311.754 291.416C311.376 291.692 310.857 291.83 310.197 291.83C309.495 291.83 308.907 291.677 308.433 291.371C307.959 291.059 307.656 290.639 307.524 290.111L305.886 290.372C306.054 291.284 306.507 291.995 307.245 292.505C307.989 293.009 308.94 293.261 310.098 293.261ZM316.151 293H317.753V279.77H316.151V293ZM324.665 293.27C325.607 293.27 326.456 293.036 327.212 292.568C327.968 292.094 328.538 291.428 328.922 290.57L327.383 290.039C326.825 291.179 325.895 291.749 324.593 291.749C323.699 291.749 322.997 291.476 322.487 290.93C321.983 290.378 321.698 289.598 321.632 288.59H329.084C329.132 287.438 328.982 286.445 328.634 285.611C328.292 284.777 327.776 284.135 327.086 283.685C326.402 283.235 325.571 283.01 324.593 283.01C323.651 283.01 322.829 283.223 322.127 283.649C321.425 284.069 320.879 284.669 320.489 285.449C320.105 286.223 319.913 287.141 319.913 288.203C319.913 289.217 320.108 290.105 320.498 290.867C320.894 291.623 321.449 292.214 322.163 292.64C322.877 293.06 323.711 293.27 324.665 293.27ZM324.647 284.45C326.297 284.45 327.221 285.401 327.419 287.303H321.659C321.773 286.379 322.082 285.674 322.586 285.188C323.09 284.696 323.777 284.45 324.647 284.45ZM331.088 293H332.699V288.122C332.699 287.546 332.777 286.991 332.933 286.457C333.089 285.923 333.404 285.488 333.878 285.152C334.214 284.906 334.583 284.762 334.985 284.72C335.393 284.678 335.765 284.699 336.101 284.783V283.28C335.669 283.184 335.195 283.184 334.679 283.28C334.163 283.376 333.719 283.574 333.347 283.874C333.023 284.102 332.747 284.417 332.519 284.819V283.28H331.088V293ZM337.983 281.561H339.585V279.905H337.983V281.561ZM337.983 293H339.585V283.28H337.983V293ZM346.069 281.561H347.671V279.905H346.069V281.561ZM346.069 293H347.671V283.28H346.069V293ZM349.471 293H357.643V291.542H352.063L357.949 283.586V283.28H349.957V284.738H355.366L349.471 292.712V293ZM360.114 293H361.716V279.77H360.114V293ZM368.628 293.27C369.57 293.27 370.419 293.036 371.175 292.568C371.931 292.094 372.501 291.428 372.885 290.57L371.346 290.039C370.788 291.179 369.858 291.749 368.556 291.749C367.662 291.749 366.96 291.476 366.45 290.93C365.946 290.378 365.661 289.598 365.595 288.59H373.047C373.095 287.438 372.945 286.445 372.597 285.611C372.255 284.777 371.739 284.135 371.049 283.685C370.365 283.235 369.534 283.01 368.556 283.01C367.614 283.01 366.792 283.223 366.09 283.649C365.388 284.069 364.842 284.669 364.452 285.449C364.068 286.223 363.876 287.141 363.876 288.203C363.876 289.217 364.071 290.105 364.461 290.867C364.857 291.623 365.412 292.214 366.126 292.64C366.84 293.06 367.674 293.27 368.628 293.27ZM368.61 284.45C370.26 284.45 371.184 285.401 371.382 287.303H365.622C365.736 286.379 366.045 285.674 366.549 285.188C367.053 284.696 367.74 284.45 368.61 284.45ZM49.3529 318.261C50.5649 318.261 51.5159 317.994 52.2059 317.46C52.8959 316.926 53.2409 316.188 53.2409 315.246C53.2409 314.742 53.1359 314.319 52.9259 313.977C52.7159 313.629 52.3619 313.329 51.8639 313.077C51.3719 312.819 50.6969 312.582 49.8389 312.366C49.0769 312.174 48.4949 312.003 48.0929 311.853C47.6969 311.703 47.4239 311.544 47.2739 311.376C47.1299 311.208 47.0579 311.007 47.0579 310.773C47.0579 310.359 47.2529 310.029 47.6429 309.783C48.0389 309.537 48.5519 309.423 49.1819 309.441C49.8419 309.459 50.3849 309.621 50.8109 309.927C51.2369 310.227 51.4889 310.635 51.5669 311.151L53.2049 310.854C53.1029 309.996 52.6829 309.309 51.9449 308.793C51.2129 308.271 50.2919 308.01 49.1819 308.01C48.0599 308.01 47.1569 308.271 46.4729 308.793C45.7889 309.309 45.4469 309.996 45.4469 310.854C45.4469 311.316 45.5489 311.709 45.7529 312.033C45.9629 312.357 46.3139 312.642 46.8059 312.888C47.3039 313.134 47.9819 313.371 48.8399 313.599C49.6319 313.809 50.2229 313.992 50.6129 314.148C51.0089 314.298 51.2699 314.457 51.3959 314.625C51.5219 314.793 51.5849 315.015 51.5849 315.291C51.5849 315.765 51.3929 316.14 51.0089 316.416C50.6309 316.692 50.1119 316.83 49.4519 316.83C48.7499 316.83 48.1619 316.677 47.6879 316.371C47.2139 316.059 46.9109 315.639 46.7789 315.111L45.1409 315.372C45.3089 316.284 45.7619 316.995 46.4999 317.505C47.2439 318.009 48.1949 318.261 49.3529 318.261ZM59.3658 318.27C60.3318 318.27 61.1628 318.054 61.8588 317.622C62.5608 317.19 63.1008 316.587 63.4788 315.813C63.8628 315.039 64.0548 314.145 64.0548 313.131C64.0548 312.129 63.8658 311.244 63.4878 310.476C63.1158 309.702 62.5788 309.099 61.8768 308.667C61.1748 308.229 60.3378 308.01 59.3658 308.01C58.4178 308.01 57.5928 308.226 56.8908 308.658C56.1888 309.084 55.6458 309.681 55.2618 310.449C54.8778 311.217 54.6858 312.111 54.6858 313.131C54.6858 314.133 54.8718 315.021 55.2438 315.795C55.6218 316.569 56.1618 317.175 56.8638 317.613C57.5658 318.051 58.3998 318.27 59.3658 318.27ZM59.3658 316.749C58.3878 316.749 57.6468 316.422 57.1428 315.768C56.6388 315.108 56.3868 314.229 56.3868 313.131C56.3868 312.069 56.6298 311.205 57.1158 310.539C57.6018 309.867 58.3518 309.531 59.3658 309.531C60.3618 309.531 61.1088 309.858 61.6068 310.512C62.1048 311.166 62.3538 312.039 62.3538 313.131C62.3538 314.199 62.1048 315.069 61.6068 315.741C61.1148 316.413 60.3678 316.749 59.3658 316.749ZM66.0364 318H67.6474V313.122C67.6474 312.546 67.7254 311.991 67.8814 311.457C68.0374 310.923 68.3524 310.488 68.8264 310.152C69.1624 309.906 69.5314 309.762 69.9334 309.72C70.3414 309.678 70.7134 309.699 71.0494 309.783V308.28C70.6174 308.184 70.1434 308.184 69.6274 308.28C69.1114 308.376 68.6674 308.574 68.2954 308.874C67.9714 309.102 67.6954 309.417 67.4674 309.819V308.28H66.0364V318ZM76.4412 318.252C77.8572 318.252 78.9372 317.751 79.6812 316.749V318H81.1122V308.28H79.5012V313.401C79.5012 314.523 79.2552 315.36 78.7632 315.912C78.2772 316.458 77.6322 316.731 76.8282 316.731C76.1442 316.731 75.6102 316.56 75.2262 316.218C74.8482 315.876 74.5812 315.432 74.4252 314.886C74.2692 314.334 74.1912 313.755 74.1912 313.149V308.28H72.5712V313.653C72.5712 314.115 72.6252 314.613 72.7332 315.147C72.8472 315.675 73.0452 316.176 73.3272 316.65C73.6152 317.118 74.0112 317.502 74.5152 317.802C75.0192 318.102 75.6612 318.252 76.4412 318.252ZM83.8121 318H85.4141V304.77H83.8121V318ZM90.8775 318.27C92.4975 318.27 93.6975 317.676 94.4775 316.488V318H95.8995V311.988C95.8995 311.604 95.8815 311.238 95.8455 310.89C95.8095 310.536 95.7225 310.209 95.5845 309.909C95.3085 309.273 94.8525 308.799 94.2165 308.487C93.5805 308.169 92.8245 308.01 91.9485 308.01C90.8505 308.01 89.9625 308.253 89.2845 308.739C88.6125 309.225 88.1625 309.894 87.9345 310.746L89.4555 311.205C89.6295 310.611 89.9385 310.179 90.3825 309.909C90.8265 309.639 91.3425 309.504 91.9305 309.504C92.7705 309.504 93.3735 309.693 93.7395 310.071C94.1115 310.443 94.3065 311.016 94.3245 311.79C93.6045 311.892 92.8485 312 92.0565 312.114C91.2705 312.222 90.5715 312.357 89.9595 312.519C89.2215 312.735 88.6395 313.074 88.2135 313.536C87.7875 313.992 87.5745 314.604 87.5745 315.372C87.5745 315.894 87.6975 316.374 87.9435 316.812C88.1955 317.25 88.5645 317.604 89.0505 317.874C89.5425 318.138 90.1515 318.27 90.8775 318.27ZM91.1205 316.929C90.4305 316.929 89.9325 316.77 89.6265 316.452C89.3205 316.128 89.1675 315.765 89.1675 315.363C89.1675 314.907 89.3175 314.559 89.6175 314.319C89.9235 314.073 90.2775 313.887 90.6795 313.761C91.1535 313.629 91.7055 313.518 92.3355 313.428C92.9655 313.338 93.6225 313.248 94.3065 313.158C94.3065 313.38 94.2945 313.632 94.2705 313.914C94.2525 314.196 94.2105 314.454 94.1445 314.688C94.0305 315.288 93.7125 315.813 93.1905 316.263C92.6745 316.707 91.9845 316.929 91.1205 316.929ZM98.2395 318H99.8505V313.122C99.8505 312.546 99.9285 311.991 100.084 311.457C100.24 310.923 100.555 310.488 101.029 310.152C101.365 309.906 101.734 309.762 102.136 309.72C102.544 309.678 102.916 309.699 103.252 309.783V308.28C102.82 308.184 102.346 308.184 101.83 308.28C101.314 308.376 100.87 308.574 100.498 308.874C100.174 309.102 99.8985 309.417 99.6705 309.819V308.28H98.2395V318ZM107.401 318.27C109.021 318.27 110.221 317.676 111.001 316.488V318H112.423V311.988C112.423 311.604 112.405 311.238 112.369 310.89C112.333 310.536 112.246 310.209 112.108 309.909C111.832 309.273 111.376 308.799 110.74 308.487C110.104 308.169 109.348 308.01 108.472 308.01C107.374 308.01 106.486 308.253 105.808 308.739C105.136 309.225 104.686 309.894 104.458 310.746L105.979 311.205C106.153 310.611 106.462 310.179 106.906 309.909C107.35 309.639 107.866 309.504 108.454 309.504C109.294 309.504 109.897 309.693 110.263 310.071C110.635 310.443 110.83 311.016 110.848 311.79C110.128 311.892 109.372 312 108.58 312.114C107.794 312.222 107.095 312.357 106.483 312.519C105.745 312.735 105.163 313.074 104.737 313.536C104.311 313.992 104.098 314.604 104.098 315.372C104.098 315.894 104.221 316.374 104.467 316.812C104.719 317.25 105.088 317.604 105.574 317.874C106.066 318.138 106.675 318.27 107.401 318.27ZM107.644 316.929C106.954 316.929 106.456 316.77 106.15 316.452C105.844 316.128 105.691 315.765 105.691 315.363C105.691 314.907 105.841 314.559 106.141 314.319C106.447 314.073 106.801 313.887 107.203 313.761C107.677 313.629 108.229 313.518 108.859 313.428C109.489 313.338 110.146 313.248 110.83 313.158C110.83 313.38 110.818 313.632 110.794 313.914C110.776 314.196 110.734 314.454 110.668 314.688C110.554 315.288 110.236 315.813 109.714 316.263C109.198 316.707 108.508 316.929 107.644 316.929ZM123.793 318V316.623C123.127 316.725 122.557 316.743 122.083 316.677C121.615 316.611 121.273 316.386 121.057 316.002C120.943 315.798 120.88 315.558 120.868 315.282C120.862 315 120.859 314.658 120.859 314.256V309.603H123.793V308.28H120.859V305.58H119.257V308.28H117.286V309.603H119.257V314.328C119.257 314.832 119.263 315.282 119.275 315.678C119.293 316.068 119.398 316.452 119.59 316.83C119.818 317.268 120.151 317.592 120.589 317.802C121.027 318.006 121.525 318.117 122.083 318.135C122.647 318.159 123.217 318.114 123.793 318ZM129.503 318.27C130.469 318.27 131.3 318.054 131.996 317.622C132.698 317.19 133.238 316.587 133.616 315.813C134 315.039 134.192 314.145 134.192 313.131C134.192 312.129 134.003 311.244 133.625 310.476C133.253 309.702 132.716 309.099 132.014 308.667C131.312 308.229 130.475 308.01 129.503 308.01C128.555 308.01 127.73 308.226 127.028 308.658C126.326 309.084 125.783 309.681 125.399 310.449C125.015 311.217 124.823 312.111 124.823 313.131C124.823 314.133 125.009 315.021 125.381 315.795C125.759 316.569 126.299 317.175 127.001 317.613C127.703 318.051 128.537 318.27 129.503 318.27ZM129.503 316.749C128.525 316.749 127.784 316.422 127.28 315.768C126.776 315.108 126.524 314.229 126.524 313.131C126.524 312.069 126.767 311.205 127.253 310.539C127.739 309.867 128.489 309.531 129.503 309.531C130.499 309.531 131.246 309.858 131.744 310.512C132.242 311.166 132.491 312.039 132.491 313.131C132.491 314.199 132.242 315.069 131.744 315.741C131.252 316.413 130.505 316.749 129.503 316.749ZM136.164 322.32H137.775V317.1C138.123 317.466 138.534 317.754 139.008 317.964C139.488 318.168 140.031 318.27 140.637 318.27C141.543 318.27 142.32 318.045 142.968 317.595C143.622 317.139 144.123 316.524 144.471 315.75C144.819 314.976 144.993 314.103 144.993 313.131C144.993 312.159 144.819 311.286 144.471 310.512C144.123 309.738 143.622 309.129 142.968 308.685C142.32 308.235 141.546 308.01 140.646 308.01C139.986 308.01 139.401 308.13 138.891 308.37C138.381 308.61 137.949 308.943 137.595 309.369V308.28H136.164V322.32ZM140.439 316.803C139.461 316.803 138.741 316.458 138.279 315.768C137.823 315.078 137.595 314.199 137.595 313.131C137.595 312.057 137.823 311.181 138.279 310.503C138.741 309.819 139.446 309.477 140.394 309.477C141.054 309.477 141.597 309.639 142.023 309.963C142.455 310.287 142.773 310.725 142.977 311.277C143.187 311.829 143.292 312.447 143.292 313.131C143.292 313.821 143.187 314.445 142.977 315.003C142.767 315.555 142.452 315.993 142.032 316.317C141.612 316.641 141.081 316.803 140.439 316.803ZM147.146 318H148.748V304.77H147.146V318ZM155.138 318.252C156.554 318.252 157.634 317.751 158.378 316.749V318H159.809V308.28H158.198V313.401C158.198 314.523 157.952 315.36 157.46 315.912C156.974 316.458 156.329 316.731 155.525 316.731C154.841 316.731 154.307 316.56 153.923 316.218C153.545 315.876 153.278 315.432 153.122 314.886C152.966 314.334 152.888 313.755 152.888 313.149V308.28H151.268V313.653C151.268 314.115 151.322 314.613 151.43 315.147C151.544 315.675 151.742 316.176 152.024 316.65C152.312 317.118 152.708 317.502 153.212 317.802C153.716 318.102 154.358 318.252 155.138 318.252ZM162.509 318H164.111V304.77H162.509V318ZM170.502 318.252C171.918 318.252 172.998 317.751 173.742 316.749V318H175.173V308.28H173.562V313.401C173.562 314.523 173.316 315.36 172.824 315.912C172.338 316.458 171.693 316.731 170.889 316.731C170.205 316.731 169.671 316.56 169.287 316.218C168.909 315.876 168.642 315.432 168.486 314.886C168.33 314.334 168.252 313.755 168.252 313.149V308.28H166.632V313.653C166.632 314.115 166.686 314.613 166.794 315.147C166.908 315.675 167.106 316.176 167.388 316.65C167.676 317.118 168.072 317.502 168.576 317.802C169.08 318.102 169.722 318.252 170.502 318.252ZM177.684 318H179.313V313.32L183.732 318H185.973L181.176 313.14L185.469 308.28H183.39L179.313 312.96V305.04H177.693L177.684 318ZM187.048 318H188.65V304.77H187.048V318ZM194.114 318.27C195.734 318.27 196.934 317.676 197.714 316.488V318H199.136V311.988C199.136 311.604 199.118 311.238 199.082 310.89C199.046 310.536 198.959 310.209 198.821 309.909C198.545 309.273 198.089 308.799 197.453 308.487C196.817 308.169 196.061 308.01 195.185 308.01C194.087 308.01 193.199 308.253 192.521 308.739C191.849 309.225 191.399 309.894 191.171 310.746L192.692 311.205C192.866 310.611 193.175 310.179 193.619 309.909C194.063 309.639 194.579 309.504 195.167 309.504C196.007 309.504 196.61 309.693 196.976 310.071C197.348 310.443 197.543 311.016 197.561 311.79C196.841 311.892 196.085 312 195.293 312.114C194.507 312.222 193.808 312.357 193.196 312.519C192.458 312.735 191.876 313.074 191.45 313.536C191.024 313.992 190.811 314.604 190.811 315.372C190.811 315.894 190.934 316.374 191.18 316.812C191.432 317.25 191.801 317.604 192.287 317.874C192.779 318.138 193.388 318.27 194.114 318.27ZM194.357 316.929C193.667 316.929 193.169 316.77 192.863 316.452C192.557 316.128 192.404 315.765 192.404 315.363C192.404 314.907 192.554 314.559 192.854 314.319C193.16 314.073 193.514 313.887 193.916 313.761C194.39 313.629 194.942 313.518 195.572 313.428C196.202 313.338 196.859 313.248 197.543 313.158C197.543 313.38 197.531 313.632 197.507 313.914C197.489 314.196 197.447 314.454 197.381 314.688C197.267 315.288 196.949 315.813 196.427 316.263C195.911 316.707 195.221 316.929 194.357 316.929ZM205.07 318H206.501V316.902C206.855 317.328 207.284 317.664 207.788 317.91C208.298 318.15 208.883 318.27 209.543 318.27C210.449 318.27 211.226 318.045 211.874 317.595C212.528 317.139 213.029 316.524 213.377 315.75C213.725 314.976 213.899 314.103 213.899 313.131C213.899 312.159 213.725 311.286 213.377 310.512C213.029 309.738 212.528 309.129 211.874 308.685C211.226 308.235 210.452 308.01 209.552 308.01C208.946 308.01 208.403 308.112 207.923 308.316C207.443 308.52 207.029 308.802 206.681 309.162V305.04H205.07V318ZM209.345 316.803C208.367 316.803 207.647 316.458 207.185 315.768C206.729 315.078 206.501 314.199 206.501 313.131C206.501 312.057 206.729 311.181 207.185 310.503C207.647 309.819 208.352 309.477 209.3 309.477C209.96 309.477 210.503 309.639 210.929 309.963C211.361 310.287 211.679 310.725 211.883 311.277C212.093 311.829 212.198 312.447 212.198 313.131C212.198 313.821 212.093 314.445 211.883 315.003C211.673 315.555 211.358 315.993 210.938 316.317C210.518 316.641 209.987 316.803 209.345 316.803ZM220.084 318.27C221.026 318.27 221.875 318.036 222.631 317.568C223.387 317.094 223.957 316.428 224.341 315.57L222.802 315.039C222.244 316.179 221.314 316.749 220.012 316.749C219.118 316.749 218.416 316.476 217.906 315.93C217.402 315.378 217.117 314.598 217.051 313.59H224.503C224.551 312.438 224.401 311.445 224.053 310.611C223.711 309.777 223.195 309.135 222.505 308.685C221.821 308.235 220.99 308.01 220.012 308.01C219.07 308.01 218.248 308.223 217.546 308.649C216.844 309.069 216.298 309.669 215.908 310.449C215.524 311.223 215.332 312.141 215.332 313.203C215.332 314.217 215.527 315.105 215.917 315.867C216.313 316.623 216.868 317.214 217.582 317.64C218.296 318.06 219.13 318.27 220.084 318.27ZM220.066 309.45C221.716 309.45 222.64 310.401 222.838 312.303H217.078C217.192 311.379 217.501 310.674 218.005 310.188C218.509 309.696 219.196 309.45 220.066 309.45ZM226.507 318H228.118V313.122C228.118 312.546 228.196 311.991 228.352 311.457C228.508 310.923 228.823 310.488 229.297 310.152C229.633 309.906 230.002 309.762 230.404 309.72C230.812 309.678 231.184 309.699 231.52 309.783V308.28C231.088 308.184 230.614 308.184 230.098 308.28C229.582 308.376 229.138 308.574 228.766 308.874C228.442 309.102 228.166 309.417 227.938 309.819V308.28H226.507V318ZM235.669 318.27C237.289 318.27 238.489 317.676 239.269 316.488V318H240.691V311.988C240.691 311.604 240.673 311.238 240.637 310.89C240.601 310.536 240.514 310.209 240.376 309.909C240.1 309.273 239.644 308.799 239.008 308.487C238.372 308.169 237.616 308.01 236.74 308.01C235.642 308.01 234.754 308.253 234.076 308.739C233.404 309.225 232.954 309.894 232.726 310.746L234.247 311.205C234.421 310.611 234.73 310.179 235.174 309.909C235.618 309.639 236.134 309.504 236.722 309.504C237.562 309.504 238.165 309.693 238.531 310.071C238.903 310.443 239.098 311.016 239.116 311.79C238.396 311.892 237.64 312 236.848 312.114C236.062 312.222 235.363 312.357 234.751 312.519C234.013 312.735 233.431 313.074 233.005 313.536C232.579 313.992 232.366 314.604 232.366 315.372C232.366 315.894 232.489 316.374 232.735 316.812C232.987 317.25 233.356 317.604 233.842 317.874C234.334 318.138 234.943 318.27 235.669 318.27ZM235.912 316.929C235.222 316.929 234.724 316.77 234.418 316.452C234.112 316.128 233.959 315.765 233.959 315.363C233.959 314.907 234.109 314.559 234.409 314.319C234.715 314.073 235.069 313.887 235.471 313.761C235.945 313.629 236.497 313.518 237.127 313.428C237.757 313.338 238.414 313.248 239.098 313.158C239.098 313.38 239.086 313.632 239.062 313.914C239.044 314.196 239.002 314.454 238.936 314.688C238.822 315.288 238.504 315.813 237.982 316.263C237.466 316.707 236.776 316.929 235.912 316.929ZM243.022 318H244.453V316.902C244.807 317.328 245.236 317.664 245.74 317.91C246.25 318.15 246.835 318.27 247.495 318.27C248.401 318.27 249.178 318.045 249.826 317.595C250.48 317.139 250.981 316.524 251.329 315.75C251.677 314.976 251.851 314.103 251.851 313.131C251.851 312.159 251.677 311.286 251.329 310.512C250.981 309.738 250.48 309.129 249.826 308.685C249.178 308.235 248.404 308.01 247.504 308.01C246.898 308.01 246.355 308.112 245.875 308.316C245.395 308.52 244.981 308.802 244.633 309.162V305.04H243.022V318ZM247.297 316.803C246.319 316.803 245.599 316.458 245.137 315.768C244.681 315.078 244.453 314.199 244.453 313.131C244.453 312.057 244.681 311.181 245.137 310.503C245.599 309.819 246.304 309.477 247.252 309.477C247.912 309.477 248.455 309.639 248.881 309.963C249.313 310.287 249.631 310.725 249.835 311.277C250.045 311.829 250.15 312.447 250.15 313.131C250.15 313.821 250.045 314.445 249.835 315.003C249.625 315.555 249.31 315.993 248.89 316.317C248.47 316.641 247.939 316.803 247.297 316.803ZM258.035 318.27C258.977 318.27 259.826 318.036 260.582 317.568C261.338 317.094 261.908 316.428 262.292 315.57L260.753 315.039C260.195 316.179 259.265 316.749 257.963 316.749C257.069 316.749 256.367 316.476 255.857 315.93C255.353 315.378 255.068 314.598 255.002 313.59H262.454C262.502 312.438 262.352 311.445 262.004 310.611C261.662 309.777 261.146 309.135 260.456 308.685C259.772 308.235 258.941 308.01 257.963 308.01C257.021 308.01 256.199 308.223 255.497 308.649C254.795 309.069 254.249 309.669 253.859 310.449C253.475 311.223 253.283 312.141 253.283 313.203C253.283 314.217 253.478 315.105 253.868 315.867C254.264 316.623 254.819 317.214 255.533 317.64C256.247 318.06 257.081 318.27 258.035 318.27ZM258.017 309.45C259.667 309.45 260.591 310.401 260.789 312.303H255.029C255.143 311.379 255.452 310.674 255.956 310.188C256.46 309.696 257.147 309.45 258.017 309.45ZM264.458 318H266.069V313.122C266.069 312.546 266.147 311.991 266.303 311.457C266.459 310.923 266.774 310.488 267.248 310.152C267.584 309.906 267.953 309.762 268.355 309.72C268.763 309.678 269.135 309.699 269.471 309.783V308.28C269.039 308.184 268.565 308.184 268.049 308.28C267.533 308.376 267.089 308.574 266.717 308.874C266.393 309.102 266.117 309.417 265.889 309.819V308.28H264.458V318ZM278.476 322.329C278.956 322.329 279.37 322.161 279.718 321.825C280.066 321.489 280.24 321.066 280.24 320.556C280.24 320.166 280.141 319.839 279.943 319.575C279.745 319.317 279.481 319.113 279.151 318.963L279.403 318.243C280.273 318.165 281.017 317.892 281.635 317.424C282.253 316.95 282.718 316.299 283.03 315.471L281.41 315.048C280.96 316.182 280.114 316.749 278.872 316.749C277.906 316.749 277.177 316.419 276.685 315.759C276.199 315.099 275.95 314.226 275.938 313.14C275.95 312.084 276.193 311.22 276.667 310.548C277.141 309.87 277.876 309.531 278.872 309.531C279.46 309.531 279.985 309.687 280.447 309.999C280.909 310.311 281.242 310.749 281.446 311.313L283.03 310.836C282.772 309.96 282.271 309.27 281.527 308.766C280.789 308.262 279.91 308.01 278.89 308.01C277.918 308.01 277.084 308.229 276.388 308.667C275.698 309.099 275.17 309.699 274.804 310.467C274.438 311.235 274.249 312.126 274.237 313.14C274.243 314.07 274.405 314.904 274.723 315.642C275.041 316.38 275.503 316.977 276.109 317.433C276.715 317.889 277.453 318.159 278.323 318.243L277.828 319.629C278.134 319.725 278.407 319.83 278.647 319.944C278.893 320.058 279.016 320.247 279.016 320.511C279.016 320.667 278.956 320.811 278.836 320.943C278.722 321.075 278.557 321.141 278.341 321.141C278.173 321.141 277.954 321.093 277.684 320.997L277.297 322.032C277.471 322.116 277.654 322.185 277.846 322.239C278.044 322.299 278.254 322.329 278.476 322.329ZM289.706 306.516H291.326V304.896H289.706V306.516ZM286.178 306.516H287.798V304.896H286.178V306.516ZM288.743 318.27C289.709 318.27 290.54 318.054 291.236 317.622C291.938 317.19 292.478 316.587 292.856 315.813C293.24 315.039 293.432 314.145 293.432 313.131C293.432 312.129 293.243 311.244 292.865 310.476C292.493 309.702 291.956 309.099 291.254 308.667C290.552 308.229 289.715 308.01 288.743 308.01C287.795 308.01 286.97 308.226 286.268 308.658C285.566 309.084 285.023 309.681 284.639 310.449C284.255 311.217 284.063 312.111 284.063 313.131C284.063 314.133 284.249 315.021 284.621 315.795C284.999 316.569 285.539 317.175 286.241 317.613C286.943 318.051 287.777 318.27 288.743 318.27ZM288.743 316.749C287.765 316.749 287.024 316.422 286.52 315.768C286.016 315.108 285.764 314.229 285.764 313.131C285.764 312.069 286.007 311.205 286.493 310.539C286.979 309.867 287.729 309.531 288.743 309.531C289.739 309.531 290.486 309.858 290.984 310.512C291.482 311.166 291.731 312.039 291.731 313.131C291.731 314.199 291.482 315.069 290.984 315.741C290.492 316.413 289.745 316.749 288.743 316.749ZM294.162 318H302.334V316.542H296.754L302.64 308.586V308.28H294.648V309.738H300.057L294.162 317.712V318ZM309.664 306.516H311.284V304.896H309.664V306.516ZM306.136 306.516H307.756V304.896H306.136V306.516ZM308.314 318.252C309.73 318.252 310.81 317.751 311.554 316.749V318H312.985V308.28H311.374V313.401C311.374 314.523 311.128 315.36 310.636 315.912C310.15 316.458 309.505 316.731 308.701 316.731C308.017 316.731 307.483 316.56 307.099 316.218C306.721 315.876 306.454 315.432 306.298 314.886C306.142 314.334 306.064 313.755 306.064 313.149V308.28H304.444V313.653C304.444 314.115 304.498 314.613 304.606 315.147C304.72 315.675 304.918 316.176 305.2 316.65C305.488 317.118 305.884 317.502 306.388 317.802C306.892 318.102 307.534 318.252 308.314 318.252ZM315.496 318H317.107V311.826C317.107 311.112 317.299 310.539 317.683 310.107C318.073 309.675 318.586 309.459 319.222 309.459C319.858 309.459 320.368 309.672 320.752 310.098C321.136 310.524 321.328 311.106 321.328 311.844L321.319 318H322.912L322.921 311.826C322.921 311.28 323.023 310.833 323.227 310.485C323.431 310.137 323.695 309.879 324.019 309.711C324.343 309.543 324.685 309.459 325.045 309.459C325.657 309.459 326.158 309.666 326.548 310.08C326.938 310.488 327.133 311.055 327.133 311.781L327.124 318H328.726L328.735 311.43C328.735 310.392 328.444 309.567 327.862 308.955C327.28 308.337 326.482 308.028 325.468 308.028C324.826 308.028 324.247 308.172 323.731 308.46C323.215 308.742 322.813 309.132 322.525 309.63C322.261 309.12 321.886 308.727 321.4 308.451C320.914 308.169 320.344 308.028 319.69 308.028C319.108 308.028 318.577 308.145 318.097 308.379C317.623 308.607 317.233 308.919 316.927 309.315V308.28H315.496V318ZM334.674 318H336.105V316.902C336.459 317.328 336.888 317.664 337.392 317.91C337.902 318.15 338.487 318.27 339.147 318.27C340.053 318.27 340.83 318.045 341.478 317.595C342.132 317.139 342.633 316.524 342.981 315.75C343.329 314.976 343.503 314.103 343.503 313.131C343.503 312.159 343.329 311.286 342.981 310.512C342.633 309.738 342.132 309.129 341.478 308.685C340.83 308.235 340.056 308.01 339.156 308.01C338.55 308.01 338.007 308.112 337.527 308.316C337.047 308.52 336.633 308.802 336.285 309.162V305.04H334.674V318ZM338.949 316.803C337.971 316.803 337.251 316.458 336.789 315.768C336.333 315.078 336.105 314.199 336.105 313.131C336.105 312.057 336.333 311.181 336.789 310.503C337.251 309.819 337.956 309.477 338.904 309.477C339.564 309.477 340.107 309.639 340.533 309.963C340.965 310.287 341.283 310.725 341.487 311.277C341.697 311.829 341.802 312.447 341.802 313.131C341.802 313.821 341.697 314.445 341.487 315.003C341.277 315.555 340.962 315.993 340.542 316.317C340.122 316.641 339.591 316.803 338.949 316.803ZM349.166 318.252C350.582 318.252 351.662 317.751 352.406 316.749V318H353.837V308.28H352.226V313.401C352.226 314.523 351.98 315.36 351.488 315.912C351.002 316.458 350.357 316.731 349.553 316.731C348.869 316.731 348.335 316.56 347.951 316.218C347.573 315.876 347.306 315.432 347.15 314.886C346.994 314.334 346.916 313.755 346.916 313.149V308.28H345.296V313.653C345.296 314.115 345.35 314.613 345.458 315.147C345.572 315.675 345.77 316.176 346.052 316.65C346.34 317.118 346.736 317.502 347.24 317.802C347.744 318.102 348.386 318.252 349.166 318.252ZM356.537 318H358.139V304.77H356.537V318ZM5.54329 343.27C6.48529 343.27 7.33429 343.036 8.09029 342.568C8.84629 342.094 9.41629 341.428 9.80029 340.57L8.26129 340.039C7.70329 341.179 6.77329 341.749 5.47129 341.749C4.57729 341.749 3.87529 341.476 3.36529 340.93C2.86129 340.378 2.57629 339.598 2.51029 338.59H9.96229C10.0103 337.438 9.86029 336.445 9.51229 335.611C9.17029 334.777 8.65429 334.135 7.96429 333.685C7.28029 333.235 6.44929 333.01 5.47129 333.01C4.52929 333.01 3.70729 333.223 3.00529 333.649C2.30329 334.069 1.75729 334.669 1.36729 335.449C0.983289 336.223 0.791289 337.141 0.791289 338.203C0.791289 339.217 0.986289 340.105 1.37629 340.867C1.77229 341.623 2.32729 342.214 3.04129 342.64C3.75529 343.06 4.58929 343.27 5.54329 343.27ZM5.52529 334.45C7.17529 334.45 8.09929 335.401 8.29729 337.303H2.53729C2.65129 336.379 2.96029 335.674 3.46429 335.188C3.96829 334.696 4.65529 334.45 5.52529 334.45ZM17.3931 343V341.623C16.7271 341.725 16.1571 341.743 15.6831 341.677C15.2151 341.611 14.8731 341.386 14.6571 341.002C14.5431 340.798 14.4801 340.558 14.4681 340.282C14.4621 340 14.4591 339.658 14.4591 339.256V334.603H17.3931V333.28H14.4591V330.58H12.8571V333.28H10.8861V334.603H12.8571V339.328C12.8571 339.832 12.8631 340.282 12.8751 340.678C12.8931 341.068 12.9981 341.452 13.1901 341.83C13.4181 342.268 13.7511 342.592 14.1891 342.802C14.6271 343.006 15.1251 343.117 15.6831 343.135C16.2471 343.159 16.8171 343.114 17.3931 343ZM19.3574 343H20.9864V338.32L25.4054 343H27.6464L22.8494 338.14L27.1424 333.28H25.0634L20.9864 337.96V330.04H19.3664L19.3574 343ZM28.7222 331.561H30.3242V329.905H28.7222V331.561ZM28.7222 343H30.3242V333.28H28.7222V343ZM33.0156 343H34.6356V337.879C34.6356 336.751 34.8786 335.914 35.3646 335.368C35.8566 334.822 36.5046 334.549 37.3086 334.549C37.9926 334.549 38.5266 334.72 38.9106 335.062C39.2946 335.404 39.5616 335.848 39.7116 336.394C39.8676 336.94 39.9456 337.519 39.9456 338.131V343H41.5656V337.627C41.5656 337.165 41.5086 336.67 41.3946 336.142C41.2866 335.608 41.0886 335.107 40.8006 334.639C40.5186 334.165 40.1256 333.778 39.6216 333.478C39.1236 333.178 38.4816 333.028 37.6956 333.028C36.2796 333.028 35.1996 333.529 34.4556 334.531V333.28H33.0156V343ZM44.0855 343H45.6875V329.77H44.0855V343ZM48.5679 331.561H50.1699V329.905H48.5679V331.561ZM48.5679 343H50.1699V333.28H48.5679V343ZM52.8614 343H54.4904V338.32L58.9094 343H61.1504L56.3534 338.14L60.6464 333.28H58.5674L54.4904 337.96V330.04H52.8704L52.8614 343ZM62.2261 343H63.8281V329.77H62.2261V343ZM70.7406 343.27C71.6826 343.27 72.5316 343.036 73.2876 342.568C74.0436 342.094 74.6136 341.428 74.9976 340.57L73.4586 340.039C72.9006 341.179 71.9706 341.749 70.6686 341.749C69.7746 341.749 69.0726 341.476 68.5626 340.93C68.0586 340.378 67.7736 339.598 67.7076 338.59H75.1596C75.2076 337.438 75.0576 336.445 74.7096 335.611C74.3676 334.777 73.8516 334.135 73.1616 333.685C72.4776 333.235 71.6466 333.01 70.6686 333.01C69.7266 333.01 68.9046 333.223 68.2026 333.649C67.5006 334.069 66.9546 334.669 66.5646 335.449C66.1806 336.223 65.9886 337.141 65.9886 338.203C65.9886 339.217 66.1836 340.105 66.5736 340.867C66.9696 341.623 67.5246 342.214 68.2386 342.64C68.9526 343.06 69.7866 343.27 70.7406 343.27ZM70.7226 334.45C72.3726 334.45 73.2966 335.401 73.4946 337.303H67.7346C67.8486 336.379 68.1576 335.674 68.6616 335.188C69.1656 334.696 69.8526 334.45 70.7226 334.45ZM77.1633 343H78.7743V338.122C78.7743 337.546 78.8523 336.991 79.0083 336.457C79.1643 335.923 79.4793 335.488 79.9533 335.152C80.2893 334.906 80.6583 334.762 81.0603 334.72C81.4683 334.678 81.8403 334.699 82.1763 334.783V333.28C81.7443 333.184 81.2703 333.184 80.7543 333.28C80.2383 333.376 79.7943 333.574 79.4223 333.874C79.0983 334.102 78.8223 334.417 78.5943 334.819V333.28H77.1633V343ZM87.9144 343.27C88.8564 343.27 89.7054 343.036 90.4614 342.568C91.2174 342.094 91.7874 341.428 92.1714 340.57L90.6324 340.039C90.0744 341.179 89.1444 341.749 87.8424 341.749C86.9484 341.749 86.2464 341.476 85.7364 340.93C85.2324 340.378 84.9474 339.598 84.8814 338.59H92.3334C92.3814 337.438 92.2314 336.445 91.8834 335.611C91.5414 334.777 91.0254 334.135 90.3354 333.685C89.6514 333.235 88.8204 333.01 87.8424 333.01C86.9004 333.01 86.0784 333.223 85.3764 333.649C84.6744 334.069 84.1284 334.669 83.7384 335.449C83.3544 336.223 83.1624 337.141 83.1624 338.203C83.1624 339.217 83.3574 340.105 83.7474 340.867C84.1434 341.623 84.6984 342.214 85.4124 342.64C86.1264 343.06 86.9604 343.27 87.9144 343.27ZM87.8964 334.45C89.5464 334.45 90.4704 335.401 90.6684 337.303H84.9084C85.0224 336.379 85.3314 335.674 85.8354 335.188C86.3394 334.696 87.0264 334.45 87.8964 334.45ZM97.9317 343H99.5607V338.32L103.98 343H106.221L101.424 338.14L105.717 333.28H103.638L99.5607 337.96V330.04H97.9407L97.9317 343ZM109.879 343.27C111.499 343.27 112.699 342.676 113.479 341.488V343H114.901V336.988C114.901 336.604 114.883 336.238 114.847 335.89C114.811 335.536 114.724 335.209 114.586 334.909C114.31 334.273 113.854 333.799 113.218 333.487C112.582 333.169 111.826 333.01 110.95 333.01C109.852 333.01 108.964 333.253 108.286 333.739C107.614 334.225 107.164 334.894 106.936 335.746L108.457 336.205C108.631 335.611 108.94 335.179 109.384 334.909C109.828 334.639 110.344 334.504 110.932 334.504C111.772 334.504 112.375 334.693 112.741 335.071C113.113 335.443 113.308 336.016 113.326 336.79C112.606 336.892 111.85 337 111.058 337.114C110.272 337.222 109.573 337.357 108.961 337.519C108.223 337.735 107.641 338.074 107.215 338.536C106.789 338.992 106.576 339.604 106.576 340.372C106.576 340.894 106.699 341.374 106.945 341.812C107.197 342.25 107.566 342.604 108.052 342.874C108.544 343.138 109.153 343.27 109.879 343.27ZM110.122 341.929C109.432 341.929 108.934 341.77 108.628 341.452C108.322 341.128 108.169 340.765 108.169 340.363C108.169 339.907 108.319 339.559 108.619 339.319C108.925 339.073 109.279 338.887 109.681 338.761C110.155 338.629 110.707 338.518 111.337 338.428C111.967 338.338 112.624 338.248 113.308 338.158C113.308 338.38 113.296 338.632 113.272 338.914C113.254 339.196 113.212 339.454 113.146 339.688C113.032 340.288 112.714 340.813 112.192 341.263C111.676 341.707 110.986 341.929 110.122 341.929ZM122.668 343V341.623C122.002 341.725 121.432 341.743 120.958 341.677C120.49 341.611 120.148 341.386 119.932 341.002C119.818 340.798 119.755 340.558 119.743 340.282C119.737 340 119.734 339.658 119.734 339.256V334.603H122.668V333.28H119.734V330.58H118.132V333.28H116.161V334.603H118.132V339.328C118.132 339.832 118.138 340.282 118.15 340.678C118.168 341.068 118.273 341.452 118.465 341.83C118.693 342.268 119.026 342.592 119.464 342.802C119.902 343.006 120.4 343.117 120.958 343.135C121.522 343.159 122.092 343.114 122.668 343ZM124.822 343H126.424V333.28H124.822V343ZM129.304 343H130.906V329.77H129.304V343ZM139.838 343H141.476L145.004 333.28H143.375L140.657 340.957L137.93 333.28H136.31L139.838 343ZM150.493 343.27C151.435 343.27 152.284 343.036 153.04 342.568C153.796 342.094 154.366 341.428 154.75 340.57L153.211 340.039C152.653 341.179 151.723 341.749 150.421 341.749C149.527 341.749 148.825 341.476 148.315 340.93C147.811 340.378 147.526 339.598 147.46 338.59H154.912C154.96 337.438 154.81 336.445 154.462 335.611C154.12 334.777 153.604 334.135 152.914 333.685C152.23 333.235 151.399 333.01 150.421 333.01C149.479 333.01 148.657 333.223 147.955 333.649C147.253 334.069 146.707 334.669 146.317 335.449C145.933 336.223 145.741 337.141 145.741 338.203C145.741 339.217 145.936 340.105 146.326 340.867C146.722 341.623 147.277 342.214 147.991 342.64C148.705 343.06 149.539 343.27 150.493 343.27ZM150.475 334.45C152.125 334.45 153.049 335.401 153.247 337.303H147.487C147.601 336.379 147.91 335.674 148.414 335.188C148.918 334.696 149.605 334.45 150.475 334.45ZM163.282 343.27C164.902 343.27 166.102 342.676 166.882 341.488V343H168.304V336.988C168.304 336.604 168.286 336.238 168.25 335.89C168.214 335.536 168.127 335.209 167.989 334.909C167.713 334.273 167.257 333.799 166.621 333.487C165.985 333.169 165.229 333.01 164.353 333.01C163.255 333.01 162.367 333.253 161.689 333.739C161.017 334.225 160.567 334.894 160.339 335.746L161.86 336.205C162.034 335.611 162.343 335.179 162.787 334.909C163.231 334.639 163.747 334.504 164.335 334.504C165.175 334.504 165.778 334.693 166.144 335.071C166.516 335.443 166.711 336.016 166.729 336.79C166.009 336.892 165.253 337 164.461 337.114C163.675 337.222 162.976 337.357 162.364 337.519C161.626 337.735 161.044 338.074 160.618 338.536C160.192 338.992 159.979 339.604 159.979 340.372C159.979 340.894 160.102 341.374 160.348 341.812C160.6 342.25 160.969 342.604 161.455 342.874C161.947 343.138 162.556 343.27 163.282 343.27ZM163.525 341.929C162.835 341.929 162.337 341.77 162.031 341.452C161.725 341.128 161.572 340.765 161.572 340.363C161.572 339.907 161.722 339.559 162.022 339.319C162.328 339.073 162.682 338.887 163.084 338.761C163.558 338.629 164.11 338.518 164.74 338.428C165.37 338.338 166.027 338.248 166.711 338.158C166.711 338.38 166.699 338.632 166.675 338.914C166.657 339.196 166.615 339.454 166.549 339.688C166.435 340.288 166.117 340.813 165.595 341.263C165.079 341.707 164.389 341.929 163.525 341.929ZM170.635 343H172.264V338.32L176.683 343H178.924L174.127 338.14L178.42 333.28H176.341L172.264 337.96V330.04H170.644L170.635 343ZM185.247 343V341.623C184.581 341.725 184.011 341.743 183.537 341.677C183.069 341.611 182.727 341.386 182.511 341.002C182.397 340.798 182.334 340.558 182.322 340.282C182.316 340 182.313 339.658 182.313 339.256V334.603H185.247V333.28H182.313V330.58H180.711V333.28H178.74V334.603H180.711V339.328C180.711 339.832 180.717 340.282 180.729 340.678C180.747 341.068 180.852 341.452 181.044 341.83C181.272 342.268 181.605 342.592 182.043 342.802C182.481 343.006 182.979 343.117 183.537 343.135C184.101 343.159 184.671 343.114 185.247 343ZM187.4 331.561H189.002V329.905H187.4V331.561ZM187.4 343H189.002V333.28H187.4V343ZM192.629 343H194.231V334.603H196.787V333.28H194.231V332.497C194.231 331.567 194.702 331.102 195.644 331.102H196.787V329.77H195.554C195.188 329.77 194.795 329.806 194.375 329.878C193.955 329.944 193.577 330.16 193.241 330.526C192.953 330.838 192.779 331.195 192.719 331.597C192.659 331.993 192.629 332.377 192.629 332.749V333.28H190.982V334.603H192.629V343ZM206.93 331.516H208.55V329.896H206.93V331.516ZM203.402 331.516H205.022V329.896H203.402V331.516ZM205.967 343.27C206.933 343.27 207.764 343.054 208.46 342.622C209.162 342.19 209.702 341.587 210.08 340.813C210.464 340.039 210.656 339.145 210.656 338.131C210.656 337.129 210.467 336.244 210.089 335.476C209.717 334.702 209.18 334.099 208.478 333.667C207.776 333.229 206.939 333.01 205.967 333.01C205.019 333.01 204.194 333.226 203.492 333.658C202.79 334.084 202.247 334.681 201.863 335.449C201.479 336.217 201.287 337.111 201.287 338.131C201.287 339.133 201.473 340.021 201.845 340.795C202.223 341.569 202.763 342.175 203.465 342.613C204.167 343.051 205.001 343.27 205.967 343.27ZM205.967 341.749C204.989 341.749 204.248 341.422 203.744 340.768C203.24 340.108 202.988 339.229 202.988 338.131C202.988 337.069 203.231 336.205 203.717 335.539C204.203 334.867 204.953 334.531 205.967 334.531C206.963 334.531 207.71 334.858 208.208 335.512C208.706 336.166 208.955 337.039 208.955 338.131C208.955 339.199 208.706 340.069 208.208 340.741C207.716 341.413 206.969 341.749 205.967 341.749ZM217.201 332.146C217.657 332.146 218.068 332.035 218.434 331.813C218.806 331.591 219.103 331.294 219.325 330.922C219.547 330.55 219.658 330.139 219.658 329.689H218.362C218.362 330.007 218.248 330.28 218.02 330.508C217.798 330.736 217.525 330.85 217.201 330.85C216.883 330.85 216.61 330.736 216.382 330.508C216.154 330.28 216.04 330.007 216.04 329.689H214.744C214.744 330.139 214.855 330.55 215.077 330.922C215.299 331.294 215.596 331.591 215.968 331.813C216.34 332.035 216.751 332.146 217.201 332.146ZM216.454 343.27C217.054 343.27 217.591 343.168 218.065 342.964C218.545 342.76 218.959 342.475 219.307 342.109V343.045C219.325 345.043 218.416 346.042 216.58 346.042C216.106 346.042 215.65 345.934 215.212 345.718C214.774 345.502 214.435 345.157 214.195 344.683L212.728 345.457C213.136 346.183 213.688 346.72 214.384 347.068C215.08 347.416 215.809 347.59 216.571 347.59C217.735 347.59 218.683 347.341 219.415 346.843C220.153 346.351 220.615 345.589 220.801 344.557C220.849 344.317 220.879 344.074 220.891 343.828C220.909 343.588 220.918 343.333 220.918 343.063V333.28H219.496V334.369C219.142 333.943 218.71 333.61 218.2 333.37C217.69 333.13 217.105 333.01 216.445 333.01C215.545 333.01 214.771 333.235 214.123 333.685C213.475 334.129 212.974 334.738 212.62 335.512C212.272 336.286 212.098 337.159 212.098 338.131C212.098 339.103 212.272 339.976 212.62 340.75C212.968 341.524 213.466 342.139 214.114 342.595C214.768 343.045 215.548 343.27 216.454 343.27ZM216.652 341.803C216.016 341.803 215.485 341.641 215.059 341.317C214.639 340.993 214.324 340.555 214.114 340.003C213.904 339.445 213.799 338.821 213.799 338.131C213.799 337.447 213.901 336.829 214.105 336.277C214.315 335.725 214.633 335.287 215.059 334.963C215.491 334.639 216.037 334.477 216.697 334.477C217.645 334.477 218.347 334.819 218.803 335.503C219.265 336.181 219.496 337.057 219.496 338.131C219.496 339.199 219.268 340.078 218.812 340.768C218.356 341.458 217.636 341.803 216.652 341.803ZM223.431 343H225.042V338.122C225.042 337.546 225.12 336.991 225.276 336.457C225.432 335.923 225.747 335.488 226.221 335.152C226.557 334.906 226.926 334.762 227.328 334.72C227.736 334.678 228.108 334.699 228.444 334.783V333.28C228.012 333.184 227.538 333.184 227.022 333.28C226.506 333.376 226.062 333.574 225.69 333.874C225.366 334.102 225.09 334.417 224.862 334.819V333.28H223.431V343ZM234.182 343.27C235.124 343.27 235.973 343.036 236.729 342.568C237.485 342.094 238.055 341.428 238.439 340.57L236.9 340.039C236.342 341.179 235.412 341.749 234.11 341.749C233.216 341.749 232.514 341.476 232.004 340.93C231.5 340.378 231.215 339.598 231.149 338.59H238.601C238.649 337.438 238.499 336.445 238.151 335.611C237.809 334.777 237.293 334.135 236.603 333.685C235.919 333.235 235.088 333.01 234.11 333.01C233.168 333.01 232.346 333.223 231.644 333.649C230.942 334.069 230.396 334.669 230.006 335.449C229.622 336.223 229.43 337.141 229.43 338.203C229.43 339.217 229.625 340.105 230.015 340.867C230.411 341.623 230.966 342.214 231.68 342.64C232.394 343.06 233.228 343.27 234.182 343.27ZM234.164 334.45C235.814 334.45 236.738 335.401 236.936 337.303H231.176C231.29 336.379 231.599 335.674 232.103 335.188C232.607 334.696 233.294 334.45 234.164 334.45ZM240.332 343H241.952V337.879C241.952 336.751 242.195 335.914 242.681 335.368C243.173 334.822 243.821 334.549 244.625 334.549C245.309 334.549 245.843 334.72 246.227 335.062C246.611 335.404 246.878 335.848 247.028 336.394C247.184 336.94 247.262 337.519 247.262 338.131V343H248.882V337.627C248.882 337.165 248.825 336.67 248.711 336.142C248.603 335.608 248.405 335.107 248.117 334.639C247.835 334.165 247.442 333.778 246.938 333.478C246.44 333.178 245.798 333.028 245.012 333.028C243.596 333.028 242.516 333.529 241.772 334.531V333.28H240.332V343ZM251.213 343H252.824V336.826C252.824 336.112 253.016 335.539 253.4 335.107C253.79 334.675 254.303 334.459 254.939 334.459C255.575 334.459 256.085 334.672 256.469 335.098C256.853 335.524 257.045 336.106 257.045 336.844L257.036 343H258.629L258.638 336.826C258.638 336.28 258.74 335.833 258.944 335.485C259.148 335.137 259.412 334.879 259.736 334.711C260.06 334.543 260.402 334.459 260.762 334.459C261.374 334.459 261.875 334.666 262.265 335.08C262.655 335.488 262.85 336.055 262.85 336.781L262.841 343H264.443L264.452 336.43C264.452 335.392 264.161 334.567 263.579 333.955C262.997 333.337 262.199 333.028 261.185 333.028C260.543 333.028 259.964 333.172 259.448 333.46C258.932 333.742 258.53 334.132 258.242 334.63C257.978 334.12 257.603 333.727 257.117 333.451C256.631 333.169 256.061 333.028 255.407 333.028C254.825 333.028 254.294 333.145 253.814 333.379C253.34 333.607 252.95 333.919 252.644 334.315V333.28H251.213V343ZM270.92 343.27C271.862 343.27 272.711 343.036 273.467 342.568C274.223 342.094 274.793 341.428 275.177 340.57L273.638 340.039C273.08 341.179 272.15 341.749 270.848 341.749C269.954 341.749 269.252 341.476 268.742 340.93C268.238 340.378 267.953 339.598 267.887 338.59H275.339C275.387 337.438 275.237 336.445 274.889 335.611C274.547 334.777 274.031 334.135 273.341 333.685C272.657 333.235 271.826 333.01 270.848 333.01C269.906 333.01 269.084 333.223 268.382 333.649C267.68 334.069 267.134 334.669 266.744 335.449C266.36 336.223 266.168 337.141 266.168 338.203C266.168 339.217 266.363 340.105 266.753 340.867C267.149 341.623 267.704 342.214 268.418 342.64C269.132 343.06 269.966 343.27 270.92 343.27ZM270.902 334.45C272.552 334.45 273.476 335.401 273.674 337.303H267.914C268.028 336.379 268.337 335.674 268.841 335.188C269.345 334.696 270.032 334.45 270.902 334.45ZM284.763 343.27C285.423 343.27 286.005 343.15 286.509 342.91C287.019 342.664 287.451 342.328 287.805 341.902V343H289.236V330.04H287.625V334.162C287.277 333.802 286.863 333.52 286.383 333.316C285.903 333.112 285.36 333.01 284.754 333.01C283.854 333.01 283.077 333.235 282.423 333.685C281.775 334.129 281.277 334.738 280.929 335.512C280.581 336.286 280.407 337.159 280.407 338.131C280.407 339.103 280.581 339.976 280.929 340.75C281.277 341.524 281.775 342.139 282.423 342.595C283.077 343.045 283.857 343.27 284.763 343.27ZM284.961 341.803C284.325 341.803 283.794 341.641 283.368 341.317C282.948 340.993 282.633 340.555 282.423 340.003C282.213 339.445 282.108 338.821 282.108 338.131C282.108 337.447 282.21 336.829 282.414 336.277C282.624 335.725 282.942 335.287 283.368 334.963C283.8 334.639 284.346 334.477 285.006 334.477C285.954 334.477 286.656 334.819 287.112 335.503C287.574 336.181 287.805 337.057 287.805 338.131C287.805 339.199 287.577 340.078 287.121 340.768C286.665 341.458 285.945 341.803 284.961 341.803ZM295.969 343.27C296.911 343.27 297.76 343.036 298.516 342.568C299.272 342.094 299.842 341.428 300.226 340.57L298.687 340.039C298.129 341.179 297.199 341.749 295.897 341.749C295.003 341.749 294.301 341.476 293.791 340.93C293.287 340.378 293.002 339.598 292.936 338.59H300.388C300.436 337.438 300.286 336.445 299.938 335.611C299.596 334.777 299.08 334.135 298.39 333.685C297.706 333.235 296.875 333.01 295.897 333.01C294.955 333.01 294.133 333.223 293.431 333.649C292.729 334.069 292.183 334.669 291.793 335.449C291.409 336.223 291.217 337.141 291.217 338.203C291.217 339.217 291.412 340.105 291.802 340.867C292.198 341.623 292.753 342.214 293.467 342.64C294.181 343.06 295.015 343.27 295.969 343.27ZM295.951 334.45C297.601 334.45 298.525 335.401 298.723 337.303H292.963C293.077 336.379 293.386 335.674 293.89 335.188C294.394 334.696 295.081 334.45 295.951 334.45ZM302.119 343H303.739V337.879C303.739 336.751 303.982 335.914 304.468 335.368C304.96 334.822 305.608 334.549 306.412 334.549C307.096 334.549 307.63 334.72 308.014 335.062C308.398 335.404 308.665 335.848 308.815 336.394C308.971 336.94 309.049 337.519 309.049 338.131V343H310.669V337.627C310.669 337.165 310.612 336.67 310.498 336.142C310.39 335.608 310.192 335.107 309.904 334.639C309.622 334.165 309.229 333.778 308.725 333.478C308.227 333.178 307.585 333.028 306.799 333.028C305.383 333.028 304.303 333.529 303.559 334.531V333.28H302.119V343ZM317.133 343.27C318.075 343.27 318.924 343.036 319.68 342.568C320.436 342.094 321.006 341.428 321.39 340.57L319.851 340.039C319.293 341.179 318.363 341.749 317.061 341.749C316.167 341.749 315.465 341.476 314.955 340.93C314.451 340.378 314.166 339.598 314.1 338.59H321.552C321.6 337.438 321.45 336.445 321.102 335.611C320.76 334.777 320.244 334.135 319.554 333.685C318.87 333.235 318.039 333.01 317.061 333.01C316.119 333.01 315.297 333.223 314.595 333.649C313.893 334.069 313.347 334.669 312.957 335.449C312.573 336.223 312.381 337.141 312.381 338.203C312.381 339.217 312.576 340.105 312.966 340.867C313.362 341.623 313.917 342.214 314.631 342.64C315.345 343.06 316.179 343.27 317.133 343.27ZM317.115 334.45C318.765 334.45 319.689 335.401 319.887 337.303H314.127C314.241 336.379 314.55 335.674 315.054 335.188C315.558 334.696 316.245 334.45 317.115 334.45ZM324.73 347.32H326.287L331.579 333.28H329.95L327.106 340.93L324.073 333.28H322.39L326.332 342.964L324.73 347.32ZM333.246 331.561H334.848V329.905H333.246V331.561ZM333.246 343H334.848V333.28H333.246V343ZM337.539 343H339.15V336.826C339.15 336.112 339.342 335.539 339.726 335.107C340.116 334.675 340.629 334.459 341.265 334.459C341.901 334.459 342.411 334.672 342.795 335.098C343.179 335.524 343.371 336.106 343.371 336.844L343.362 343H344.955L344.964 336.826C344.964 336.28 345.066 335.833 345.27 335.485C345.474 335.137 345.738 334.879 346.062 334.711C346.386 334.543 346.728 334.459 347.088 334.459C347.7 334.459 348.201 334.666 348.591 335.08C348.981 335.488 349.176 336.055 349.176 336.781L349.167 343H350.769L350.778 336.43C350.778 335.392 350.487 334.567 349.905 333.955C349.323 333.337 348.525 333.028 347.511 333.028C346.869 333.028 346.29 333.172 345.774 333.46C345.258 333.742 344.856 334.132 344.568 334.63C344.304 334.12 343.929 333.727 343.443 333.451C342.957 333.169 342.387 333.028 341.733 333.028C341.151 333.028 340.62 333.145 340.14 333.379C339.666 333.607 339.276 333.919 338.97 334.315V333.28H337.539V343ZM353.302 331.561H354.904V329.905H353.302V331.561ZM353.302 343H354.904V333.28H353.302V343ZM362.558 347.32H364.115L369.407 333.28H367.778L364.934 340.93L361.901 333.28H360.218L364.16 342.964L362.558 347.32ZM373.305 343.27C374.925 343.27 376.125 342.676 376.905 341.488V343H378.327V336.988C378.327 336.604 378.309 336.238 378.273 335.89C378.237 335.536 378.15 335.209 378.012 334.909C377.736 334.273 377.28 333.799 376.644 333.487C376.008 333.169 375.252 333.01 374.376 333.01C373.278 333.01 372.39 333.253 371.712 333.739C371.04 334.225 370.59 334.894 370.362 335.746L371.883 336.205C372.057 335.611 372.366 335.179 372.81 334.909C373.254 334.639 373.77 334.504 374.358 334.504C375.198 334.504 375.801 334.693 376.167 335.071C376.539 335.443 376.734 336.016 376.752 336.79C376.032 336.892 375.276 337 374.484 337.114C373.698 337.222 372.999 337.357 372.387 337.519C371.649 337.735 371.067 338.074 370.641 338.536C370.215 338.992 370.002 339.604 370.002 340.372C370.002 340.894 370.125 341.374 370.371 341.812C370.623 342.25 370.992 342.604 371.478 342.874C371.97 343.138 372.579 343.27 373.305 343.27ZM373.548 341.929C372.858 341.929 372.36 341.77 372.054 341.452C371.748 341.128 371.595 340.765 371.595 340.363C371.595 339.907 371.745 339.559 372.045 339.319C372.351 339.073 372.705 338.887 373.107 338.761C373.581 338.629 374.133 338.518 374.763 338.428C375.393 338.338 376.05 338.248 376.734 338.158C376.734 338.38 376.722 338.632 376.698 338.914C376.68 339.196 376.638 339.454 376.572 339.688C376.458 340.288 376.14 340.813 375.618 341.263C375.102 341.707 374.412 341.929 373.548 341.929ZM384.06 347.329C384.54 347.329 384.954 347.161 385.302 346.825C385.65 346.489 385.824 346.066 385.824 345.556C385.824 345.166 385.725 344.839 385.527 344.575C385.329 344.317 385.065 344.113 384.735 343.963L384.996 343.234C386.01 343.138 386.802 342.829 387.372 342.307C387.942 341.785 388.227 341.098 388.227 340.246C388.227 339.742 388.122 339.319 387.912 338.977C387.702 338.629 387.348 338.329 386.85 338.077C386.358 337.819 385.683 337.582 384.825 337.366C384.063 337.174 383.481 337.003 383.079 336.853C382.683 336.703 382.41 336.544 382.26 336.376C382.116 336.208 382.044 336.007 382.044 335.773C382.044 335.359 382.239 335.029 382.629 334.783C383.025 334.537 383.538 334.423 384.168 334.441C384.828 334.459 385.371 334.621 385.797 334.927C386.223 335.227 386.475 335.635 386.553 336.151L388.191 335.854C388.089 334.996 387.669 334.309 386.931 333.793C386.199 333.271 385.278 333.01 384.168 333.01C383.046 333.01 382.143 333.271 381.459 333.793C380.775 334.309 380.433 334.996 380.433 335.854C380.433 336.316 380.535 336.709 380.739 337.033C380.949 337.357 381.3 337.642 381.792 337.888C382.29 338.134 382.968 338.371 383.826 338.599C384.618 338.809 385.209 338.992 385.599 339.148C385.995 339.298 386.256 339.457 386.382 339.625C386.508 339.793 386.571 340.015 386.571 340.291C386.571 340.765 386.379 341.14 385.995 341.416C385.617 341.692 385.098 341.83 384.438 341.83C383.736 341.83 383.148 341.677 382.674 341.371C382.2 341.059 381.897 340.639 381.765 340.111L380.127 340.372C380.283 341.23 380.691 341.908 381.351 342.406C382.011 342.904 382.863 343.186 383.907 343.252L383.412 344.629C383.718 344.725 383.991 344.83 384.231 344.944C384.477 345.058 384.6 345.247 384.6 345.511C384.6 345.667 384.54 345.811 384.42 345.943C384.306 346.075 384.141 346.141 383.925 346.141C383.757 346.141 383.538 346.093 383.268 345.997L382.881 347.032C383.055 347.116 383.238 347.185 383.43 347.239C383.628 347.299 383.838 347.329 384.06 347.329ZM392.975 343.27C394.595 343.27 395.795 342.676 396.575 341.488V343H397.997V336.988C397.997 336.604 397.979 336.238 397.943 335.89C397.907 335.536 397.82 335.209 397.682 334.909C397.406 334.273 396.95 333.799 396.314 333.487C395.678 333.169 394.922 333.01 394.046 333.01C392.948 333.01 392.06 333.253 391.382 333.739C390.71 334.225 390.26 334.894 390.032 335.746L391.553 336.205C391.727 335.611 392.036 335.179 392.48 334.909C392.924 334.639 393.44 334.504 394.028 334.504C394.868 334.504 395.471 334.693 395.837 335.071C396.209 335.443 396.404 336.016 396.422 336.79C395.702 336.892 394.946 337 394.154 337.114C393.368 337.222 392.669 337.357 392.057 337.519C391.319 337.735 390.737 338.074 390.311 338.536C389.885 338.992 389.672 339.604 389.672 340.372C389.672 340.894 389.795 341.374 390.041 341.812C390.293 342.25 390.662 342.604 391.148 342.874C391.64 343.138 392.249 343.27 392.975 343.27ZM393.218 341.929C392.528 341.929 392.03 341.77 391.724 341.452C391.418 341.128 391.265 340.765 391.265 340.363C391.265 339.907 391.415 339.559 391.715 339.319C392.021 339.073 392.375 338.887 392.777 338.761C393.251 338.629 393.803 338.518 394.433 338.428C395.063 338.338 395.72 338.248 396.404 338.158C396.404 338.38 396.392 338.632 396.368 338.914C396.35 339.196 396.308 339.454 396.242 339.688C396.128 340.288 395.81 340.813 395.288 341.263C394.772 341.707 394.082 341.929 393.218 341.929ZM400.625 343H402.389V341.236H400.625V343Z" fill="#796F6F"/>
<path d="M95.556 266H98.676L104.604 251.456V248.72H93.96V251.456H101.508L95.556 266ZM111.845 248.72H114.749L110.141 266H107.237L111.845 248.72ZM117.38 265.976H129.272V263.252H121.856L126.284 259.328C126.94 258.752 127.488 258.228 127.928 257.756C128.376 257.276 128.712 256.76 128.936 256.208C129.16 255.648 129.272 254.956 129.272 254.132C129.272 253.004 129.016 252.008 128.504 251.144C128 250.272 127.312 249.592 126.44 249.104C125.568 248.608 124.576 248.36 123.464 248.36C122.272 248.36 121.22 248.596 120.308 249.068C119.396 249.54 118.684 250.204 118.172 251.06C117.66 251.916 117.404 252.92 117.404 254.072H120.38C120.364 253.544 120.484 253.052 120.74 252.596C120.996 252.14 121.352 251.776 121.808 251.504C122.272 251.224 122.804 251.084 123.404 251.084C124.26 251.084 124.956 251.372 125.492 251.948C126.036 252.516 126.308 253.232 126.308 254.096C126.308 254.52 126.192 254.96 125.96 255.416C125.736 255.872 125.34 256.356 124.772 256.868L117.38 263.456V265.976ZM138.864 266H141.792V263.144H143.412V260.444H141.792V255.944H138.864V260.444H134.508L140.04 248.72H136.74L131.208 260.444V263.144H138.864V266ZM158.402 266.36C160.13 266.36 161.61 265.984 162.842 265.232C164.082 264.472 165.03 263.416 165.686 262.064C166.35 260.712 166.682 259.144 166.682 257.36C166.682 255.568 166.35 254 165.686 252.656C165.03 251.304 164.082 250.252 162.842 249.5C161.61 248.74 160.13 248.36 158.402 248.36C156.682 248.36 155.202 248.74 153.962 249.5C152.73 250.252 151.782 251.304 151.118 252.656C150.462 254 150.134 255.568 150.134 257.36C150.134 259.144 150.462 260.712 151.118 262.064C151.782 263.416 152.73 264.472 153.962 265.232C155.202 265.984 156.682 266.36 158.402 266.36ZM158.402 263.636C156.666 263.612 155.362 263.032 154.49 261.896C153.618 260.76 153.186 259.248 153.194 257.36C153.202 256.096 153.398 254.992 153.782 254.048C154.166 253.104 154.742 252.372 155.51 251.852C156.278 251.324 157.242 251.068 158.402 251.084C160.146 251.108 161.45 251.688 162.314 252.824C163.186 253.96 163.622 255.472 163.622 257.36C163.622 258.616 163.426 259.72 163.034 260.672C162.65 261.616 162.07 262.348 161.294 262.868C160.526 263.388 159.562 263.644 158.402 263.636ZM169.047 266H171.975V259.34C171.975 258.292 172.123 257.484 172.419 256.916C172.723 256.34 173.107 255.944 173.571 255.728C174.043 255.504 174.523 255.392 175.011 255.392C175.699 255.392 176.247 255.544 176.655 255.848C177.063 256.144 177.363 256.524 177.555 256.988C177.755 257.444 177.883 257.92 177.939 258.416C178.003 258.912 178.035 259.36 178.035 259.76V266H180.963V258.764C180.963 258.46 180.935 258.056 180.879 257.552C180.831 257.048 180.719 256.516 180.543 255.956C180.367 255.396 180.095 254.868 179.727 254.372C179.359 253.868 178.859 253.46 178.227 253.148C177.603 252.828 176.815 252.668 175.863 252.668C174.927 252.668 174.103 252.832 173.391 253.16C172.687 253.48 172.099 253.92 171.627 254.48V253.04H169.047V266ZM184.334 266H187.226V248.36H184.334V266ZM191.061 251.072H193.953V248.42H191.061V251.072ZM191.061 266H193.953V253.04H191.061V266ZM197.523 266H200.451V259.34C200.451 258.292 200.599 257.484 200.895 256.916C201.199 256.34 201.583 255.944 202.047 255.728C202.519 255.504 202.999 255.392 203.487 255.392C204.175 255.392 204.723 255.544 205.131 255.848C205.539 256.144 205.839 256.524 206.031 256.988C206.231 257.444 206.359 257.92 206.415 258.416C206.479 258.912 206.511 259.36 206.511 259.76V266H209.439V258.764C209.439 258.46 209.411 258.056 209.355 257.552C209.307 257.048 209.195 256.516 209.019 255.956C208.843 255.396 208.571 254.868 208.203 254.372C207.835 253.868 207.335 253.46 206.703 253.148C206.079 252.828 205.291 252.668 204.339 252.668C203.403 252.668 202.579 252.832 201.867 253.16C201.163 253.48 200.575 253.92 200.103 254.48V253.04H197.523V266ZM218.252 266.36C219.5 266.36 220.64 266.04 221.672 265.4C222.712 264.752 223.48 263.84 223.976 262.664L221.12 261.8C220.544 263.032 219.532 263.648 218.084 263.648C217.1 263.648 216.324 263.364 215.756 262.796C215.188 262.22 214.848 261.396 214.736 260.324H224.12C224.232 258.764 224.06 257.412 223.604 256.268C223.148 255.124 222.448 254.24 221.504 253.616C220.568 252.992 219.428 252.68 218.084 252.68C216.812 252.68 215.692 252.968 214.724 253.544C213.756 254.112 213 254.92 212.456 255.968C211.912 257.016 211.64 258.248 211.64 259.664C211.64 260.976 211.916 262.136 212.468 263.144C213.028 264.152 213.804 264.94 214.796 265.508C215.788 266.076 216.94 266.36 218.252 266.36ZM218.204 255.212C219.1 255.212 219.788 255.448 220.268 255.92C220.756 256.384 221.064 257.124 221.192 258.14H214.808C215.152 256.188 216.284 255.212 218.204 255.212ZM231.602 266H242.762V263.288H234.494V258.404H241.322V255.692H234.494V251.432H242.762V248.72H231.602V266ZM245.641 266H248.545V259.412C248.545 258.66 248.681 257.992 248.953 257.408C249.233 256.824 249.669 256.372 250.261 256.052C250.661 255.82 251.109 255.684 251.605 255.644C252.101 255.596 252.545 255.628 252.937 255.74V253.04C252.353 252.952 251.753 252.964 251.137 253.076C250.521 253.18 249.973 253.396 249.493 253.724C249.221 253.892 248.977 254.096 248.761 254.336C248.545 254.568 248.357 254.828 248.197 255.116V253.04H245.641V266ZM255.467 251.072H258.359V248.42H255.467V251.072ZM255.467 266H258.359V253.04H255.467V266ZM266.597 271.796C267.277 271.796 267.865 271.556 268.361 271.076C268.865 270.596 269.117 269.98 269.117 269.228C269.117 268.708 268.985 268.264 268.721 267.896C268.465 267.528 268.109 267.232 267.653 267.008L267.893 266.312C269.277 266.176 270.357 265.748 271.133 265.028C271.917 264.3 272.309 263.348 272.309 262.172C272.309 261.164 271.989 260.372 271.349 259.796C270.717 259.22 269.625 258.732 268.073 258.332C267.065 258.076 266.305 257.86 265.793 257.684C265.289 257.508 264.953 257.332 264.785 257.156C264.617 256.98 264.533 256.768 264.533 256.52C264.533 256.088 264.741 255.752 265.157 255.512C265.573 255.264 266.121 255.156 266.801 255.188C267.505 255.228 268.069 255.408 268.493 255.728C268.925 256.048 269.181 256.484 269.261 257.036L272.213 256.508C272.053 255.34 271.481 254.412 270.497 253.724C269.513 253.028 268.265 252.68 266.753 252.68C265.209 252.68 263.973 253.04 263.045 253.76C262.117 254.48 261.653 255.448 261.653 256.664C261.653 257.632 261.977 258.396 262.625 258.956C263.281 259.516 264.421 260.008 266.045 260.432C267.021 260.688 267.741 260.904 268.205 261.08C268.677 261.248 268.985 261.42 269.129 261.596C269.273 261.772 269.345 262.008 269.345 262.304C269.345 262.784 269.153 263.164 268.769 263.444C268.385 263.716 267.849 263.852 267.161 263.852C266.369 263.852 265.709 263.668 265.181 263.3C264.661 262.932 264.329 262.428 264.185 261.788L261.233 262.244C261.433 263.436 261.957 264.384 262.805 265.088C263.661 265.792 264.773 266.204 266.141 266.324L265.529 268.088C265.945 268.208 266.309 268.34 266.621 268.484C266.941 268.628 267.101 268.856 267.101 269.168C267.101 269.32 267.033 269.464 266.897 269.6C266.769 269.744 266.585 269.816 266.345 269.816C266.169 269.816 265.913 269.76 265.577 269.648L264.941 271.364C265.173 271.492 265.425 271.596 265.697 271.676C265.977 271.756 266.277 271.796 266.597 271.796ZM275.178 251.072H278.07V248.42H275.178V251.072ZM275.178 266H278.07V253.04H275.178V266ZM281.64 266H284.556V258.02C284.556 257.212 284.776 256.556 285.216 256.052C285.664 255.548 286.256 255.296 286.992 255.296C287.752 255.296 288.352 255.548 288.792 256.052C289.232 256.556 289.452 257.26 289.452 258.164V266H292.332V258.02C292.332 257.164 292.564 256.496 293.028 256.016C293.5 255.536 294.084 255.296 294.78 255.296C295.524 255.296 296.116 255.548 296.556 256.052C297.004 256.548 297.228 257.24 297.228 258.128V266H300.12V257.396C300.12 255.988 299.736 254.856 298.968 254C298.208 253.144 297.112 252.716 295.68 252.716C294.84 252.716 294.072 252.9 293.376 253.268C292.68 253.636 292.132 254.14 291.732 254.78C291.388 254.148 290.9 253.648 290.268 253.28C289.636 252.904 288.864 252.716 287.952 252.716C287.176 252.716 286.46 252.872 285.804 253.184C285.156 253.488 284.62 253.908 284.196 254.444V253.04H281.64V266Z" fill="#5A47AB"/>
<defs>
<linearGradient id="paint0_linear_23_276" x1="103.36" y1="179.032" x2="283.521" y2="50.3986" gradientUnits="userSpaceOnUse">
<stop stop-color="#FCEE21"/>
<stop offset="1" stop-color="#00A99D"/>
</linearGradient>
<linearGradient id="paint1_linear_23_276" x1="109.412" y1="174.713" x2="279.761" y2="53.0861" gradientUnits="userSpaceOnUse">
<stop stop-color="#FFEF09"/>
<stop offset="1" stop-color="#00A99D"/>
</linearGradient>
<linearGradient id="paint2_linear_23_276" x1="202.502" y1="61.5674" x2="202.502" y2="160.604" gradientUnits="userSpaceOnUse">
<stop stop-color="#39229A"/>
<stop offset="1" stop-color="#E65B55"/>
</linearGradient>
</defs>
</svg>
