<svg width="48" height="32" viewBox="0 0 43 42" fill="none" xmlns="http://www.w3.org/2000/svg">
<path d="M20.993 10.0192C15.0337 10.0192 10.206 14.7629 10.206 20.6135C10.206 26.4665 15.0337 31.2102 20.993 31.2102C26.9477 31.2102 31.78 26.4665 31.78 20.6135C31.78 14.7629 26.9477 10.0192 20.993 10.0192ZM20.993 27.4977C17.122 27.4977 13.9837 24.4154 13.9837 20.6158C13.9837 16.814 17.122 13.734 20.993 13.734C24.864 13.734 27.9977 16.814 27.9977 20.6158C27.9977 24.4154 24.864 27.4977 20.993 27.4977Z" fill="#796F6F"/>
<path d="M32.2093 12.1C33.5985 12.1 34.7247 10.994 34.7247 9.62958C34.7247 8.26521 33.5985 7.15917 32.2093 7.15917C30.8202 7.15917 29.694 8.26521 29.694 9.62958C29.694 10.994 30.8202 12.1 32.2093 12.1Z" fill="#796F6F"/>
<path d="M40.9057 7.11792C39.8113 4.34729 37.583 2.15646 34.762 1.08625C33.131 0.483541 31.4067 0.160416 29.6613 0.12375C27.4143 0.0274998 26.7027 0 21.0047 0C15.3067 0 14.5763 -2.30968e-07 12.348 0.12375C10.6073 0.158125 8.883 0.48125 7.252 1.08625C4.42867 2.15646 2.20033 4.34729 1.10833 7.11792C0.494666 8.72208 0.165667 10.4133 0.130667 12.1275C0.0303333 14.3321 0 15.031 0 20.6296C0 26.2258 -2.98023e-08 26.9385 0.130667 29.1317C0.165667 30.8458 0.494666 32.5371 1.10833 34.1435C2.20267 36.9119 4.431 39.1027 7.25433 40.1752C8.87833 40.7985 10.6027 41.1515 12.3527 41.2065C14.5997 41.3027 15.3113 41.3325 21.0093 41.3325C26.7073 41.3325 27.4377 41.3325 29.666 41.2065C31.409 41.1721 33.1333 40.8467 34.7667 40.2462C37.5877 39.1715 39.816 36.9829 40.9103 34.2123C41.524 32.6081 41.853 30.9169 41.888 29.2027C41.9883 26.9981 42.0187 26.2992 42.0187 20.7006C42.0187 15.1021 42.0187 14.3917 41.888 12.1985C41.8577 10.4615 41.531 8.74042 40.9057 7.11792ZM38.0637 28.9621C38.0473 30.2821 37.8047 31.5906 37.338 32.8304C36.6263 34.634 35.1773 36.0594 33.3433 36.7515C32.095 37.2075 30.779 37.4458 29.4467 37.4642C27.23 37.565 26.6047 37.5902 20.9207 37.5902C15.232 37.5902 14.651 37.5902 12.3923 37.4642C11.0647 37.4481 9.744 37.2075 8.498 36.7515C6.657 36.0617 5.19867 34.6362 4.487 32.8304C4.02967 31.6067 3.78233 30.3119 3.76133 29.0056C3.661 26.8285 3.63767 26.2144 3.63767 20.6319C3.63767 15.0471 3.63767 14.4765 3.76133 12.2558C3.77767 10.9358 4.02033 9.62958 4.487 8.38979C5.19867 6.58167 6.657 5.15854 8.498 4.46646C9.744 4.01271 11.0647 3.77208 12.3923 3.75375C14.6113 3.65521 15.2343 3.62771 20.9207 3.62771C26.607 3.62771 27.1903 3.62771 29.4467 3.75375C30.779 3.76979 32.095 4.01042 33.3433 4.46646C35.1773 5.16083 36.6263 6.58625 37.338 8.38979C37.7953 9.61354 38.0427 10.9083 38.0637 12.2146C38.164 14.394 38.1897 15.0058 38.1897 20.5906C38.1897 26.1731 38.1897 26.7735 38.0893 28.9644H38.0637V28.9621Z" fill="#796F6F"/>
</svg>
