<svg width="299" height="297" viewBox="0 0 299 297" fill="none" xmlns="http://www.w3.org/2000/svg">
<path d="M158.658 295.582C143.447 293.04 132.535 282.804 122.913 273.773C117.76 268.939 112.887 264.368 107.68 261.089C95.9129 253.682 85.4204 250.868 75.27 248.148C58.8629 243.757 41.8962 239.21 23.6394 216.243C5.25822 193.113 -1.63569 171.095 2.56906 148.928C6.68831 127.19 21.3622 108.396 33.6811 94.461C41.7175 85.3597 47.3368 74.0979 53.2747 62.1753C58.4432 51.8073 63.7827 41.0894 71.0264 31.3665C89.6096 6.44109 107.703 -2.50469 131.525 1.47467C140.712 3.00578 150.155 6.30896 160.15 9.80644C168.987 12.892 178.119 16.0863 188.355 18.5968C189.342 18.8377 190.391 19.0553 191.464 19.2341C196.671 20.1046 202.158 20.1279 207.957 20.159C214.151 20.1901 220.547 20.2212 227.053 21.3093C234.84 22.6072 241.54 25.2575 247.517 29.4001C265.999 42.2009 267.693 56.8203 269.333 70.9501C270.002 76.7093 270.693 82.655 272.536 88.8339C274.89 96.7149 279.134 103.982 283.626 111.684C290.497 123.451 297.601 135.622 298.308 150.926C299.668 180.382 280.331 196.743 265.673 206.489C260.971 209.621 256.338 212.085 251.862 214.471C242.55 219.43 234.514 223.712 229.237 232.347C227.659 234.927 226.82 239.35 226.011 243.625C225.04 248.754 224.029 254.063 221.55 258.835C212.581 276.12 192.964 294.33 169.36 296.071C165.723 296.32 162.124 296.157 158.658 295.582Z" stroke="url(#paint0_linear_86_1095)" stroke-miterlimit="10" stroke-dasharray="25 25"/>
<path d="M29.725 211.409C57.2774 246.073 79.5524 234.189 111.822 254.505C130.211 266.078 142.927 290.195 168.793 288.299C188.246 286.869 205.936 272.04 214.656 255.236C218.729 247.386 218.169 235.549 222.607 228.282C231.77 213.29 246.895 209.629 261.375 200.007C278.061 188.908 291.624 174.662 290.544 151.275C289.494 128.464 271.424 112.298 265.082 91.0489C258.445 68.8049 265.579 51.3642 243.087 35.7732C225.195 23.3766 205.096 30.698 186.498 26.1357C138.955 14.4852 112.981 -11.9246 77.2519 36.0064C62.306 56.0586 55.5519 81.4347 39.4946 99.5983C10.9552 131.907 -6.82751 165.421 29.725 211.409Z" fill="url(#paint1_linear_86_1095)"/>
<path d="M212.434 61H159.348C152.029 61 145.781 67.5431 145.781 74.8613V119.1C145.781 126.418 152.029 132.371 159.348 132.371H212.434C219.752 132.371 226 126.418 226 119.1V74.8613C226 67.5431 219.752 61 212.434 61ZM172.619 110.252C172.619 112.697 170.641 114.676 168.195 114.676C165.75 114.676 163.771 112.697 163.771 110.252V101.404C163.771 98.9591 165.75 96.9805 168.195 96.9805C170.641 96.9805 172.619 98.9591 172.619 101.404V110.252ZM190.314 110.252C190.314 112.697 188.336 114.676 185.891 114.676C183.445 114.676 181.467 112.697 181.467 110.252V92.5566C181.467 90.1114 183.445 88.1328 185.891 88.1328C188.336 88.1328 190.314 90.1114 190.314 92.5566V110.252ZM208.01 110.252C208.01 112.697 206.031 114.676 203.586 114.676C201.141 114.676 199.162 112.697 199.162 110.252V83.709C199.162 81.2638 201.141 79.2852 203.586 79.2852C206.031 79.2852 208.01 81.2638 208.01 83.709V110.252Z" fill="#F2F2F2"/>
<path d="M110.391 88.1328C100.631 88.1328 92.6953 96.0689 92.6953 105.828C92.6953 115.587 100.631 123.523 110.391 123.523C120.15 123.523 128.086 115.587 128.086 105.828C128.086 96.0689 120.15 88.1328 110.391 88.1328Z" fill="#F2F2F2"/>
<path d="M125.909 127.264C121.534 130.441 116.2 132.371 110.391 132.371C104.582 132.371 99.2473 130.441 94.8721 127.264C84.6392 132.305 77.1099 142.028 75.3813 153.712C75.1404 155.339 75.8408 156.809 76.9819 157.786C80.9359 148.086 90.4386 141.219 101.543 141.219C112.429 141.219 121.784 147.817 125.874 157.213C128.848 150.38 134.646 145.132 141.759 142.724C138.255 136.048 132.701 130.61 125.909 127.264Z" fill="#F2F2F2"/>
<path d="M101.543 150.066C91.7837 150.066 83.8477 158.002 83.8477 167.762C83.8477 177.521 91.7837 185.457 101.543 185.457C111.302 185.457 119.238 177.521 119.238 167.762C119.238 158.002 111.302 150.066 101.543 150.066Z" fill="#F2F2F2"/>
<path d="M150.205 150.066C140.446 150.066 132.51 158.002 132.51 167.762C132.51 177.521 140.446 185.457 150.205 185.457C159.964 185.457 168.195 177.521 168.195 167.762C168.195 158.002 159.964 150.066 150.205 150.066Z" fill="#F2F2F2"/>
<path d="M199.162 150.066C189.403 150.066 181.467 158.002 181.467 167.762C181.467 177.521 189.403 185.457 199.162 185.457C208.921 185.457 217.152 177.521 217.152 167.762C217.152 158.002 208.921 150.066 199.162 150.066Z" fill="#F2F2F2"/>
<path d="M114.814 203.152C114.814 197.799 116.082 192.764 118.241 188.224C113.666 191.965 107.901 194.305 101.543 194.305C93.729 194.305 86.7653 190.848 81.9035 185.457C77.659 190.164 75 196.33 75 203.152V207.576C75 210.021 76.9786 212 79.4238 212H115.629C115.134 210.609 114.814 209.135 114.814 207.576V203.152Z" fill="#F2F2F2"/>
<path d="M170.139 185.457C165.278 190.848 158.019 194.305 150.205 194.305C142.391 194.305 135.427 190.848 130.566 185.457C126.321 190.164 123.662 196.33 123.662 203.152V207.576C123.662 210.021 125.641 212 128.086 212H172.619C175.064 212 177.043 210.021 177.043 207.576V203.152C177.043 196.33 174.384 190.164 170.139 185.457Z" fill="#F2F2F2"/>
<path d="M219.096 185.457C214.234 190.848 206.976 194.305 199.162 194.305C192.804 194.305 187.039 191.965 182.463 188.224C184.623 192.764 185.89 197.799 185.89 203.152V207.576C185.89 209.135 185.571 210.609 185.076 212H221.576C224.021 212 226 210.021 226 207.576V203.152C226 196.33 223.341 190.164 219.096 185.457Z" fill="#F2F2F2"/>
<defs>
<linearGradient id="paint0_linear_86_1095" x1="68.5065" y1="26.2325" x2="235.03" y2="259.463" gradientUnits="userSpaceOnUse">
<stop stop-color="#FCEE21"/>
<stop offset="1" stop-color="#00A99D"/>
</linearGradient>
<linearGradient id="paint1_linear_86_1095" x1="74.0975" y1="34.0685" x2="231.551" y2="254.595" gradientUnits="userSpaceOnUse">
<stop stop-color="#7D34F4"/>
<stop offset="1" stop-color="#00A99D"/>
</linearGradient>
</defs>
</svg>
