<svg width="80" height="75" viewBox="0 0 80 75" fill="none" xmlns="http://www.w3.org/2000/svg">
<rect width="79.2253" height="75" rx="14" fill="#5A47AB"/>
<path d="M31.1812 50.2516H36.1567V35.3809H47.0861C47.4588 35.3809 47.9154 35.3622 48.4558 35.3249C48.9962 35.2877 49.5273 35.2318 50.0491 35.1572C53.2916 34.6541 55.7607 33.2565 57.4565 30.9644C59.1523 28.6536 60.0002 25.8956 60.0002 22.6904C60.0002 19.4852 59.1523 16.7365 57.4565 14.4444C55.7793 12.1337 53.3102 10.7268 50.0491 10.2236C49.5273 10.1304 48.9962 10.0745 48.4558 10.0559C47.934 10.0186 47.4774 10 47.0861 10H31.1812V50.2516ZM36.1567 30.6569V14.724H46.9184C47.2725 14.724 47.6731 14.7426 48.1204 14.7799C48.5862 14.8171 49.0242 14.8824 49.4341 14.9755C51.3722 15.4041 52.7698 16.3825 53.627 17.9106C54.4842 19.42 54.9128 21.0133 54.9128 22.6904C54.9128 24.3676 54.4842 25.9702 53.627 27.4983C52.7698 29.0077 51.3722 29.9767 49.4341 30.4053C49.0242 30.4985 48.5862 30.5637 48.1204 30.601C47.6731 30.6382 47.2725 30.6569 46.9184 30.6569H36.1567Z" fill="#FBD15B"/>
<path d="M32.914 32.3619C29.802 32.3619 27.1372 33.1073 24.9196 34.5981C22.7021 36.0889 21.0622 38.2413 20 41.0552L25.0314 42.3689C26.4291 38.8469 29.0566 37.0859 32.914 37.0859C35.9143 37.0859 38.1784 38.1108 39.7065 40.1607C41.2159 42.2105 41.9893 44.9219 42.0266 48.2949C41.9893 51.5746 41.2346 54.2581 39.7624 56.3452C38.2902 58.4509 36.0075 59.5038 32.914 59.5038C31.0878 59.5038 29.4573 59.0193 28.0224 58.0503C26.5875 57.0813 25.5532 55.7209 24.9196 53.9692L20 55.4507C20.8013 58.1714 22.3573 60.3144 24.6681 61.8798C26.9602 63.4451 29.6902 64.2278 32.8581 64.2278C35.877 64.2278 38.4673 63.5476 40.6289 62.1872C42.772 60.8455 44.4118 58.982 45.5486 56.5967C46.6853 54.2115 47.2723 51.4442 47.3096 48.2949C47.2723 45.2201 46.6946 42.4807 45.5765 40.0768C44.4584 37.6729 42.8372 35.7815 40.7128 34.4025C38.5698 33.0421 35.9702 32.3619 32.914 32.3619Z" fill="#FBD15B"/>
</svg>
