<svg width="80" height="75" viewBox="0 0 80 75" fill="none" xmlns="http://www.w3.org/2000/svg">
<rect width="79.2253" height="75" rx="14" fill="#5A47AB"/>
<path d="M43.8872 55C46.3517 55 48.6581 54.5883 50.8062 53.765C52.9544 52.9417 54.6862 51.7068 56.0017 50.0601C57.3339 48.4135 58 46.3635 58 43.91C58 42.1481 57.667 40.6909 57.0009 39.5383C56.3514 38.3692 55.5105 37.4306 54.478 36.7225C53.4623 36.0145 52.4048 35.4629 51.3058 35.0677C50.2234 34.6725 49.2409 34.3596 48.3583 34.1291L41.9139 32.3508C41.1146 32.1367 40.3153 31.8733 39.5159 31.5604C38.7166 31.2311 38.0505 30.7947 37.5177 30.2513C36.9848 29.6915 36.7184 28.9752 36.7184 28.1025C36.7184 27.1804 37.0264 26.3735 37.6426 25.682C38.2753 24.9904 39.0996 24.4552 40.1154 24.0765C41.1479 23.6978 42.2636 23.5249 43.4625 23.5578C45.3109 23.6072 51.3022 18.1898 52.7842 19.2107C54.2663 20.2316 55.1988 21.6806 55.5818 23.5577L57.7252 28.3989C56.9259 25.1057 55.2857 22.5616 52.8045 20.7668C50.3233 18.9555 47.2343 18.0334 43.5375 18.0005C41.1062 17.984 38.8915 18.371 36.8932 19.1614C34.9116 19.9353 33.3296 21.0961 32.1473 22.644C30.9816 24.1918 30.3988 26.1101 30.3988 28.3989C30.3988 29.9632 30.6569 31.2805 31.1731 32.3508C31.706 33.4046 32.3804 34.2691 33.1964 34.9442C34.029 35.6193 34.9033 36.1545 35.8191 36.5496C36.7517 36.9448 37.6176 37.2577 38.4169 37.4882L47.7089 40.2051C50.3732 40.9955 51.7054 42.3622 51.7054 44.3052C51.7054 45.392 51.3474 46.3223 50.6314 47.0962C49.932 47.8537 49.0161 48.43 47.8837 48.8252C46.7514 49.2204 45.5441 49.418 44.2619 49.418C42.0971 49.418 38.5 49.0005 36.5 48C33.8023 47.4072 31.5329 42.1077 31 40L25 39L29 41L30.3988 42.6606L32.1473 47.0962L22 41.9999C22.383 44.3216 24.7748 46 26.7748 47.689C28.2748 49 34.6951 52.7359 36.7933 53.6415C38.9081 54.5472 41.2728 55 43.8872 55Z" fill="#FBD15B"/>
</svg>
